<?xml version="1.0" encoding="utf-8"?>
<!-- Generator: Adobe Illustrator 16.0.0, SVG Export Plug-In . SVG Version: 6.00 Build 0)  -->
<!DOCTYPE svg PUBLIC "-//W3C//DTD SVG 1.1//EN" "http://www.w3.org/Graphics/SVG/1.1/DTD/svg11.dtd">
<svg version="1.1" id="Layer_1" xmlns="http://www.w3.org/2000/svg" xmlns:xlink="http://www.w3.org/1999/xlink" x="0px" y="0px"
	 width="17.502px" height="26.127px" viewBox="0 0 17.502 26.127" enable-background="new 0 0 17.502 26.127" xml:space="preserve">
<path fill="#FFFFFF" d="M13.25,17.627c-0.668,0-1.301,0.154-1.863,0.43l-3.26-3.26c0.24-0.531,0.375-1.121,0.375-1.742
	c0-0.623-0.135-1.213-0.375-1.744l3.246-3.246c0.566,0.279,1.203,0.438,1.877,0.438c2.348,0,4.252-1.904,4.252-4.252
	S15.598,0,13.25,0S9,1.902,9,4.25c0,0.57,0.113,1.111,0.314,1.607l-3.32,3.32c-0.531-0.24-1.121-0.373-1.742-0.373
	C1.904,8.805,0,10.707,0,13.055s1.904,4.25,4.252,4.25c0.621,0,1.211-0.135,1.742-0.375l3.326,3.326C9.115,20.756,9,21.303,9,21.877
	c0,2.348,1.902,4.25,4.25,4.25s4.252-1.902,4.252-4.25S15.598,17.627,13.25,17.627z"/>
</svg>
