<?xml version="1.0" standalone="no"?>
<!DOCTYPE svg PUBLIC "-//W3C//DTD SVG 20010904//EN"
 "http://www.w3.org/TR/2001/REC-SVG-20010904/DTD/svg10.dtd">
<svg version="1.0" xmlns="http://www.w3.org/2000/svg"
 width="256.000000pt" height="256.000000pt" viewBox="0 0 256.000000 256.000000"
 preserveAspectRatio="xMidYMid meet">
<metadata>
Created by potrace 1.14, written by Peter Selinger 2001-2017
</metadata>
<g transform="translate(0.000000,256.000000) scale(0.100000,-0.100000)"
fill="#000000" stroke="none">
<path d="M2077 2525 c-58 -16 -136 -65 -177 -111 -83 -95 -117 -247 -80 -358
6 -17 7 -33 3 -37 -5 -4 -91 -51 -192 -104 l-184 -98 -21 29 c-44 62 -129 134
-199 169 -90 45 -116 50 -242 50 -111 0 -193 -23 -273 -76 -34 -23 -47 -27
-63 -19 -10 6 -19 14 -19 18 0 4 -22 30 -49 58 l-49 52 20 33 c125 205 -73
448 -294 363 -199 -77 -210 -352 -18 -449 57 -29 154 -29 210 -2 l35 18 66
-73 67 -73 -33 -37 c-68 -80 -115 -214 -115 -328 0 -378 383 -628 734 -479 38
16 71 27 75 24 3 -3 83 -117 177 -253 95 -136 195 -279 223 -319 l51 -72 -31
-50 c-18 -28 -36 -51 -40 -51 -5 0 -46 9 -92 19 -45 11 -94 22 -107 25 -14 2
-45 9 -70 15 -25 5 -56 12 -70 15 -14 3 -119 26 -235 51 -304 67 -379 83 -484
105 -52 11 -96 22 -98 24 -2 1 -10 29 -18 61 -9 31 -25 71 -37 87 -86 122
-265 138 -373 33 -85 -83 -97 -210 -30 -311 101 -154 346 -139 420 26 19 42
28 46 85 30 19 -5 46 -11 60 -14 14 -2 119 -25 235 -51 116 -25 221 -48 235
-51 14 -3 138 -30 275 -60 138 -31 257 -57 265 -59 8 -2 20 -4 26 -4 7 -1 12
-19 12 -41 1 -81 62 -169 145 -208 51 -25 155 -24 203 1 112 59 163 167 134
286 -15 62 -72 130 -135 160 -53 25 -139 28 -189 7 l-34 -14 -32 47 c-19 25
-118 169 -223 318 -104 150 -193 276 -198 279 -5 3 14 31 43 63 29 31 68 85
86 118 19 36 38 60 45 58 10 -4 340 -104 406 -124 20 -6 25 -15 28 -52 10
-129 121 -232 248 -230 202 2 314 233 192 393 -98 128 -295 128 -387 1 -47
-65 -39 -63 -152 -27 -144 45 -250 77 -269 81 -9 1 -28 7 -42 12 -23 9 -24 13
-17 45 15 68 -5 251 -31 282 -7 9 13 25 78 60 48 25 128 69 177 96 92 50 136
67 136 52 0 -5 18 -28 39 -51 168 -177 458 -150 591 57 127 199 41 466 -180
555 -56 22 -179 27 -243 10z"/>
</g>
</svg>
