<?xml version="1.0" encoding="UTF-8" standalone="no"?>
<!-- Created with Inkscape (http://www.inkscape.org/) -->

<svg
   xmlns:dc="http://purl.org/dc/elements/1.1/"
   xmlns:cc="http://creativecommons.org/ns#"
   xmlns:rdf="http://www.w3.org/1999/02/22-rdf-syntax-ns#"
   xmlns:svg="http://www.w3.org/2000/svg"
   xmlns="http://www.w3.org/2000/svg"
   xmlns:sodipodi="http://sodipodi.sourceforge.net/DTD/sodipodi-0.dtd"
   xmlns:inkscape="http://www.inkscape.org/namespaces/inkscape"
   version="1.1"
   width="85.247803"
   height="85.983414"
   id="svg2"
   xml:space="preserve"
   inkscape:version="0.91 r13725"
   sodipodi:docname="logo_WFP.svg"><sodipodi:namedview
     pagecolor="#ffffff"
     bordercolor="#666666"
     borderopacity="1"
     objecttolerance="10"
     gridtolerance="10"
     guidetolerance="10"
     inkscape:pageopacity="0"
     inkscape:pageshadow="2"
     inkscape:window-width="1366"
     inkscape:window-height="706"
     id="namedview64"
     showgrid="false"
     fit-margin-top="0"
     fit-margin-left="0"
     fit-margin-right="0"
     fit-margin-bottom="0"
     inkscape:zoom="1.4031761"
     inkscape:cx="105.47529"
     inkscape:cy="42.764166"
     inkscape:window-x="-8"
     inkscape:window-y="-8"
     inkscape:window-maximized="1"
     inkscape:current-layer="g14" /><metadata
     id="metadata8"><rdf:RDF><cc:Work
         rdf:about=""><dc:format>image/svg+xml</dc:format><dc:type
           rdf:resource="http://purl.org/dc/dcmitype/StillImage" /><dc:title></dc:title></cc:Work></rdf:RDF></metadata><defs
     id="defs6"><clipPath
       id="clipPath18"><path
         d="M 0,691.504 0,0 l 1687.63,0 0,691.504 -1687.63,0 z"
         inkscape:connector-curvature="0"
         id="path20" /></clipPath></defs><g
     transform="matrix(1.25,0,0,-1.25,2.8753719e-4,86.438)"
     id="g10"><g
       id="g14"
       transform="scale(0.1,0.1)"><path
         d="m 392.41,490.203 c 3.664,7.926 7.055,14.231 11.945,21.75 2.153,3.317 4.59,5.629 6.762,8.981 -1.039,0.296 -2.555,-0.559 -3.207,-1.028 -2.172,-1.57 -3.152,-4.129 -4.89,-5.496 -4.11,-3.242 -3.997,-6.183 -6.149,-7.695 -1.926,-1.36 -2.476,-2.246 -3.824,-4.36 -0.899,-1.414 -1.563,-2.554 -2.516,-5.343 -0.336,-1 -1.011,-0.114 -2.609,-2.321 -2.106,-2.871 -3.051,-5.968 -3.922,-9.441 -0.277,-1.145 -2.223,-1.742 -3.469,-4.117 -1.676,-3.199 -2.761,-6.156 -3.484,-10.817 -0.184,-1.082 -2.008,-1.836 -3.27,-4.843 -0.89,-2.114 -1.531,-2.582 -2.312,-6.571 -0.481,-2.433 -1.586,-2.785 -2.836,-6.312 -0.969,-2.692 -1.008,-5.289 -1.344,-8.805 -0.078,-0.683 -1.23,-2.039 -2.297,-4.004 -1.781,-3.301 -1.722,-5.504 -2.433,-8.902 -0.27,-1.234 -1.649,-2.859 -2.977,-8.141 -1.164,-4.676 -0.098,-7.781 -0.492,-10.082 -1.027,-5.992 -2.059,-11.187 -1.504,-17.086 0.273,-2.882 0.715,-5.859 0.523,-8.629 -0.55,-8.695 -1.019,-15.851 -0.972,-25.707 0.031,-5.371 0.449,-12.711 1.262,-18.824 0.89,-6.746 2.175,-12.019 2.175,-12.019 l 21.996,0 c 0,0 -0.855,12.718 0.282,26.109 0.672,8.023 2.586,16.531 4.32,22.508 2.195,7.617 3.562,11.566 7.719,21.621 0.09,0.215 -0.028,1.164 -1.125,0.238 -2.297,-1.926 -4.211,-3.625 -6.024,-6.351 -2.765,-4.168 -4.453,-7.606 -6.691,-11.895 -2.625,-4.98 -4.07,-9.316 -6.77,-15.371 -0.16,4.371 0.551,8.527 1.438,12.551 0.906,4.109 1.629,7.363 2.918,10.902 2.297,6.254 4.515,11.469 8.191,17.281 2.137,3.36 4.856,6.371 7.617,8.879 3.309,3.024 6.364,5.676 9.821,8.633 -3.633,1.875 -8.477,-2.039 -9.442,-2.234 -5.117,-1 -7.199,-5.742 -8.765,-6.391 -2.239,-0.937 -3.535,-2.305 -5.086,-4.195 -1.199,-1.422 -1.555,-3.61 -2.809,-4.387 -2.086,-1.297 -3.617,-3.266 -5.055,-6 -0.589,-1.133 -2.191,-6.477 -3.98,-5.789 3.055,18.125 9.453,35.125 19.723,50.258 6.519,9.594 13.601,17.82 24.043,25.211 1.371,0.976 1.644,1.426 -0.278,1.355 -9.761,-1.183 -10.355,-5.636 -11.965,-6.058 -1.523,-0.395 -3.414,-2.204 -4.613,-3.375 -2.172,-2.149 -2.133,-3.95 -2.969,-4.52 -1.781,-1.242 -3.121,-2.531 -4.336,-4.687 -0.632,-1.125 -1.714,-3.598 -2.668,-4.164 -2.503,-1.458 -4.933,-3.571 -6.14,-5.852 -0.895,-1.676 -1.25,-3.484 -2.418,-5.129 -1.25,-1.762 -2.992,-3.074 -4.496,-4.351 1.14,7.746 4.789,16.921 7.304,24.847 3.379,10.57 7.477,20.18 12.098,30.168"
         inkscape:connector-curvature="0"
         id="path22"
         style="fill:#0088FF;fill-opacity:1;fill-rule:nonzero;stroke:none" /><path
         d="m 414.867,427.41 c 8.324,18.699 17.086,32.762 28.473,49.215 1.488,2.152 2.82,4.27 4.121,6.289 0.586,0.91 3.383,4.934 3.965,5.785 3.816,5.77 5.422,7.528 9.332,13.039 1.058,1.5 1.914,2.672 2.363,4.399 0.832,3.226 -1.933,5.39 -2.57,8.48 -0.645,3.16 -0.297,6.606 1.16,9.27 0.906,1.672 1.809,2.324 2.723,4.566 1.773,4.313 1.164,13.637 3.183,13.883 -0.512,-4.438 -0.629,-9.41 0.063,-13.648 0.812,-4.958 3.82,-7.961 5.058,-13.215 3.348,0.605 6.981,0.461 9.789,0.218 2.793,-0.238 6.328,0.539 9.192,1.52 3.883,1.324 7.109,3.742 11.07,4.68 -3.371,-3.239 -8.121,-4.453 -12.101,-6.911 -1.465,-0.914 -2.84,-2.132 -3.817,-3.648 -1.605,-2.484 -2.867,-4.867 -5.371,-5.957 -4.453,-1.941 -8.27,-1.02 -13.348,-1.969 -7.539,-7.765 -14.632,-18.328 -21.183,-29.441 -16.61,-28.09 -30.453,-57.192 -38.508,-87.027 2.785,5.191 5.445,10.214 8.457,15.152 3.336,5.484 7.082,10.855 11.168,16.238 9.559,12.606 19.019,23.606 29.613,35.184 8.555,9.347 17.93,17.195 28.387,23.761 13.812,8.661 30.855,14.723 45.828,11.598 1.703,-0.402 4.141,-0.851 5.203,-1.976 -18.765,2.628 -35.578,-3.93 -48.125,-13.973 -9.91,-7.926 -18.265,-15.973 -26.758,-26.434 -4.379,-5.035 -8.324,-10.57 -12.238,-15.937 -4.101,-5.641 -7.738,-11.574 -11.348,-17.508 -12.164,-20.082 -21.367,-41.352 -28.14,-63.387 -0.192,-0.695 -0.235,-1.398 -0.43,-2.094 0.328,0.5 0.801,1.032 1.117,1.54 9.114,14.812 20.071,29.113 33.946,38.707 1.211,0.82 2.476,2.418 2.797,3.668 1.503,5.882 -2.977,8.703 3.222,16.839 1.43,1.864 3.371,2.547 4.715,4.286 2.539,3.921 4.609,10.945 6.73,12.839 -1.066,-4.582 -3.695,-9.418 -4.253,-14.132 -0.594,-5.176 0.73,-9.411 0.96,-14.895 3.668,-0.496 6.504,-2.051 9.379,-2.937 4.473,-1.399 7.161,-1.039 11.582,-0.661 1.891,0.164 5.313,1.266 7.348,0.844 -4.277,-2.332 -10.055,-1.898 -14.43,-4.133 -3.058,-1.574 -3.949,-3.882 -8.168,-4.703 -3.757,-0.726 -6.918,-0.336 -9.363,0.914 -1.898,0.961 -3.387,1.364 -5.09,0.547 -4.554,-2.187 -7.664,-5.273 -11.332,-8.976 -8.511,-8.571 -15.461,-18.125 -21.941,-30.668 -1.715,-3.329 -3.258,-6.625 -4.723,-10.02 -0.722,-1.66 -2.515,-6.25 -2.515,-6.25 l -22.243,0 c 0,0 -0.058,6.414 0.153,8.762 0.426,4.668 1.058,8.125 1.969,12.859 1.289,6.809 2.55,12.988 4.316,19.594 1.723,6.426 3.578,12.461 5.781,18.629 4.598,12.875 9.485,25.199 14.832,37.195"
         inkscape:connector-curvature="0"
         id="path24"
         style="fill:#0088FF;fill-opacity:1;fill-rule:nonzero;stroke:none" /><path
         d="m 199.805,254.16 c 8.121,6.641 14.133,10.488 22.234,15.313 3.293,1.972 8.273,4.199 12.102,5.937 14.047,6.348 32.632,11.028 50.136,11.348 0.317,0 0.297,-0.02 0.297,-0.02 l 130.531,0 c 0,0 -0.488,0.02 0.457,0.02 4.157,0 8.266,-1.446 10.809,-3.848 2.547,-2.414 3.766,-6.14 4.43,-9.844 0.562,-3.156 0.285,-5.957 -0.449,-9.336 -0.571,-2.664 -1.004,-4.257 -2.485,-6.523 -0.902,-1.379 -1.754,-2.324 -3.426,-3.652 -1.711,-1.367 -4.144,-1.844 -6.925,-1.875 -0.293,-0.008 -0.914,-0.032 -0.895,-0.02 0.027,0.02 -152.68,0.02 -152.68,0.02 0,0 -0.949,0.011 -1.425,0.011 -9.996,0.028 -20.52,-0.48 -30.399,-1.769 -7.562,-1.035 -15.144,-2.219 -22.461,-4.121 -9.218,-2.403 -18.097,-5.742 -26.961,-9.043 4.91,6.523 10.586,12.07 17.11,17.402"
         inkscape:connector-curvature="0"
         id="path26"
         style="fill:#0088FF;fill-opacity:1;fill-rule:nonzero;stroke:none" /><path
         d="m 245.133,306.094 c 8.015,5.793 17.758,10.547 26.383,13.847 4.375,1.661 10.187,3.497 14.808,4.649 5.578,1.406 11.992,2.461 17.223,2.617 1.574,0.039 0.23,0.012 0.23,0.012 l 111.961,0.008 c 0,0 2.399,-0.125 3.227,-0.293 2.105,-0.45 3.805,-1.309 4.508,-1.758 1.742,-1.114 3.922,-3.457 5.062,-5.313 2.906,-4.785 3.418,-9.953 2.481,-15.324 -1.078,-6.141 -5.743,-13.133 -12.071,-13.309 -1.101,-0.031 -3.304,0 -3.304,0 l -121.262,0 c 0,0 -7.055,-0.136 -10.281,-0.253 -5.961,-0.235 -12.575,-0.918 -17.782,-1.68 -4.457,-0.645 -8.804,-1.485 -13.265,-2.676 -14.949,-4.043 -27.938,-11.621 -41.528,-17.519 9.153,15.996 21.528,28.242 33.61,36.992"
         inkscape:connector-curvature="0"
         id="path28"
         style="fill:#0088FF;fill-opacity:1;fill-rule:nonzero;stroke:none" /><path
         d="m 182.5,230 c 19.465,11.504 42.91,16.035 64.371,16.758 0.508,0.019 1.527,0.051 1.527,0.051 l 167.368,-0.012 c 0,0 0.304,0 1.816,0.012 10.145,0.007 13.848,-10.051 13.801,-18.196 -0.02,-2.675 -0.477,-5.41 -1.215,-7.246 -0.965,-2.402 -2.031,-4.355 -3.777,-6.25 -0.621,-0.683 -2.868,-2.258 -3.856,-2.5 -2.32,-0.566 -5.172,-0.508 -5.152,-0.508 0.019,0 -124.492,-0.019 -124.492,0 0,0 -6.719,0.274 -11.375,0.723 -3.364,0.332 -5.911,0.684 -9.399,1.348 -8.57,1.699 -15.679,4.492 -23.101,6.777 -4.954,1.531 -10.164,2.676 -15.598,3.496 -9.988,1.531 -20.902,2.227 -30.996,1.465 -12.836,-0.957 -24.254,-3.469 -36.461,-7.344 2.062,3.223 10.644,7.942 16.539,11.426"
         inkscape:connector-curvature="0"
         id="path30"
         style="fill:#0088FF;fill-opacity:1;fill-rule:nonzero;stroke:none" /><path
         d="m 272.652,177.52 c -5.722,2.019 -11.304,4.621 -16.312,7.929 -6.528,4.317 -9.723,7.742 -18.152,11.641 -7.215,3.34 -12.977,6.621 -23.036,10.273 -4.855,1.758 -12.714,4.18 -19.464,5.332 -9.629,1.641 -18.918,2.356 -18.918,2.356 0,0 1.964,1.219 3.152,1.59 9.836,2.988 18.516,4.453 28.613,5.195 8.852,0.664 16.988,-0.195 25.863,-1.582 3.645,-0.574 8.375,-1.699 12.493,-2.871 13.359,-3.809 28.547,-9.832 42.019,-9.856 0.754,0 0.664,0.012 0.664,0.012 l 124.418,0 c 0,0 -0.933,0 0.383,0 3.77,0.012 10.813,-1.211 13.645,-6.211 3.273,-5.762 4.292,-12.617 1.542,-19.492 -0.835,-2.07 -2.218,-5.02 -4.21,-6.816 -1.747,-1.582 -4.586,-2.598 -6.227,-2.598 -0.473,-0.02 -1.281,0 -1.281,0 l -108.817,0 c 0,0 0.414,0 -0.589,0 -11.126,0 -25.133,1.348 -35.786,5.098"
         inkscape:connector-curvature="0"
         id="path32"
         style="fill:#0088FF;fill-opacity:1;fill-rule:nonzero;stroke:none" /><path
         d="m 322.219,138.926 c -3.078,3.164 -7.324,8.008 -11.172,12.597 -7.387,8.809 -10.692,16.739 -10.692,16.739 l 72.575,0 c 0,0 0.195,-8.379 -1.485,-18.067 -1.566,-9.004 -4.89,-18.496 -8.425,-25.371 -0.133,-7.051 2.839,-13.601 3.332,-20.566 -5.961,-3.66 -12.372,-7.2853 -17.719,-12.4221 -0.336,-0.3125 -0.891,-0.3125 -1.117,0.5352 -2.864,10.7339 -4.371,20.3049 -6.715,30.9099 -6.617,5.117 -12.821,9.668 -18.582,15.645"
         inkscape:connector-curvature="0"
         id="path34"
         style="fill:#0088FF;fill-opacity:1;fill-rule:nonzero;stroke:none" /><path
         d="m 397.008,144.883 c -2.051,3.789 -3.586,8.789 -5.946,11.765 -0.5,-2.656 0.126,-4.285 -0.238,-6.824 -0.332,-2.129 -2.074,-1.25 -2.429,-0.246 -1.016,2.883 -2.102,6.438 -3.028,9.387 -1.551,4.922 -2.047,9.277 -2.047,9.277 l 12.075,0.02 c 0,0 0.464,-0.117 0.679,-1.289 0.574,-3.047 0.434,-6.016 1.27,-9.539 1.07,-4.543 2.453,-8.684 4.117,-12.922 1.449,-3.723 3.324,-7.481 4.844,-11.184 0.203,-0.484 0.304,-1.414 -0.059,-1.902 -0.449,-0.567 -1.223,-0.496 -1.66,0 -3.457,3.926 -4.856,8.379 -7.578,13.457"
         inkscape:connector-curvature="0"
         id="path36"
         style="fill:#0088FF;fill-opacity:1;fill-rule:nonzero;stroke:none" /><path
         d="m 415.699,136.25 c -2.054,4.375 -4.941,9.297 -4.691,14.258 1.336,-1.746 1.883,-3.008 3.719,-3.985 0.843,-0.273 2.609,-0.019 2.164,1.446 -0.813,2.746 -2.071,5.058 -3.239,8.808 -1.734,5.547 -3.418,11.477 -3.418,11.477 l -12.324,0.008 c 0,0 0.684,-5 3.485,-12.676 2.46,-6.797 6.265,-14.57 10.425,-21.856 3.395,-5.996 6.477,-11.23 10.325,-15.605 1.316,-1.516 4.543,-0.184 3.148,1.777 -3.652,5.157 -7.063,10.879 -9.594,16.348"
         inkscape:connector-curvature="0"
         id="path38"
         style="fill:#0088FF;fill-opacity:1;fill-rule:nonzero;stroke:none" /><path
         d="m 495.719,552.773 c -2.676,-1.164 -5.039,-2.671 -6.371,-5.246 -0.973,-1.839 -1.629,-4.66 0.226,-6.242 3.254,-2.773 7.137,0.067 8.711,2.906 1.988,3.614 1.473,10.528 1.473,10.528 0,0 -2.317,-1.207 -4.039,-1.946"
         inkscape:connector-curvature="0"
         id="path40"
         style="fill:#0088FF;fill-opacity:1;fill-rule:nonzero;stroke:none" /><path
         d="m 498.547,535.523 c 1.172,2.207 3.726,4.586 6.535,6.297 3.176,1.942 6.461,3.821 8.746,5.188 2.285,1.371 2.727,2.34 2.727,2.34 0,0 -1.887,-0.653 -2.918,-1.262 -5.645,-3.363 -11.801,-7.191 -14.305,-8.289 -3.16,-1.383 -7.457,-1.649 -11.328,-2.141 -0.621,4.883 -1.891,6.91 -1.871,11.25 0.027,2.086 0.539,4.785 0.887,6.664 1.21,6.282 1.453,9.442 1.453,9.442 0,0 -0.961,-0.891 -1.309,-3.649 -0.394,-2.5 -0.676,-3.414 -1.246,-6.367 -0.652,-3.402 -1.332,-6.285 -3.367,-8.41 -2.934,-3.035 -5.653,-8.438 -3.387,-12.578 1.324,-2.414 3.527,-2.067 4.219,-2.692 0.687,-0.613 1.109,-2.105 3.195,-2.8 4.508,-1.5 9.613,2.543 11.969,7.007"
         inkscape:connector-curvature="0"
         id="path42"
         style="fill:#0088FF;fill-opacity:1;fill-rule:nonzero;stroke:none" /><path
         d="m 492.703,522.621 c 1.531,2.488 3.098,4.219 5.512,5.699 3.996,2.442 6.965,4.09 9.402,5.336 1.059,0.539 1.945,1.168 2.211,2.297 -1.094,-0.41 -5.219,-2.348 -9.32,-4.785 -2.934,-1.754 -7.981,-3.941 -11.371,-4.098 -1.344,-0.058 -2.34,0.27 -3.438,0.309 -2.277,0.094 -5.172,-0.453 -5.172,-0.453 0,0 -0.73,3.207 -1.703,5.523 -0.488,1.188 -1.273,2.41 -1.699,4.637 -0.285,1.484 -0.367,3.719 -0.254,5.047 0.332,4.019 1.422,7.926 1.231,11.992 -2.528,-5.246 -1.497,-11.707 -4.457,-15.77 -1.25,-1.71 -2.243,-3.05 -3.231,-5.207 -1.625,-3.531 -1.43,-7.187 0.774,-10.589 1.261,-1.938 4.066,-1.871 4.55,-2.243 0.731,-0.546 1.364,-2.578 4.102,-3.183 4.687,-1.055 10.215,1.125 12.863,5.488"
         inkscape:connector-curvature="0"
         id="path44"
         style="fill:#0088FF;fill-opacity:1;fill-rule:nonzero;stroke:none" /><path
         d="m 494.016,419.988 c 1.089,2.203 1.796,5.102 3.187,7.145 -3.148,-0.473 -3.656,-0.828 -8.211,-1.328 -0.988,-0.098 -3.047,-1.121 -3.719,-1.805 -1.8,-1.812 -3.375,-3.496 -2.675,-6.543 0.269,-1.187 1.32,-2.062 1.898,-2.246 3.785,-1.231 7.629,1.019 9.52,4.777"
         inkscape:connector-curvature="0"
         id="path46"
         style="fill:#0088FF;fill-opacity:1;fill-rule:nonzero;stroke:none" /><path
         d="m 497.855,413.98 c 4.297,1.004 9.27,3.114 11.266,2.458 -4.039,-2.153 -9.125,-2.926 -13.594,-4.208 -3.414,-0.98 -5.847,-3.554 -8.894,-5.898 -2.793,-2.129 -6.516,-2.992 -9.836,-1.426 -1.117,0.528 -2.207,2.336 -2.402,3.301 -0.172,0.773 -1.778,1.543 -2.598,2.219 -0.828,0.691 -1.231,2.418 -1.25,3.086 -0.141,5.953 4.391,8.351 8.754,11.847 3.289,2.633 7.551,13.813 10.156,16.121 -0.465,-3.597 -5.145,-10.394 -7.187,-15.679 -1.622,-4.215 -1.086,-7.586 -2.133,-12.024 3.125,-0.199 6.601,-0.847 9.742,-0.894 2.465,-0.035 5.441,0.5 7.976,1.097"
         inkscape:connector-curvature="0"
         id="path48"
         style="fill:#0088FF;fill-opacity:1;fill-rule:nonzero;stroke:none" /><path
         d="m 493.324,404.805 c -2.418,-0.45 -5.371,-1.207 -7.386,-1.637 -7.012,-1.484 -10.364,1.953 -15.961,1.887 0.492,6.41 -1.735,9.285 0.097,13.425 1.637,3.688 3.149,7.594 4.555,10.719 1.137,2.504 1.484,4.625 1.484,4.625 0,0 -1.699,-2.547 -6.535,-11.965 -1.68,-3.281 -4.691,-3.988 -7.359,-7.089 -3.078,-3.547 -4.84,-11.047 0.847,-14.2 1.129,-0.621 0.965,-2.566 1.789,-3.359 3.797,-3.574 11.473,-3.219 16.274,1.144 3.816,3.477 8.461,4.047 12.418,5.067 2.312,0.601 4.34,1.582 4.34,1.582 0,0 -1.102,0.449 -4.563,-0.199"
         inkscape:connector-curvature="0"
         id="path50"
         style="fill:#0088FF;fill-opacity:1;fill-rule:nonzero;stroke:none" /><path
         d="m 352.812,330.383 c -0.277,0 -0.578,0 0,0 l 0,0 z m -32.753,92.367 c -2.34,-3.094 -3.422,-6.645 -6,-9.348 -1.348,-1.41 -3.407,-0.746 -4.473,0.879 -1.188,1.84 -3.102,4.446 -1.676,6.262 2.344,3.004 7.246,4.922 11.414,4.383 0.25,-0.028 1.594,-1.024 0.735,-2.176 z m -11.227,-17.684 c -1.309,-3.496 -5.211,-3.875 -8.527,-4.57 -0.621,-0.129 -2.532,0 -3.391,0.848 -1.43,1.398 -2.676,3.32 -2.426,5.718 0.137,1.485 1.371,2.934 2.899,3.52 2.773,1.074 6.058,2.801 8.789,1.27 2.355,-1.317 3.586,-4.313 2.656,-6.786 z m -7.187,-18.5 c -0.954,-1.375 -3.407,3.204 -3.723,5.305 -0.918,6.078 4.414,7.633 8.851,7.441 0.137,-3.624 -2.671,-9.238 -5.128,-12.746 z m -4.793,-16.406 c -0.872,-2.445 -1.29,-4.691 -2.262,-6.933 -0.942,-2.168 -4.973,-2.934 -7.203,-2.247 -3.188,0.989 -5.922,8.153 -2.297,10.895 2.769,2.074 5.64,2.406 9.18,2.836 0.632,0.074 3.003,-0.066 3.097,-0.285 0.594,-1.485 0.215,-2.235 -0.515,-4.266 z m -5.368,-18.906 c -0.644,-1.875 -0.933,-3.809 -1.761,-5.613 -0.414,-0.918 -0.961,0.281 -0.989,0.343 -1.25,3.118 -2.039,5.754 -0.968,8.504 0.597,1.512 2.679,2.91 4.652,3.032 -0.121,-1.954 -0.262,-4.36 -0.934,-6.266 z m -6.339,-9.223 c -1.438,0.66 -1.418,2.508 -2.02,3.66 -0.57,1.125 -1.797,2.672 -1.293,4.149 2.781,-1.559 4.07,-4.344 3.313,-7.809 z m -4.797,11.516 c -3.317,2.726 -3.606,7.09 -5.813,10.422 2.438,1.562 6.555,1.25 7.82,-1.836 1.008,-2.488 1.743,-6.133 -0.773,-8.028 -0.273,-0.199 -0.918,-0.82 -1.234,-0.558 z m -12.364,22.5 c -0.5,0.707 -1.484,2.758 -0.734,3.015 5.938,2.043 10.391,2.11 11.66,-4.238 0.899,-4.531 -2.195,-8.426 -6.539,-6.84 -1.242,0.457 -2.473,5.289 -4.387,8.063 z m -8.636,14.336 c -0.418,0.523 -0.754,2.101 -0.239,2.508 3.086,2.484 7.625,2.668 11.129,2.328 4.629,-0.422 5.582,-4.727 4.813,-8.289 -1.024,-4.7 -8.141,-5.282 -10.156,-4.496 -1.985,0.757 -3.368,5.246 -5.547,7.949 z m 1.007,16.695 c 4,2.59 11.649,4.516 12.922,-2.508 0.383,-2.113 -0.14,-4.925 -3,-5.843 -2.937,-0.946 -6.394,-1.957 -9.082,-0.875 -3.297,1.351 -3.945,7.222 -0.84,9.226 z m -4.148,11.813 c 0.301,1.347 1.797,1.984 3.051,2.304 3.238,0.797 6.859,2.012 9.828,0.114 1.164,-0.735 1.25,-1.77 1.402,-3.223 0.266,-2.363 -0.074,-4.293 -1.625,-5.195 -3.16,-1.852 -6.367,-2.016 -10.031,-1.297 -2.973,0.59 -3.219,4.527 -2.625,7.297 z m -3.316,-18.207 c -2.774,2.05 -4,4.945 -6.039,7.816 -0.497,0.703 0,0.996 0.375,1.105 4.921,1.391 8.57,-1.058 7.808,-6.429 -0.14,-1.043 -0.816,-3.469 -2.144,-2.492 z m -13.579,16.574 c -1.847,1.59 -0.562,4.363 1.043,5.168 2.813,1.402 7.235,1.613 10.165,0.621 1.878,-0.629 2.832,-3.336 2.492,-6.285 -0.141,-1.203 -0.512,-2.539 -1.102,-2.93 -2.226,-1.516 -5.676,-1.574 -8.387,-1.016 -1.918,0.407 -2.601,3.028 -4.211,4.442 z m -2.124,16.758 c 1.781,3.875 8.285,3.91 11.828,2.179 2.882,-1.414 3.246,-6.785 0.093,-8.906 -2.511,-1.676 -6.472,-1.059 -9.136,-0.57 -3.785,0.699 -4.09,4.426 -2.785,7.297 z m 0.14,14.519 c 2.707,2.57 6.207,1.387 9.457,0.938 0.633,-0.086 1.383,-0.532 1.809,-0.957 2.222,-2.243 2.398,-5.926 -0.078,-7.77 -2.852,-2.117 -6.414,-0.734 -9.844,-0.566 -0.93,0.047 -1.949,1.125 -2.156,1.828 -0.621,2.172 -0.993,4.824 0.812,6.527 z m 1.742,12.145 c 2.868,1.199 7.801,1.746 9.832,-1.469 1.243,-1.977 0.883,-5.633 -1.121,-6.16 -1.957,-0.5 -8.621,-1.613 -10.215,2.07 -0.793,1.817 -0.457,4.734 1.504,5.559 z m 8.828,10.32 c 0.832,-0.371 1.348,-1.035 1.543,-2.051 0.414,-2.211 -0.168,-4.609 -2.293,-5 -3.187,-0.582 -7.918,-0.761 -7.902,3.742 0.012,5.028 4.965,4.969 8.652,3.309 z m -6.414,9.344 c 1.696,0.648 4.489,0.508 6.012,-0.289 0.766,-0.403 1.801,-1.66 1.367,-2.993 -0.543,-1.734 -2.16,-2.359 -3.992,-2.378 -1.762,-0.02 -3.781,0.121 -4.496,1.562 -0.672,1.363 -0.387,3.524 1.109,4.098 z m 1.985,7.543 c 1.547,0.558 3.84,0.519 4.969,-0.703 1.55,-1.696 0.328,-4.387 -2.602,-4.254 -1.031,0.043 -2.25,0.398 -2.875,0.754 -1.516,0.847 -1.012,3.656 0.508,4.203 z m 6.965,4.851 c 0.203,0.653 1.222,1.418 1.754,1.61 1.164,0.414 2.523,0.496 3.636,0.05 2.227,-0.914 1.918,-3.664 -0.457,-4.632 -1.058,-0.43 -2.695,-0.711 -3.496,-0.434 -1.496,0.508 -1.91,1.805 -1.437,3.406 z m 6.933,-10.765 c -2.426,-0.707 -5.808,-0.844 -6.531,1.64 -1.231,4.223 4.098,4.856 6.863,3.969 1.906,-0.605 2.578,-4.77 -0.332,-5.609 z m 1.61,13.949 c 0.769,2.613 3.734,4.027 6.418,3.234 2.308,-0.679 2.843,-3.828 1.285,-5.351 -0.707,-0.696 -1.875,-1.387 -3.133,-1.664 -2.746,-0.618 -5.445,0.89 -4.57,3.781 z m 12.074,-9.606 c -0.438,-1.703 -1.688,-2.882 -3.692,-3.324 -1.992,-0.437 -4.746,-0.554 -5.851,0.668 -1.055,1.168 -1.535,2.809 -0.656,4.067 1.761,2.503 4.988,3.382 7.863,2.742 1.64,-0.379 2.847,-2.063 2.336,-4.153 z m -1.071,10.047 c 1.071,2.371 3.793,3.571 6.407,2.77 0.523,-0.164 1.597,-1.008 1.75,-1.844 0.308,-1.648 -0.266,-3.156 -1.645,-4.023 -1.765,-1.121 -3.226,-1.75 -5.254,-0.922 -1.519,0.636 -1.89,2.617 -1.258,4.019 z m 11.25,-6.672 c 1.196,-2.019 -0.621,-4.05 -1.542,-4.597 -2.047,-1.203 -4.93,-1.942 -6.165,0.086 -1.211,1.992 -0.207,4.355 1.907,5.23 2.015,0.836 4.105,2.11 5.8,-0.719 z m 3.395,-7.718 c 1.336,-1.106 2.508,-3.426 0.906,-5.258 -1.504,-1.731 -3.375,-2.246 -5.73,-2.629 -1.602,-0.274 -3.645,0.91 -3.903,2.32 -0.238,1.215 -0.46,3.434 0.743,4.453 2.347,1.996 5.5,3.161 7.984,1.114 z m 2.832,13.168 c 1.258,-0.371 2.07,-1.703 1.434,-2.993 -0.383,-0.789 -1.52,-1.652 -2.235,-2.093 -1.984,-1.223 -3.683,-0.719 -4.301,0.734 -1.144,2.68 2.696,5.063 5.102,4.352 z m 4.828,-6.668 c 1.391,-0.121 2.031,-1.094 2.305,-2.161 0.359,-1.425 -0.113,-2.738 -1.313,-3.546 -1.437,-0.957 -3.218,-1.516 -4.644,-1.539 -1.93,-0.036 -3.723,2.8 -2.672,4.636 1.109,1.973 3.898,2.821 6.324,2.61 z m 7.988,-10.215 c 0.821,-2.422 -0.957,-3.551 -2.828,-4.559 -1.902,-1.008 -4.457,-1.957 -5.781,-0.695 -1.684,1.59 -2.434,4.269 -0.555,6.035 2.614,2.449 7.438,4.289 9.164,-0.781 z m 3.45,-6.078 c 3.058,-0.395 3.664,-4.746 3.05,-6.325 -0.699,-1.351 -2.242,-2.41 -3.05,-2.824 -2.246,-1.16 -4.875,-1.593 -6.942,-0.527 -1.879,0.976 -2.695,3.828 -1.676,6.07 1.387,3.024 5.75,3.981 8.618,3.606 z m 6.297,-13.481 c 1.042,-1.465 0.816,-4.066 0.195,-4.883 -1.93,-2.64 -7.305,-4.144 -9.524,-3.058 -1.683,0.824 -3.347,4.539 -1.375,6.762 2.051,2.316 5.625,3.691 8.872,3.015 0.722,-0.16 1.199,-0.961 1.832,-1.836 z m 1.359,-8.304 c 1.473,-0.161 2.781,-1.778 3.492,-3.543 0.93,-2.286 -0.008,-4.95 -0.738,-5.45 -1.766,-1.199 -7.34,-4.55 -10.856,-2.539 -1.933,1.11 -2.465,3.637 -2.586,5.137 -0.386,4.828 6.946,6.812 10.688,6.395 z M 290.77,415.824 c -0.75,1.918 -1.446,4.75 0.058,5.918 3.043,2.399 9.926,4.496 12.539,0.871 1.699,-2.359 1.203,-6.351 -1.773,-7.883 -3.078,-1.566 -9.09,-3.378 -10.824,1.094 z m -14.758,-0.215 c 3.054,1.555 7.457,3.43 10.742,1.309 1.504,-0.961 3.055,-4.965 1.996,-6.738 -2.258,-3.77 -8.188,-4.727 -11.957,-3.754 -3.207,0.832 -4.18,7.465 -0.781,9.183 z m -2.746,13.028 c 3.687,2.593 10.964,4.269 12.714,-1.395 0.458,-1.469 0.715,-3.094 -0.039,-4.277 -2.039,-3.285 -7.214,-4.153 -10.683,-3.656 -3.742,0.539 -5.512,6.851 -1.992,9.328 z m -3.102,13.195 c 3.543,2.008 11.086,4.672 12.863,-1.074 0.707,-2.352 0.641,-5.254 -1.379,-6.289 -2.882,-1.516 -7.449,-3.102 -10.769,-1.028 -2.777,1.754 -3.152,6.993 -0.715,8.391 z m 19.816,23.719 c -1.484,-1.321 -2.988,-1.606 -4.96,-2.274 -2.762,-0.937 -5.657,1.192 -5.973,3.832 -0.531,4.524 4.316,5.2 7.523,5.766 2.34,0.422 3.785,-1.68 4.219,-3.09 0.441,-1.363 0.383,-3.187 -0.809,-4.234 z m 5.942,-10.649 c -2.106,-3.132 -10.586,-5.105 -12.453,-1.879 -1.367,2.36 -2.219,5.672 0.347,7.258 2.7,1.657 5.895,2.649 9.036,2.086 2.949,-0.527 4.453,-5.379 3.07,-7.465 z m 4.523,-19.414 c 1.211,-1.922 2.051,-4.504 0.258,-6.89 -1.625,-2.176 -7.426,-3.203 -10.394,-2.477 -1.633,0.406 -2.403,2.391 -2.653,3.723 -0.344,1.804 -0.508,3.625 1.094,5.101 2.301,2.106 5.367,2.059 8.316,2.063 1.211,0 2.922,-0.785 3.379,-1.52 z m -1.683,6.52 c -1.809,-3.32 -7.934,-3.75 -10.688,-3.387 -1.937,0.262 -3.304,3.391 -3.246,6.004 0.02,1.348 0.442,2.238 1.363,2.734 3.055,1.641 6.188,2.739 9.473,2.207 3.207,-0.511 4.457,-5.05 3.098,-7.558 z m -32.223,7.14 c -2.082,6.411 5.918,8.426 10.59,7.446 3.246,-0.68 4.336,-6.926 1.309,-8.899 -3.743,-2.429 -10.387,-3.218 -11.899,1.453 z M 254.473,433.43 c 2.398,2.468 6.722,2.621 10.101,2.168 2.074,-0.286 2.969,-2.379 3.258,-4.66 0.813,-6.258 -7.594,-7.309 -11.594,-5.848 -2.633,0.961 -4.004,6.023 -1.765,8.34 z m -1.692,12.121 c 2.508,2.945 6.696,3.648 10.168,2.691 2.117,-0.578 3.102,-3.051 3.051,-5.832 -0.039,-1.57 -1.117,-2.707 -2.09,-3.109 -2.465,-1.004 -5.316,-1.746 -8.012,-1.418 -3.32,0.406 -5.332,5.051 -3.117,7.668 z m 0.399,13.199 c 3.082,1.262 8.824,2.387 9.793,-2.012 1.304,-5.863 -5.614,-6.82 -9.313,-5.8 -2.824,0.781 -3.363,6.652 -0.48,7.812 z m 22.168,9.691 c 2.304,-1.308 2.789,-5 1.386,-7.136 -1.867,-2.836 -8.238,-4.473 -11.668,-1.996 -1.957,1.414 -3.004,7.238 1.004,8.632 3.2,1.118 6.266,2.207 9.278,0.5 z m -3.27,4.211 c -2.609,-1.621 -6.336,-2.261 -8.808,-0.89 -2.153,1.183 -2.063,4.324 -1,6.011 1.753,2.817 6.105,3.122 9.117,2.243 2.593,-0.754 3.562,-5.578 0.691,-7.364 z m -21.156,4.582 c 0.266,0.84 0.637,1.082 1.156,1.336 2.199,1.047 4.61,1.328 6.715,-0.019 1.516,-0.985 1.383,-3.254 0.262,-4.426 -1.649,-1.727 -4.993,-1.801 -7.137,-0.672 -1.383,0.723 -1.445,2.422 -0.996,3.781 z m 0.703,-9.168 c 0.973,2.774 4.434,2.618 7.059,2.282 3.226,-0.426 3.871,-4.559 2.722,-6.301 -1.582,-2.399 -5.199,-1.938 -8.078,-1.567 -2.336,0.297 -2.473,3.395 -1.703,5.586 z m 45.523,-83.492 c 0.79,-3.133 0,-6.117 -2.793,-7.113 -3.585,-1.266 -8.433,-3.113 -11.296,-1.188 -3.278,2.204 -4.86,8.434 -1.094,10.879 4.449,2.91 13.305,4.817 15.183,-2.578 z m -4.836,9.75 c -2.41,-2.738 -6.339,-2.648 -10.203,-3.777 -1.488,-0.434 -3.257,0.879 -4.035,2.242 -1.426,2.547 -2.855,5.961 -0.121,8.422 2.266,2.062 5.352,1.894 8.125,2.719 1.246,0.371 2.77,0.804 4.277,-0.215 3.129,-2.129 4.348,-6.703 1.957,-9.391 z m 25.559,41.024 c 0.68,-1.993 1.594,-3.453 0.82,-5.438 -0.921,-2.433 -3.285,-2.765 -5.503,-3.57 -2.071,-0.754 -5.524,-1.699 -7.254,0.109 -1.993,2.067 -2.793,6.27 -0.411,8.067 3.09,2.3 10.711,5.472 12.348,0.832 z m 41.949,17.914 c 1.821,7.429 4.086,14.972 4.653,22.824 0.832,11.726 -1.7,23.918 -9.223,32.805 0.742,-3.832 1.723,-7.067 2.234,-11.086 0.614,-4.86 -0.074,-10.266 -1.328,-15.153 -0.945,-3.707 -2.609,-7.3 -4.265,-10.738 -1.953,-4.07 -4.871,-8.5 -7.774,-12.133 -8.14,-10.125 -20.824,-29.879 -20.824,-29.879 0,0 -1.066,0.075 -1.695,0.075 -0.153,2.464 5.691,10.898 8.636,15.621 6.465,10.343 11.368,15.91 16.993,24.886 3.527,5.661 6.214,12.543 7.082,18.786 1.75,12.714 -5.106,27.949 -14.961,33.019 2.254,-9.5 2.019,-22.887 -3.039,-28.516 -9.571,-10.664 -15.258,-18.644 -22.09,-32.32 -0.192,-0.363 -1.793,1.848 -3.11,2.711 -1.484,0.977 -0.656,3.91 -1.187,5.879 -0.481,1.68 -1.27,2.977 -1.504,3.269 -2.023,2.473 -3.977,2.629 -4.398,3.372 -0.497,0.839 -0.258,2.929 -2.024,5.312 -0.879,1.192 -3.125,2.082 -4.035,3.207 -0.988,1.235 -1.438,4.992 -4.16,6.535 -1.297,0.727 -1.899,2.985 -3.137,4.086 -3.832,3.399 -7.656,2.746 -8.391,2.949 -0.984,0.27 -2.91,2.719 -6.332,3.305 -3.347,0.574 -5.187,-1.656 -6.925,-0.848 -4.364,2.016 -8.536,2.176 -13.172,-2.984 -1.391,-1.535 -3.793,-0.101 -6.789,-2.394 -2.641,-2.008 -2.688,-3.864 -4.032,-4.118 -2.519,-0.472 -4.398,-2.492 -5.371,-4.687 -0.504,-1.141 -0.882,-3.43 -1.175,-4.938 -0.415,-2.086 -1.469,-4.007 -1.489,-5.543 -0.023,-2.128 0.649,-3.285 0.457,-4.238 -0.304,-1.375 -1.425,-2.64 -1.562,-3.933 -0.102,-0.735 -0.16,-2.68 0.371,-3.778 0.672,-1.351 -0.473,-2.527 -1.063,-3.972 -0.566,-1.336 -1.164,-3.629 -0.98,-5.25 0.238,-2.227 1.512,-3.04 0.519,-4.786 -1.621,-2.843 -3.668,-7.285 -0.078,-12.957 0.66,-1.035 -1.504,-3.05 -1.625,-6.011 -0.136,-3.223 1.809,-5.594 2.34,-7.032 0.098,-0.504 -0.855,-0.476 -0.89,-1.031 -8.555,9.051 -16.118,17.391 -26.039,25.238 -6.059,4.793 -12.051,8.821 -18.77,12.418 -17.938,9.621 -38.785,16.055 -57.664,13.707 7.105,-5.726 16.082,-9.808 23.387,-16.312 6.918,-6.156 13.199,-11.434 19.504,-17.981 9.89,-10.273 17.925,-20.691 26.304,-32.781 2.489,-3.586 4.129,-5.98 6.446,-9.715 2.335,-3.734 4.929,-7.699 7.05,-11.406 10.727,-18.605 19.504,-35.84 28.395,-54.91 2.469,-5.274 4.539,-10.789 6.953,-16.035 0.648,-1.426 1.574,-0.371 2.227,0 3.218,1.855 6.632,3.41 9.972,4.98 2.66,1.231 5.086,2.071 7.465,2.989 6.016,2.285 11.719,3.535 18.02,4.843 10.511,2.199 29.402,1.746 29.402,1.746 l 35.816,0.012 c 0.231,0 0.469,0 0.973,0 -0.371,10.266 -2.809,20.242 -3.406,30.543 -0.453,8.34 -0.176,16.406 0.117,24.762 0.801,22.644 4.133,46.953 9.191,67.586"
         inkscape:connector-curvature="0"
         id="path52"
         style="fill:#0088FF;fill-opacity:1;fill-rule:nonzero;stroke:none" /><path
         d="m 115.668,538.219 c -6.984,-6.969 -9.07,-9.535 -13.148,-17.242 -2.399,-4.528 -5.4458,-10.336 -6.313,-17.832 14.359,5.464 26.074,16.621 36.66,28.941 7.832,9.129 13.906,21.254 21.629,30.277 -13.601,-4.558 -27.957,-13.324 -38.828,-24.144"
         inkscape:connector-curvature="0"
         id="path54"
         style="fill:#0088FF;fill-opacity:1;fill-rule:nonzero;stroke:none" /><path
         d="m 74.5586,518.629 c 5.418,9.144 13.1719,19.031 21.207,25.773 -3.7187,-8.363 -8.3047,-16.644 -9.8828,-26.543 -3.125,-19.683 -6.0742,-33.48 -9.3398,-51.453 8.9297,6.367 18.3515,16.375 27.816,23.364 7.321,5.378 14.657,8.968 22.18,14.14 4.473,3.086 7.387,7.051 11.106,10.762 -4.43,-18.688 -20.829,-37.547 -32.571,-46.344 -14.7498,-11.058 -20.0388,-12.824 -43.742,-36.926 -3.0078,29.758 -2.4765,60.692 13.2266,87.227"
         inkscape:connector-curvature="0"
         id="path56"
         style="fill:#0088FF;fill-opacity:1;fill-rule:nonzero;stroke:none" /><path
         d="m 26.207,419.785 c 1.1016,15.457 2.9571,27.813 6.711,42.895 2.6289,10.527 8.2968,26.199 16.4687,32.629 -1.0039,-3.821 -1.5312,-9.543 -1.9179,-13.411 -1.6016,-15.918 1.4453,-34.414 1.8124,-50.32 0.1836,-7.816 0.1133,-13.848 -1.0585,-21.203 -1.211,-7.695 -0.1993,-17.152 -0.1993,-17.152 0,0 4.2188,4.82 7.9922,10.824 8.2383,13.086 10.8789,16.976 17.5156,24.062 8.2383,8.793 17.4454,16.946 27.8478,24.157 -1.258,-4.887 -6.5626,-14.391 -8.7618,-18.207 -2.9297,-5.11 -4.2578,-9.75 -11.1875,-21.329 -9.75,-16.253 -14.0938,-18.457 -24.9219,-35.851 -2.3437,-3.774 -11.957,-18.156 -14.2851,-22.559 -5.0743,10.5 -6.9883,19.672 -13.2071,36.758 -3.914,10.734 -3.3281,21.477 -2.8086,28.707"
         inkscape:connector-curvature="0"
         id="path58"
         style="fill:#0088FF;fill-opacity:1;fill-rule:nonzero;stroke:none" /><path
         d="m 11.1523,339.379 c -5.88277,15.25 -8.57808,29.391 -10.570269,45.441 -1.21875,9.825 -0.6523435,22.91 2.855469,32.352 0.91797,-2.301 2.79297,-8.152 3.04688,-9.031 2.60937,-8.77 3.69922,-12.985 7.34372,-21.442 2.7891,-6.496 6.1953,-11.66 9.8438,-18.07 3.3164,-5.852 6.1133,-13.563 8.5156,-19.453 7.7187,-18.903 8.2891,-36.598 11.2461,-38.531 2.1211,4.55 2.7852,8.906 3.0273,11.054 2.293,20.914 5.0469,39.922 31.3868,64.574 2.4179,-7.335 1.1914,-20.867 -0.2579,-28.109 -3.1523,-15.844 -5.6953,-23.457 -12.6718,-38.809 -3.6875,-8.085 -8.6133,-19.98 -9.961,-23.925 -3.5351,-10.266 -4.75,-15.645 -6.9726,-21.719 -12.4375,20.723 -27.7422,42.117 -36.8321,65.668"
         inkscape:connector-curvature="0"
         id="path60"
         style="fill:#0088FF;fill-opacity:1;fill-rule:nonzero;stroke:none" /><path
         d="m 31.6523,244.062 c -8.8554,12.325 -12.082,18.516 -17.8437,31.629 -4.83985,11.008 -6.23048,15.09 -9.06251,27.414 -1.54687,6.719 -2.42187,12.813 -1.22265,16.79 6.92966,-12.551 11.66016,-26.594 20.73046,-37.004 7.1953,-8.262 14.1289,-15.293 19.8516,-22.266 8.7812,-10.703 15.6953,-20.84 24.1172,-31.992 0.7109,5.586 0.9882,11.25 -0.2696,20.398 -1.7148,12.551 -0.6601,22.844 1.5352,34.992 2.7773,15.411 4.8125,23.039 10.1601,38.633 6.543,-12.832 6.5118,-27.676 8.1602,-41.277 3.168,-26.406 -5.0938,-57.902 -6.7148,-71.027 -0.4336,-3.457 0.1601,-11.993 0.3359,-15.313 -12.3516,9.727 -23.3438,19.551 -34,30.234 -4.8516,4.844 -11.5117,12.872 -15.7774,18.789"
         inkscape:connector-curvature="0"
         id="path62"
         style="fill:#0088FF;fill-opacity:1;fill-rule:nonzero;stroke:none" /><path
         d="m 78.4805,147.227 c -5.625,4.05 -20.7383,15.605 -27.8907,24.699 -10.4257,13.23 -12.7187,18.902 -19.5937,34.129 -0.8399,1.855 -4.7305,10.468 -5.0469,16.328 22.5235,-27.195 42.6875,-31.25 64.1719,-53.817 7.8867,-8.273 15.9649,-16.046 20.2229,-19.953 3.269,-3.008 7.328,-3.925 7.328,-3.925 0,0 -0.422,5.8 -2.539,9.835 -14.336,27.403 -17.0432,56.043 -14.867,86.786 6.543,-8.106 8.605,-13.516 12.757,-21.348 4.516,-8.535 6.821,-13.809 8.93,-19.063 12.266,-30.527 15.457,-65.789 23.035,-83.535 -23.39,7.879 -41.812,12.09 -66.5075,29.864"
         inkscape:connector-curvature="0"
         id="path64"
         style="fill:#0088FF;fill-opacity:1;fill-rule:nonzero;stroke:none" /><path
         d="m 174.418,75.1953 c -6.328,-0.4297 -18.734,-0.3906 -25.348,0.6836 -33.484,5.3594 -64.613,29.6291 -80.2731,56.2891 14.1992,-8.66 24.4648,-14.441 36.9491,-18.77 11.117,-3.847 21.664,-4.98 40.227,-10.253 11.199,-3.1645 22.289,-7.6489 26.183,-9.102 12.418,-4.6289 17.649,-3.4844 17.649,-3.4844 0,0 0,1.8828 -4.641,6.9414 -9.242,10.09 -12.625,12.5 -20.23,20.254 -2.496,2.558 -8.219,11.262 -11.125,17.051 -8.219,16.355 -9.129,29.472 -16.637,47.441 27.39,-16.086 40.726,-38.281 55.207,-66.25 4.453,-8.574 10.473,-18.4687 15.976,-23.9062 3.696,-3.6523 8.911,-9.1992 8.911,-9.1992 0,0 -3.821,-0.8984 -15.707,-2.6562 -5.336,-0.7813 -16.704,-4.3164 -27.141,-5.0391"
         inkscape:connector-curvature="0"
         id="path66"
         style="fill:#0088FF;fill-opacity:1;fill-rule:nonzero;stroke:none" /><path
         d="m 307.168,73.0664 c 14.457,-2.3633 27.305,-5.8789 40.453,-10.3906 3.535,-1.211 8.91,-3.8867 12.637,-5.7735 9.32,-4.7461 14.683,-7.8203 22.691,-13.3281 12.903,-8.8867 26.758,-18.457 39.262,-32.9765 0.269,-0.293 2.293,-2.45317 0.941,-3.50786 -2.445,-1.91406 -8.484,-4.65625 -10.492,-2.8789 -11.445,10.17576 -10.863,13.43746 -24.73,25.98436 -3.555,3.2031 -8.922,7.6953 -15.336,12.0899 -6.262,4.2773 -13.824,8.9531 -20.852,12.4218 -6.387,3.1446 -16.222,4.0821 -21.746,4.0821 l 0.07,-0.0391 c -2.504,0.0977 -16.925,0.1758 -20.265,-0.0391 -28.336,-1.9414 -26.949,-4.4804 -43.293,-8.9062 -13.438,-3.6524 -27.856,-6.2578 -42.168,-8.1836 -14.66,-1.9922 -27.781,-2.2266 -41.528,-0.8203 -18.632,1.914 -39.011,7.1094 -54.226,16.914 13.91,-0.2343 28.191,-2.9101 42.027,-1.8476 5.825,0.4492 15.27,1.3203 21.668,3.293 12.707,3.9062 20.004,5.4296 33.461,9.1796 11.567,3.2227 23.227,4.336 35.309,5.6055 16.715,1.7891 32.195,1.3867 46.117,-0.8789"
         inkscape:connector-curvature="0"
         id="path68"
         style="fill:#0088FF;fill-opacity:1;fill-rule:nonzero;stroke:none" /><path
         d="m 566.301,538.219 c 6.992,-6.969 9.082,-9.535 13.156,-17.242 2.398,-4.528 5.445,-10.336 6.313,-17.832 -14.368,5.464 -26.075,16.621 -36.668,28.941 -7.832,9.129 -13.899,21.254 -21.622,30.277 13.606,-4.558 27.958,-13.324 38.821,-24.144"
         inkscape:connector-curvature="0"
         id="path70"
         style="fill:#0088FF;fill-opacity:1;fill-rule:nonzero;stroke:none" /><path
         d="m 607.418,518.629 c -5.422,9.144 -13.172,19.031 -21.207,25.773 3.762,-8.996 9.238,-20.207 9.883,-26.543 1.996,-19.828 6.074,-33.48 9.34,-51.453 -8.926,6.367 -18.36,16.375 -27.829,23.364 -7.296,5.378 -14.64,8.968 -22.156,14.14 -4.48,3.086 -7.398,7.051 -11.117,10.762 4.434,-18.688 20.828,-37.547 32.57,-46.344 14.754,-11.058 20.039,-12.824 43.735,-36.926 3.008,29.758 2.472,60.692 -13.219,87.227"
         inkscape:connector-curvature="0"
         id="path72"
         style="fill:#0088FF;fill-opacity:1;fill-rule:nonzero;stroke:none" /><path
         d="m 655.77,419.785 c -1.114,15.457 -2.95,27.813 -6.711,42.895 -2.629,10.527 -8.297,26.199 -16.477,32.629 1.012,-3.821 1.527,-9.543 1.926,-13.411 1.609,-15.918 -1.438,-34.414 -1.813,-50.32 -0.179,-7.816 -0.113,-13.848 1.051,-21.203 1.215,-7.695 0.207,-17.152 0.207,-17.152 0,0 -4.219,4.82 -8,10.824 -8.219,13.086 -10.859,16.976 -17.515,24.062 -8.227,8.793 -17.446,16.946 -27.848,24.157 1.265,-4.887 6.574,-14.391 8.769,-18.207 2.942,-5.11 4.25,-9.75 11.188,-21.329 9.746,-16.253 14.098,-18.457 24.914,-35.851 2.344,-3.774 11.973,-18.156 14.297,-22.559 5.078,10.5 6.984,19.672 13.207,36.758 3.922,10.734 3.336,21.477 2.805,28.707"
         inkscape:connector-curvature="0"
         id="path74"
         style="fill:#0088FF;fill-opacity:1;fill-rule:nonzero;stroke:none" /><path
         d="m 670.824,339.379 c 5.879,15.25 8.571,29.391 10.571,45.441 1.222,9.825 0.648,22.91 -2.848,32.352 -0.918,-2.301 -2.793,-8.152 -3.055,-9.031 -2.609,-8.77 -3.695,-12.985 -7.332,-21.442 -2.789,-6.496 -6.219,-11.66 -9.855,-18.07 -3.317,-5.852 -6.11,-13.563 -8.524,-19.453 -7.711,-18.903 -8.281,-36.598 -11.234,-38.531 -2.137,4.55 -2.793,8.906 -3.027,11.054 -2.297,20.914 -5.051,39.922 -31.387,64.574 -2.43,-7.335 -1.195,-20.867 0.246,-28.109 3.16,-15.844 5.715,-23.457 12.683,-38.809 3.684,-8.085 8.614,-19.98 9.969,-23.925 3.516,-10.266 4.731,-15.645 6.973,-21.719 12.426,20.723 27.73,42.117 36.82,65.668"
         inkscape:connector-curvature="0"
         id="path76"
         style="fill:#0088FF;fill-opacity:1;fill-rule:nonzero;stroke:none" /><path
         d="m 650.328,244.062 c 8.86,12.325 12.078,18.516 17.84,31.629 4.84,11.008 6.223,15.09 9.066,27.414 1.551,6.719 2.418,12.813 1.211,16.79 -6.914,-12.551 -11.664,-26.594 -20.73,-37.004 -7.188,-8.262 -14.121,-15.293 -19.844,-22.266 -8.769,-10.703 -15.703,-20.84 -24.117,-31.992 -0.703,5.586 -0.988,11.25 0.262,20.398 1.722,12.551 0.668,22.844 -1.528,34.992 -2.777,15.411 -4.812,23.039 -10.16,38.633 -6.531,-12.832 -6.512,-27.676 -8.156,-41.277 -3.18,-26.406 5.101,-57.902 6.723,-71.027 0.421,-3.457 -0.172,-11.993 -0.348,-15.313 12.351,9.727 23.344,19.551 34,30.234 4.851,4.844 11.504,12.872 15.781,18.789"
         inkscape:connector-curvature="0"
         id="path78"
         style="fill:#0088FF;fill-opacity:1;fill-rule:nonzero;stroke:none" /><path
         d="m 603.5,147.227 c 5.621,4.05 20.734,15.605 27.887,24.699 10.425,13.23 12.718,18.902 19.593,34.129 0.832,1.855 4.735,10.468 5.051,16.328 -22.523,-27.195 -42.691,-31.25 -64.176,-53.817 -7.878,-8.273 -15.953,-16.046 -20.214,-19.953 -3.274,-3.008 -7.332,-3.925 -7.332,-3.925 0,0 0.418,5.8 2.531,9.835 14.344,27.403 17.047,56.043 14.863,86.786 -6.523,-8.106 -8.598,-13.516 -12.75,-21.348 -4.504,-8.535 -6.82,-13.809 -8.918,-19.063 -12.277,-30.527 -15.48,-65.789 -23.058,-83.535 23.414,7.879 41.828,12.09 66.523,29.864"
         inkscape:connector-curvature="0"
         id="path80"
         style="fill:#0088FF;fill-opacity:1;fill-rule:nonzero;stroke:none" /><path
         d="m 507.559,75.1953 c 6.336,-0.4297 18.734,-0.3906 25.355,0.6836 33.488,5.3594 64.606,29.6291 80.266,56.2891 -14.211,-8.66 -24.473,-14.441 -36.95,-18.77 -11.128,-3.847 -21.664,-4.98 -40.214,-10.253 -11.211,-3.1645 -22.301,-7.6489 -26.196,-9.102 -12.418,-4.6289 -17.648,-3.4844 -17.648,-3.4844 0,0 0,1.8828 4.637,6.9414 9.246,10.09 12.64,12.5 20.226,20.254 2.508,2.558 8.231,11.262 11.133,17.051 8.219,16.355 9.133,29.472 16.644,47.441 -27.386,-16.086 -40.753,-38.281 -55.222,-66.25 -4.445,-8.574 -10.465,-18.4687 -15.957,-23.9062 -3.695,-3.6523 -8.922,-9.1992 -8.922,-9.1992 0,0 3.82,-0.8984 15.719,-2.6562 5.328,-0.7813 16.683,-4.3164 27.129,-5.0391"
         inkscape:connector-curvature="0"
         id="path82"
         style="fill:#0088FF;fill-opacity:1;fill-rule:nonzero;stroke:none" /><path
         d="m 374.809,73.0664 c -14.457,-2.3633 -27.293,-5.8789 -40.454,-10.3906 -3.543,-1.211 -8.91,-3.8867 -12.636,-5.7735 -9.321,-4.7461 -14.672,-7.8203 -22.692,-13.3281 -12.91,-8.8867 -26.746,-18.457 -39.261,-32.9765 -0.27,-0.293 -2.301,-2.45317 -0.942,-3.50786 2.453,-1.91406 8.496,-4.65625 10.485,-2.8789 11.445,10.17576 10.863,13.43746 24.738,25.98436 3.547,3.2031 8.914,7.6953 15.34,12.0899 6.265,4.2773 13.812,8.9531 20.847,12.4218 6.375,3.1446 16.235,4.0821 21.746,4.0821 L 351.898,58.75 c 2.516,0.0977 16.93,0.1758 20.282,-0.0391 28.343,-1.9414 26.945,-4.4804 43.281,-8.9062 13.445,-3.6524 27.863,-6.2578 42.176,-8.1836 14.652,-1.9922 27.785,-2.2266 41.527,-0.8203 18.633,1.914 39.012,7.1094 54.215,16.914 -13.899,-0.2343 -28.176,-2.9101 -42.027,-1.8476 -5.825,0.4492 -15.258,1.3203 -21.657,3.293 -12.707,3.9062 -20.007,5.4296 -33.461,9.1796 -11.566,3.2227 -23.226,4.336 -35.296,5.6055 -16.723,1.7891 -32.208,1.3867 -46.129,-0.8789"
         inkscape:connector-curvature="0"
         id="path84"
         style="fill:#0088FF;fill-opacity:1;fill-rule:nonzero;stroke:none" /><path
         d="m 209.043,691.504 19.105,0 16.907,-72.543 0.257,0 15.469,72.543 24.703,0 15.985,-72.543 0.265,0 17.028,72.543 17.679,0 -23.66,-90.742 -23.402,0 -16.375,72.539 -0.262,0 -16.121,-72.539 -23.531,0 -24.047,90.742"
         inkscape:connector-curvature="0"
         id="path86"
         style="fill:#0088FF;fill-opacity:1;fill-rule:nonzero;stroke:none" /><path
         d="m 348.27,691.504 50.441,0 0,-14.301 -32.242,0 0,-22.359 30.683,0 0,-14.301 -30.683,0 0,-39.781 -18.199,0 0,90.742"
         inkscape:connector-curvature="0"
         id="path88"
         style="fill:#0088FF;fill-opacity:1;fill-rule:nonzero;stroke:none" /><path
         d="m 429.91,649.512 6.375,0 c 9.098,0 17.285,2.988 17.285,13.519 0,10.528 -7.929,14.172 -17.285,14.172 l -6.375,0 0,-27.691 z m -18.195,41.992 23.008,0 c 19.757,0 37.832,-5.723 37.832,-27.43 0,-21.191 -15.477,-28.863 -34.973,-28.863 l -7.672,0 0,-34.449 -18.195,0 0,90.742"
         inkscape:connector-curvature="0"
         id="path90"
         style="fill:#0088FF;fill-opacity:1;fill-rule:nonzero;stroke:none" /></g></g></svg>