<!-- Generated by IcoMoon.io -->
<svg version="1.1" xmlns="http://www.w3.org/2000/svg" width="628" height="605" viewBox="0 0 628 605">
<title></title>
<g id="icomoon-ignore">
</g>
<path fill="#BDBDBD" d="M218.446 64.557c2.919-2.189 5.108-4.379 7.906-5.838 73.829-51.449 175.268-33.327 226.596 39.773 2.919 4.379 7.298 6.568 12.285 6.568 2.919 0 5.838-0.73 8.636-2.919 6.568-4.379 7.906-13.744 3.649-20.312-60.815-86.844-180.985-107.885-267.95-47.071-5.108 3.649-10.095 7.906-15.204 11.555l-23.718-18.001-11.555 87.573 81.857-34.056-22.501-17.271zM406.607 539.521c-2.919 2.189-5.108 4.379-7.906 5.838-73.829 51.449-175.268 33.327-226.596-39.773-4.379-6.568-13.744-7.906-20.312-3.649-6.568 4.379-7.906 13.744-3.649 20.312 37.705 53.639 97.060 81.857 157.875 81.857 38.313 0 76.748-11.555 110.075-34.786 5.108-3.649 10.095-7.906 15.204-11.555l23.839 18.123 11.555-87.573-81.857 34.056 21.772 17.15zM120.899 301.127h-25.421c-52.787 0-95.479 42.814-95.479 95.479v38.192h216.501v-38.192c-0.122-52.787-42.814-95.479-95.601-95.479zM108.128 154.685c35.151 0 63.734 28.461 63.734 63.734s-28.461 63.734-63.734 63.734-63.612-28.705-63.612-63.856 28.461-63.612 63.612-63.612zM532.007 301.127h-25.421c-52.787 0-95.479 42.814-95.479 95.479v38.192h216.501v-38.192c-0.122-52.787-42.814-95.479-95.601-95.479zM519.236 154.685c35.151 0 63.734 28.461 63.734 63.734s-28.461 63.734-63.734 63.734c-35.151 0-63.734-28.461-63.734-63.734s28.583-63.734 63.734-63.734z"></path>
</svg>
