<?xml version="1.0" encoding="utf-8"?>
<!-- Generator: Adobe Illustrator 18.0.0, SVG Export Plug-In . SVG Version: 6.00 Build 0)  -->
<!DOCTYPE svg PUBLIC "-//W3C//DTD SVG 1.0//EN" "http://www.w3.org/TR/2001/REC-SVG-20010904/DTD/svg10.dtd">
<svg version="1.0" id="Layer_1" xmlns="http://www.w3.org/2000/svg" xmlns:xlink="http://www.w3.org/1999/xlink" x="0px" y="0px"
	 viewBox="3019.4775391 76.5560303 427.1643066 478.0087891"
	 enable-background="new 3019.4775391 76.5560303 427.1643066 478.0087891" xml:space="preserve">
<g>
	<g>
		<path fill="#BDBDBD" d="M3306.168457,244.6631012c0-5.1758575-4.1989746-9.3785858-9.3786621-9.3785858h-202.8779297
			c-5.1760254,0-9.3786621,4.202713-9.3786621,9.3785858c0,5.1797333,4.1987305,9.3785858,9.3786621,9.3785858h202.8779297
			C3301.9655762,254.041687,3306.168457,249.8428345,3306.168457,244.6631012z"/>
	</g>
	<g>
		<path fill="#BDBDBD" d="M3283.5961914,285.3062134h-189.6843262c-5.1760254,0-9.3786621,4.2027283-9.3786621,9.3786011
			c0,5.179718,4.1987305,9.3785706,9.3786621,9.3785706h170.9233398L3283.5961914,285.3062134z"/>
	</g>
	<g>
		<path fill="#BDBDBD" d="M3231.1357422,347.4786377c1.2678223-4.2492371,3.0822754-8.3201599,5.2922363-12.1584473h-142.512207
			c-5.1760254,0-9.3786621,4.1988525-9.3786621,9.3786011c0,5.1758423,4.1987305,9.3785706,9.3786621,9.3785706h135.2543945
			L3231.1357422,347.4786377z"/>
	</g>
	<g>
		<path fill="#BDBDBD" d="M3221.2958984,404.0990906h-127.3840332c-5.1760254,0-9.3786621-4.2027283-9.3786621-9.3785706
			c0-5.1797485,4.1987305-9.3786011,9.3786621-9.3786011l0,0h126.0424805
			C3218.2368164,391.6847839,3218.8688965,398.2021179,3221.2958984,404.0990906z"/>
	</g>
	<g>
		<g>
			<path fill="#BDBDBD" d="M3360.5732422,370.0026245v148.9468384v0.0896606v-0.0896606
				c0,0.6275024-0.269043,1.1653442-0.6274414,1.5239258c-0.3586426,0.3585815-0.8964844,0.6275024-1.5239258,0.6275024h-322.449707
				c-0.6276855,0-1.1655273-0.2689209-1.5239258-0.6275024c-0.3586426-0.3585815-0.6276855-0.8964233-0.6276855-1.5239258
				V92.9608765c0-0.6275024,0.269043-1.1653442,0.6276855-1.5239258c0.3583984-0.3585815,0.8962402-0.6275024,1.5239258-0.6275024
				h233.1640625v84.8032837c0,3.9443359,3.2272949,7.1715088,7.1716309,7.1715088h84.2653809v28.2161865v4.9996948v2.3431396
				l14.3430176-14.3435059l0,0v-28.2974243c0-2.2410889-0.986084-4.1235962-2.5100098-5.4682617L3281.776123,79.06604
				c-1.3447266-1.5239258-3.3168945-2.5100098-5.4682617-2.5100098c-0.1794434,0-0.4482422,0-0.6276855,0H3035.972168
				c-4.5720215,0-8.6955566,1.8825073-11.6538086,4.8407593s-4.8408203,7.0819092-4.8408203,11.6537476v425.9885864
				c0,4.5718384,1.8825684,8.6954346,4.8408203,11.6536865s7.0817871,4.8408203,11.6538086,4.8408203h322.449707
				c4.5717773,0,8.6953125-1.8825684,11.6535645-4.8408203s4.8408203-7.0818481,4.8408203-11.6536865V361.0028076v-15.3434448
				l-14.3430176,14.3422852V370.0026245z"/>
		</g>
		<g>
			<path fill="#BDBDBD" d="M3438.9768066,212.3189392c-4.9121094-4.9161377-11.572998-7.6765747-18.5168457-7.6765747
				s-13.6044922,2.760437-18.5126953,7.6688232l-27.0310059,27.0316162l-14.3430176,14.3435059l-97.3779297,97.3806763
				c-3.7841797,3.7839966-6.5600586,8.4442139-8.095459,13.5735474l-11.057373,37.0646362
				c-0.4729004,1.5701904-0.0424805,3.2683105,1.1166992,4.4276123c0.8491211,0.8490601,1.9851074,1.3065186,3.1481934,1.3065186
				c0.4187012,0,0.8527832-0.0620117,1.2753906-0.1899414l37.060791-11.057373
				c5.1293945-1.5314331,9.7895508-4.3112793,13.5737305-8.0952759l60.355957-60.3526611l14.3430176-14.3422852
				l64.0566406-64.0531006c4.9084473-4.9122314,7.6689453-11.572998,7.6689453-18.5129395
				C3446.6418457,223.8919373,3443.8852539,217.2311707,3438.9768066,212.3189392z"/>
		</g>
	</g>
	<g>
		<path fill="#BDBDBD" d="M3424.324707,537.4428101v-82.5621948c0-4.7511292-1.8825684-8.9644165-5.0200195-12.1019592
			s-7.3508301-5.02005-12.1020508-5.02005h-225.185791c-4.7512207,0-8.9643555,1.8825073-12.1018066,5.02005
			c-3.1376953,3.1375427-5.0202637,7.3508301-5.0202637,12.1019592v82.5621948
			c0,4.7510986,1.8825684,8.9644165,5.0202637,12.1019287c3.1374512,3.1375122,7.3505859,5.0200806,12.1018066,5.0200806h225.185791
			c4.7512207,0,8.9645996-1.8825684,12.1020508-5.0200806S3424.324707,542.1939087,3424.324707,537.4428101z"/>
	</g>
	<g>
		<path fill="#FFFFFF" d="M3191.1533203,462.5644531h6.3076172l6.9902344,11.2470703l6.9912109-11.2470703H3217.75v26.5966797
			h-5.8134766v-17.3632812l-7.4853516,11.3603516h-0.1513672l-7.4091797-11.2470703v17.25h-5.7373047V462.5644531z"/>
		<path fill="#FFFFFF" d="M3224.1367188,462.5644531h20.0615234v5.2060547h-14.2480469v5.3945312h12.5380859v5.2050781h-12.5380859
			v5.5859375h14.4375v5.2050781h-20.2509766V462.5644531z"/>
		<path fill="#FFFFFF" d="M3255.7900391,467.9599609h-8.0927734v-5.3955078h22.0361328v5.3955078h-8.0927734v21.2011719h-5.8505859
			V467.9599609z"/>
		<path fill="#FFFFFF" d="M3279.9160156,462.375h5.3945312l11.3984375,26.7861328h-6.1171875l-2.4316406-5.9658203h-11.2460938
			l-2.4316406,5.9658203h-5.9648438L3279.9160156,462.375z M3286.0703125,478.0283203l-3.5332031-8.6240234l-3.5332031,8.6240234
			H3286.0703125z"/>
		<path fill="#FFFFFF" d="M3300.8164062,462.5644531h10.3730469c8.3583984,0,14.1337891,5.7373047,14.1337891,13.2226562v0.0761719
			c0,7.484375-5.7753906,13.2978516-14.1337891,13.2978516h-10.3730469V462.5644531z M3311.1894531,483.8798828
			c4.7871094,0,8.0166016-3.2294922,8.0166016-7.9414062v-0.0751953c0-4.7119141-3.2294922-8.0175781-8.0166016-8.0175781
			h-4.5214844v16.0341797H3311.1894531z"/>
		<path fill="#FFFFFF" d="M3337.75,462.375h5.3945312l11.3984375,26.7861328h-6.1171875l-2.4316406-5.9658203h-11.2460938
			l-2.4316406,5.9658203h-5.9648438L3337.75,462.375z M3343.9042969,478.0283203l-3.5332031-8.6240234l-3.5332031,8.6240234
			H3343.9042969z"/>
		<path fill="#FFFFFF" d="M3361.4199219,467.9599609h-8.0927734v-5.3955078h22.0361328v5.3955078h-8.0927734v21.2011719h-5.8505859
			V467.9599609z"/>
		<path fill="#FFFFFF" d="M3385.546875,462.375h5.3945312l11.3984375,26.7861328h-6.1171875l-2.4316406-5.9658203h-11.2460938
			l-2.4316406,5.9658203h-5.9648438L3385.546875,462.375z M3391.7011719,478.0283203l-3.5332031-8.6240234l-3.5332031,8.6240234
			H3391.7011719z"/>
		<path fill="#FFFFFF" d="M3243.5664062,521.5390625v-0.0761719c0-7.5605469,5.9648438-13.7539062,14.171875-13.7539062
			s14.0957031,6.1171875,14.0957031,13.6777344v0.0761719c0,7.5605469-5.9648438,13.7539062-14.171875,13.7539062
			S3243.5664062,529.0996094,3243.5664062,521.5390625z M3265.7167969,521.5390625v-0.0761719
			c0-4.5595703-3.3427734-8.3583984-8.0546875-8.3583984c-4.7109375,0-7.9785156,3.7236328-7.9785156,8.2822266v0.0761719
			c0,4.5595703,3.34375,8.3583984,8.0546875,8.3583984S3265.7167969,526.0986328,3265.7167969,521.5390625z"/>
		<path fill="#FFFFFF" d="M3277.0439453,508.1650391h5.3955078l12.4619141,16.375v-16.375h5.7753906v26.5957031h-4.9775391
			l-12.8798828-16.9072266v16.9072266h-5.7753906V508.1650391z"/>
		<path fill="#FFFFFF" d="M3307.0634766,508.1650391h5.8515625v21.2763672h13.2597656v5.3193359h-19.1113281V508.1650391z"/>
		<path fill="#FFFFFF" d="M3333.1347656,524.2744141l-10.2207031-16.109375h6.8388672l6.3447266,10.6767578l6.4589844-10.6767578
			h6.6494141l-10.2207031,15.9951172v10.6005859h-5.8505859V524.2744141z"/>
	</g>
</g>
</svg>
