<?xml version="1.0" encoding="UTF-8" standalone="no"?>
<!-- Created with Inkscape (http://www.inkscape.org/) -->

<svg
   xmlns:dc="http://purl.org/dc/elements/1.1/"
   xmlns:cc="http://creativecommons.org/ns#"
   xmlns:rdf="http://www.w3.org/1999/02/22-rdf-syntax-ns#"
   xmlns:svg="http://www.w3.org/2000/svg"
   xmlns="http://www.w3.org/2000/svg"
   xmlns:sodipodi="http://sodipodi.sourceforge.net/DTD/sodipodi-0.dtd"
   xmlns:inkscape="http://www.inkscape.org/namespaces/inkscape"
   width="126.15864"
   height="28.544222"
   id="svg2"
   version="1.1"
   inkscape:version="0.48.4 r9939"
   sodipodi:docname="New document 1">
  <defs
     id="defs4">
    <clipPath
       id="clipPath3023"
       clipPathUnits="userSpaceOnUse">
      <path
         id="path3025"
         d="m 0,31.381 111.28,0 L 111.28,0 0,0 0,31.381 z"
         inkscape:connector-curvature="0" />
    </clipPath>
    <clipPath
       id="clipPath3405"
       clipPathUnits="userSpaceOnUse">
      <path
         inkscape:connector-curvature="0"
         id="path3407"
         d="m 0,31.381 111.28,0 L 111.28,0 0,0 0,31.381 z" />
    </clipPath>
  </defs>
  <sodipodi:namedview
     id="base"
     pagecolor="#ffffff"
     bordercolor="#666666"
     borderopacity="1.0"
     inkscape:pageopacity="0"
     inkscape:pageshadow="2"
     inkscape:zoom="5.7194494"
     inkscape:cx="78.519329"
     inkscape:cy="19.383405"
     inkscape:document-units="px"
     inkscape:current-layer="layer1"
     showgrid="false"
     fit-margin-top="0"
     fit-margin-left="0"
     fit-margin-right="0"
     fit-margin-bottom="0"
     inkscape:window-width="1536"
     inkscape:window-height="803"
     inkscape:window-x="-8"
     inkscape:window-y="-8"
     inkscape:window-maximized="1" />
  <metadata
     id="metadata7">
    <rdf:RDF>
      <cc:Work
         rdf:about="">
        <dc:format>image/svg+xml</dc:format>
        <dc:type
           rdf:resource="http://purl.org/dc/dcmitype/StillImage" />
        <dc:title></dc:title>
      </cc:Work>
    </rdf:RDF>
  </metadata>
  <g
     inkscape:label="Layer 1"
     inkscape:groupmode="layer"
     id="layer1"
     transform="translate(-290.48611,-508.59873)">
    <path
       inkscape:connector-curvature="0"
       id="path3462"
       style="font-size:medium;font-variant:normal;font-weight:bold;font-stretch:normal;writing-mode:lr-tb;fill:#ffffff;fill-opacity:1;fill-rule:nonzero;stroke:none;font-family:Gotham;-inkscape-font-specification:Gotham-Bold"
       d="m 345.16397,533.14395 -5.45307,0 0,-9.31565 -8.05178,0 0,9.31565 -5.45307,0 0,-21.14482 5.45307,0 0,7.73938 8.05178,0 0,-7.73938 5.45307,0 0,21.14482 z" />
    <path
       inkscape:connector-curvature="0"
       id="path3464"
       style="font-size:medium;font-variant:normal;font-weight:bold;font-stretch:normal;writing-mode:lr-tb;fill:#ffffff;fill-opacity:1;fill-rule:nonzero;stroke:none;font-family:Gotham;-inkscape-font-specification:Gotham-Bold"
       d="m 368.2895,522.59284 q 0,2.95375 -1.34907,5.29686 -1.34906,2.32891 -3.40816,3.57857 -1.54788,0.93724 -3.39397,1.30646 -1.84608,0.36922 -4.37381,0.36922 l -7.45536,0 0,-21.14482 7.66837,0 q 2.58453,0 4.45902,0.44022 1.87449,0.42602 3.15255,1.22126 2.18691,1.33487 3.43657,3.60698 1.26386,2.25791 1.26386,5.32525 z m -5.63768,-0.0426 q 0,-2.0875 -0.76683,-3.56437 -0.75264,-1.49107 -2.39992,-2.32891 -0.83784,-0.41182 -1.71828,-0.55383 -0.86624,-0.1562 -2.62713,-0.1562 l -1.37746,0 0,13.23503 1.37746,0 q 1.9455,0 2.85434,-0.17041 0.90884,-0.18461 1.77509,-0.65323 1.49107,-0.85204 2.1869,-2.27211 0.69583,-1.43427 0.69583,-3.53597 z" />
    <path
       inkscape:connector-curvature="0"
       id="path3466"
       style="font-size:medium;font-variant:normal;font-weight:bold;font-stretch:normal;writing-mode:lr-tb;fill:#ffffff;fill-opacity:1;fill-rule:nonzero;stroke:none;font-family:Gotham;-inkscape-font-specification:Gotham-Bold"
       d="m 388.6234,533.14395 -6.30511,0 -4.55841,-6.95834 -4.64363,6.95834 -6.02109,0 7.49796,-10.65051 -7.34175,-10.49431 6.2909,0 4.40221,6.58912 4.53002,-6.58912 6.03529,0 -7.38435,10.2813 7.49796,10.86352 z" />
    <g
       id="g4318"
       transform="matrix(1.25,0,0,-1.25,284.19705,541.83045)">
      <path
         d="m 13.7241,17.418 8.21,-11.597"
         style="fill:none;stroke:#ffffff;stroke-width:0.28200001000000002;stroke-linecap:butt;stroke-linejoin:miter;stroke-miterlimit:10;stroke-opacity:1;stroke-dasharray:none"
         id="path3383"
         inkscape:connector-curvature="0" />
      <path
         d="m 13.7241,17.418 10.392,-3.106"
         style="fill:none;stroke:#ffffff;stroke-width:0.28200001000000002;stroke-linecap:butt;stroke-linejoin:miter;stroke-miterlimit:10;stroke-opacity:1;stroke-dasharray:none"
         id="path3387"
         inkscape:connector-curvature="0" />
      <path
         d="m 13.7241,17.418 10.701,5.549"
         style="fill:none;stroke:#ffffff;stroke-width:0.28200001000000002;stroke-linecap:butt;stroke-linejoin:miter;stroke-miterlimit:10;stroke-opacity:1;stroke-dasharray:none"
         id="path3391"
         inkscape:connector-curvature="0" />
      <path
         d="m 7.0786,9.2266 14.855,-3.405"
         style="fill:none;stroke:#ffffff;stroke-width:0.28200001000000002;stroke-linecap:butt;stroke-linejoin:miter;stroke-miterlimit:10;stroke-opacity:1;stroke-dasharray:none"
         id="path3395"
         inkscape:connector-curvature="0" />
      <path
         d="m 13.7241,17.418 -5.026,5.549"
         style="fill:none;stroke:#ffffff;stroke-width:0.28200001000000002;stroke-linecap:butt;stroke-linejoin:miter;stroke-miterlimit:10;stroke-opacity:1;stroke-dasharray:none"
         id="path3399"
         inkscape:connector-curvature="0" />
      <g
         id="g3401">
        <path
           inkscape:connector-curvature="0"
           id="path3411"
           style="fill:#3878bb;fill-opacity:1;fill-rule:nonzero;stroke:none"
           d="m 18.1226,17.418 c 0,-2.43 -1.969,-4.399 -4.398,-4.399 -2.43,0 -4.398,1.969 -4.398,4.399 0,2.429 1.968,4.397 4.398,4.397 2.429,0 4.398,-1.968 4.398,-4.397" />
        <path
           inkscape:connector-curvature="0"
           id="path3415"
           style="fill:none;stroke:#ffffff;stroke-width:0.28200001000000002;stroke-linecap:butt;stroke-linejoin:miter;stroke-miterlimit:10;stroke-opacity:1;stroke-dasharray:none"
           d="m 18.1226,17.418 c 0,-2.43 -1.969,-4.399 -4.398,-4.399 -2.43,0 -4.398,1.969 -4.398,4.399 0,2.429 1.968,4.397 4.398,4.397 2.429,0 4.398,-1.968 4.398,-4.397 z" />
        <path
           inkscape:connector-curvature="0"
           id="path3419"
           style="fill:#8a8b8b;fill-opacity:1;fill-rule:nonzero;stroke:none"
           d="m 23.854,5.8213 c 0,-1.06 -0.86,-1.919 -1.92,-1.919 -1.06,0 -1.92,0.859 -1.92,1.919 0,1.062 0.86,1.921 1.92,1.921 1.06,0 1.92,-0.859 1.92,-1.921" />
        <path
           inkscape:connector-curvature="0"
           id="path3423"
           style="fill:none;stroke:#ffffff;stroke-width:0.28200001000000002;stroke-linecap:butt;stroke-linejoin:miter;stroke-miterlimit:10;stroke-opacity:1;stroke-dasharray:none"
           d="m 23.854,5.8213 c 0,-1.06 -0.86,-1.919 -1.92,-1.919 -1.06,0 -1.92,0.859 -1.92,1.919 0,1.062 0.86,1.921 1.92,1.921 1.06,0 1.92,-0.859 1.92,-1.921 z" />
        <path
           inkscape:connector-curvature="0"
           id="path3427"
           style="fill:#8a8b8b;fill-opacity:1;fill-rule:nonzero;stroke:none"
           d="m 26.3452,14.3115 c 0,-1.061 -0.859,-1.921 -1.92,-1.921 -1.06,0 -1.92,0.86 -1.92,1.921 0,1.061 0.86,1.92 1.92,1.92 1.061,0 1.92,-0.859 1.92,-1.92" />
        <path
           inkscape:connector-curvature="0"
           id="path3431"
           style="fill:none;stroke:#ffffff;stroke-width:0.28200001000000002;stroke-linecap:butt;stroke-linejoin:miter;stroke-miterlimit:10;stroke-opacity:1;stroke-dasharray:none"
           d="m 26.3452,14.3115 c 0,-1.061 -0.859,-1.921 -1.92,-1.921 -1.06,0 -1.92,0.86 -1.92,1.921 0,1.061 0.86,1.92 1.92,1.92 1.061,0 1.92,-0.859 1.92,-1.92 z" />
        <path
           inkscape:connector-curvature="0"
           id="path3435"
           style="fill:#ec675f;fill-opacity:1;fill-rule:nonzero;stroke:none"
           d="m 27.5313,22.9668 c 0,-1.715 -1.39,-3.105 -3.106,-3.105 -1.716,0 -3.107,1.39 -3.107,3.105 0,1.716 1.391,3.106 3.107,3.106 1.716,0 3.106,-1.39 3.106,-3.106" />
        <path
           inkscape:connector-curvature="0"
           id="path3439"
           style="fill:none;stroke:#ffffff;stroke-width:0.28200001000000002;stroke-linecap:butt;stroke-linejoin:miter;stroke-miterlimit:10;stroke-opacity:1;stroke-dasharray:none"
           d="m 27.5313,22.9668 c 0,-1.715 -1.39,-3.105 -3.106,-3.105 -1.716,0 -3.107,1.39 -3.107,3.105 0,1.716 1.391,3.106 3.107,3.106 1.716,0 3.106,-1.39 3.106,-3.106 z" />
        <path
           inkscape:connector-curvature="0"
           id="path3443"
           style="fill:#8a8b8b;fill-opacity:1;fill-rule:nonzero;stroke:none"
           d="m 8.998,9.0342 c 0,-1.061 -0.859,-1.92 -1.919,-1.92 -1.062,0 -1.921,0.859 -1.921,1.92 0,1.06 0.859,1.92 1.921,1.92 1.06,0 1.919,-0.86 1.919,-1.92" />
        <path
           inkscape:connector-curvature="0"
           id="path3447"
           style="fill:none;stroke:#ffffff;stroke-width:0.28200001000000002;stroke-linecap:butt;stroke-linejoin:miter;stroke-miterlimit:10;stroke-opacity:1;stroke-dasharray:none"
           d="m 8.998,9.0342 c 0,-1.061 -0.859,-1.92 -1.919,-1.92 -1.062,0 -1.921,0.859 -1.921,1.92 0,1.06 0.859,1.92 1.921,1.92 1.06,0 1.919,-0.86 1.919,-1.92 z" />
        <path
           inkscape:connector-curvature="0"
           id="path3451"
           style="fill:#8a8b8b;fill-opacity:1;fill-rule:nonzero;stroke:none"
           d="m 9.8843,23.877 c 0,-1.061 -0.859,-1.921 -1.919,-1.921 -1.061,0 -1.921,0.86 -1.921,1.921 0,1.06 0.86,1.919 1.921,1.919 1.06,0 1.919,-0.859 1.919,-1.919" />
        <g
           id="g3453"
           transform="translate(9.8843,23.877)">
          <path
             d="m 0,0 c 0,-1.061 -0.859,-1.921 -1.919,-1.921 -1.061,0 -1.921,0.86 -1.921,1.921 0,1.06 0.86,1.919 1.921,1.919 C -0.859,1.919 0,1.06 0,0 z"
             style="fill:none;stroke:#ffffff;stroke-width:0.28200001000000002;stroke-linecap:butt;stroke-linejoin:miter;stroke-miterlimit:10;stroke-opacity:1;stroke-dasharray:none"
             id="path3455"
             inkscape:connector-curvature="0" />
        </g>
      </g>
    </g>
    <path
       inkscape:connector-curvature="0"
       id="path3472"
       style="font-size:medium;font-variant:normal;font-weight:500;font-stretch:normal;writing-mode:lr-tb;fill:#8a8b8b;fill-opacity:1;fill-rule:nonzero;stroke:none;font-family:Gotham;-inkscape-font-specification:Gotham-Medium"
       d="m 396.81507,514.82167 q 0,0.66997 -0.2535,1.18302 -0.25351,0.51304 -0.68205,0.84501 -0.50701,0.39837 -1.11663,0.56737 -0.60358,0.16901 -1.53913,0.16901 l -3.18692,0 0,-8.98735 2.6618,0 q 0.98384,0 1.47274,0.0724 0.4889,0.0724 0.93556,0.30179 0.49493,0.25955 0.71826,0.66998 0.22333,0.4044 0.22333,0.97177 0,0.6398 -0.32594,1.09248 -0.32594,0.44666 -0.86916,0.71827 l 0,0.0483 q 0.91141,0.18711 1.43653,0.80276 0.52511,0.60962 0.52511,1.54517 z m -2.00993,-4.05004 q 0,-0.32594 -0.10865,-0.54926 -0.10865,-0.22333 -0.35007,-0.36215 -0.28369,-0.16297 -0.68809,-0.19919 -0.4044,-0.0422 -1.00195,-0.0422 l -1.42445,0 0,2.59541 1.54517,0 q 0.56133,0 0.8933,-0.0543 0.33197,-0.0604 0.61566,-0.24144 0.28368,-0.18107 0.39836,-0.46476 0.12071,-0.28972 0.12071,-0.68205 z m 0.76655,4.09832 q 0,-0.54322 -0.16296,-0.86312 -0.16297,-0.3199 -0.59151,-0.54322 -0.28972,-0.1509 -0.7062,-0.19315 -0.41043,-0.0483 -1.00194,-0.0483 l -1.87714,0 0,3.34385 1.58138,0 q 0.78466,0 1.28563,-0.0785 0.50098,-0.0845 0.82087,-0.30179 0.33801,-0.2354 0.49494,-0.53719 0.15693,-0.30179 0.15693,-0.77863 z" />
    <path
       inkscape:connector-curvature="0"
       id="path3474"
       style="font-size:medium;font-variant:normal;font-weight:500;font-stretch:normal;writing-mode:lr-tb;fill:#8a8b8b;fill-opacity:1;fill-rule:nonzero;stroke:none;font-family:Gotham;-inkscape-font-specification:Gotham-Medium"
       d="m 404.51471,514.33276 -4.96748,0 q 0,0.62169 0.18711,1.08645 0.18711,0.45873 0.51304,0.75448 0.31387,0.28972 0.74241,0.43458 0.43458,0.14486 0.95366,0.14486 0.68809,0 1.38221,-0.27161 0.70015,-0.27765 0.99591,-0.54323 l 0.0604,0 0,1.23735 q -0.5734,0.24143 -1.17095,0.4044 -0.59755,0.16297 -1.25545,0.16297 -1.67796,0 -2.61955,-0.90538 -0.94159,-0.91141 -0.94159,-2.58333 0,-1.65382 0.89934,-2.62559 0.90537,-0.97176 2.37811,-0.97176 1.3641,0 2.10047,0.79672 0.74241,0.79673 0.74241,2.26344 l 0,0.61565 z m -1.10455,-0.86915 q -0.006,-0.89331 -0.45269,-1.38221 -0.44061,-0.4889 -1.34599,-0.4889 -0.91141,0 -1.45463,0.53719 -0.53719,0.53718 -0.60962,1.33392 l 3.86293,0 z" />
    <path
       inkscape:connector-curvature="0"
       id="path3476"
       style="font-size:medium;font-variant:normal;font-weight:500;font-stretch:normal;writing-mode:lr-tb;fill:#8a8b8b;fill-opacity:1;fill-rule:nonzero;stroke:none;font-family:Gotham;-inkscape-font-specification:Gotham-Medium"
       d="m 409.83826,517.52572 q -0.31989,0.0845 -0.70015,0.13882 -0.37422,0.0543 -0.66998,0.0543 -1.03212,0 -1.56931,-0.5553 -0.53719,-0.5553 -0.53719,-1.78057 l 0,-3.58528 -0.76655,0 0,-0.95366 0.76655,0 0,-1.9375 1.13474,0 0,1.9375 2.34189,0 0,0.95366 -2.34189,0 0,3.07223 q 0,0.53116 0.0241,0.83295 0.0241,0.29576 0.16901,0.55529 0.13278,0.24144 0.36215,0.35612 0.23539,0.10865 0.71222,0.10865 0.27765,0 0.57944,-0.0785 0.30179,-0.0845 0.43458,-0.13883 l 0.0604,0 0,1.02006 z" />
    <path
       inkscape:connector-curvature="0"
       id="path3478"
       style="font-size:medium;font-variant:normal;font-weight:500;font-stretch:normal;writing-mode:lr-tb;fill:#8a8b8b;fill-opacity:1;fill-rule:nonzero;stroke:none;font-family:Gotham;-inkscape-font-specification:Gotham-Medium"
       d="m 416.64475,517.58608 -1.1287,0 0,-0.71827 q -0.1509,0.10261 -0.41044,0.28972 -0.2535,0.18108 -0.49493,0.28972 -0.28369,0.13883 -0.65188,0.22936 -0.36818,0.0966 -0.86311,0.0966 -0.91141,0 -1.54518,-0.60359 -0.63376,-0.60358 -0.63376,-1.53913 0,-0.76655 0.32594,-1.23735 0.33196,-0.47683 0.94159,-0.74844 0.61565,-0.27161 1.47877,-0.36818 0.86313,-0.0966 1.853,-0.14486 l 0,-0.17504 q 0,-0.3863 -0.13883,-0.6398 -0.13278,-0.25351 -0.3863,-0.39837 -0.24142,-0.13882 -0.57943,-0.18711 -0.338,-0.0483 -0.70619,-0.0483 -0.44665,0 -0.99591,0.12071 -0.54926,0.11467 -1.13474,0.338 l -0.0604,0 0,-1.15284 q 0.33198,-0.0905 0.9597,-0.19918 0.62773,-0.10865 1.23734,-0.10865 0.71224,0 1.23735,0.12071 0.53115,0.11468 0.91745,0.39837 0.38025,0.27765 0.57944,0.71826 0.19919,0.44062 0.19919,1.09249 l 0,4.57515 z m -1.1287,-1.65986 0,-1.87714 q -0.51909,0.0302 -1.22528,0.0905 -0.70015,0.0604 -1.11058,0.17504 -0.48891,0.13882 -0.7907,0.43458 -0.30179,0.28972 -0.30179,0.80276 0,0.57944 0.35008,0.8752 0.35007,0.28972 1.06833,0.28972 0.59755,0 1.09249,-0.22936 0.49494,-0.2354 0.91745,-0.56134 z" />
  </g>
</svg>
