<?xml version="1.0" encoding="UTF-8" standalone="no"?>
<!-- Created with Inkscape (http://www.inkscape.org/) -->

<svg
   xmlns:dc="http://purl.org/dc/elements/1.1/"
   xmlns:cc="http://creativecommons.org/ns#"
   xmlns:rdf="http://www.w3.org/1999/02/22-rdf-syntax-ns#"
   xmlns:svg="http://www.w3.org/2000/svg"
   xmlns="http://www.w3.org/2000/svg"
   xmlns:sodipodi="http://sodipodi.sourceforge.net/DTD/sodipodi-0.dtd"
   xmlns:inkscape="http://www.inkscape.org/namespaces/inkscape"
   id="svg3367"
   version="1.1"
   inkscape:version="0.91 r13725"
   xml:space="preserve"
   width="139.10001"
   height="39.226124"
   viewBox="0 0 139.10001 39.226124"
   sodipodi:docname="beta_logo_dark-background.svg"><metadata
     id="metadata3373"><rdf:RDF><cc:Work
         rdf:about=""><dc:format>image/svg+xml</dc:format><dc:type
           rdf:resource="http://purl.org/dc/dcmitype/StillImage" /><dc:title></dc:title></cc:Work></rdf:RDF></metadata><defs
     id="defs3371"><clipPath
       clipPathUnits="userSpaceOnUse"
       id="clipPath3405"><path
         d="m 0,31.381 111.28,0 L 111.28,0 0,0 0,31.381 Z"
         id="path3407"
         inkscape:connector-curvature="0" /></clipPath></defs><sodipodi:namedview
     pagecolor="#ffffff"
     bordercolor="#666666"
     borderopacity="1"
     objecttolerance="10"
     gridtolerance="10"
     guidetolerance="10"
     inkscape:pageopacity="0"
     inkscape:pageshadow="2"
     inkscape:window-width="1280"
     inkscape:window-height="962"
     id="namedview3369"
     showgrid="false"
     inkscape:zoom="2.403308"
     inkscape:cx="69.947775"
     inkscape:cy="-70.214378"
     inkscape:window-x="-8"
     inkscape:window-y="-8"
     inkscape:window-maximized="1"
     inkscape:current-layer="g3375" /><g
     id="g3375"
     inkscape:groupmode="layer"
     inkscape:label="beta_logo"
     transform="matrix(1.25,0,0,-1.25,0,39.226125)"><path
       inkscape:connector-curvature="0"
       id="path3462"
       style="font-variant:normal;font-weight:bold;font-stretch:normal;font-size:medium;font-family:Gotham;-inkscape-font-specification:Gotham-Bold;writing-mode:lr-tb;fill:#ffffff;fill-opacity:1;fill-rule:nonzero;stroke:none"
       d="m 48.773534,6.9492 -4.36245,0 0,7.452519 -6.44143,0 0,-7.452519 -4.36245,0 0,16.915854 4.36245,0 0,-6.191498 6.44143,0 0,6.191498 4.36245,0 0,-16.915854 z" /><path
       inkscape:connector-curvature="0"
       id="path3464"
       style="font-variant:normal;font-weight:bold;font-stretch:normal;font-size:medium;font-family:Gotham;-inkscape-font-specification:Gotham-Bold;writing-mode:lr-tb;fill:#ffffff;fill-opacity:1;fill-rule:nonzero;stroke:none"
       d="m 67.273957,15.390086 q 0,-2.362994 -1.079251,-4.237484 Q 65.115454,9.2894726 63.468174,8.2897445 62.229875,7.5399484 60.753004,7.2445742 59.276133,6.9492 57.253955,6.9492 l -5.964287,0 0,16.915854 6.134696,0 q 2.067619,0 3.567211,-0.352177 1.499592,-0.340816 2.522042,-0.977007 1.749524,-1.067891 2.749252,-2.885579 1.011088,-1.806327 1.011088,-4.260205 z m -4.510137,0.03408 q 0,1.67 -0.613469,2.851497 -0.602109,1.192857 -1.919932,1.86313 -0.670273,0.329455 -1.374627,0.443061 -0.692993,0.124966 -2.101701,0.124966 l -1.101973,0 0,-10.588029 1.101973,0 q 1.556395,0 2.28347,0.136326 0.727075,0.147688 1.420069,0.522586 1.192857,0.681632 1.749524,1.817687 0.556666,1.147415 0.556666,2.828776 z" /><path
       inkscape:connector-curvature="0"
       id="path3466"
       style="font-variant:normal;font-weight:bold;font-stretch:normal;font-size:medium;font-family:Gotham;-inkscape-font-specification:Gotham-Bold;writing-mode:lr-tb;fill:#ffffff;fill-opacity:1;fill-rule:nonzero;stroke:none"
       d="m 83.541079,6.9492 -5.044083,0 -3.646735,5.566668 -3.714899,-5.566668 -4.816871,0 5.998368,8.52041 -5.873402,8.395444 5.032722,0 3.521769,-5.271294 3.624015,5.271294 4.828232,0 -5.907484,-8.225036 5.998368,-8.690818 z" /><g
       id="g4318"><path
         d="m 13.7241,17.418 8.21,-11.597"
         style="fill:none;stroke:#ffffff;stroke-width:0.28200001;stroke-linecap:butt;stroke-linejoin:miter;stroke-miterlimit:10;stroke-dasharray:none;stroke-opacity:1"
         id="path3383"
         inkscape:connector-curvature="0" /><path
         d="m 13.7241,17.418 10.392,-3.106"
         style="fill:none;stroke:#ffffff;stroke-width:0.28200001;stroke-linecap:butt;stroke-linejoin:miter;stroke-miterlimit:10;stroke-dasharray:none;stroke-opacity:1"
         id="path3387"
         inkscape:connector-curvature="0" /><path
         d="m 13.7241,17.418 10.701,5.549"
         style="fill:none;stroke:#ffffff;stroke-width:0.28200001;stroke-linecap:butt;stroke-linejoin:miter;stroke-miterlimit:10;stroke-dasharray:none;stroke-opacity:1"
         id="path3391"
         inkscape:connector-curvature="0" /><path
         d="m 7.0786,9.2266 14.855,-3.405"
         style="fill:none;stroke:#ffffff;stroke-width:0.28200001;stroke-linecap:butt;stroke-linejoin:miter;stroke-miterlimit:10;stroke-dasharray:none;stroke-opacity:1"
         id="path3395"
         inkscape:connector-curvature="0" /><path
         d="m 13.7241,17.418 -5.026,5.549"
         style="fill:none;stroke:#ffffff;stroke-width:0.28200001;stroke-linecap:butt;stroke-linejoin:miter;stroke-miterlimit:10;stroke-dasharray:none;stroke-opacity:1"
         id="path3399"
         inkscape:connector-curvature="0" /><g
         id="g3401"><g
           id="g3409"
           transform="translate(18.1226,17.418)"><path
             d="m 0,0 c 0,-2.43 -1.969,-4.399 -4.398,-4.399 -2.43,0 -4.398,1.969 -4.398,4.399 0,2.429 1.968,4.397 4.398,4.397 C -1.969,4.397 0,2.429 0,0"
             style="fill:#3878bb;fill-opacity:1;fill-rule:nonzero;stroke:none"
             id="path3411"
             inkscape:connector-curvature="0" /></g><path
           inkscape:connector-curvature="0"
           id="path3415"
           style="fill:none;stroke:#ffffff;stroke-width:0.28200001;stroke-linecap:butt;stroke-linejoin:miter;stroke-miterlimit:10;stroke-dasharray:none;stroke-opacity:1"
           d="m 18.1226,17.418 c 0,-2.43 -1.969,-4.399 -4.398,-4.399 -2.43,0 -4.398,1.969 -4.398,4.399 0,2.429 1.968,4.397 4.398,4.397 2.429,0 4.398,-1.968 4.398,-4.397 z" /><g
           id="g3417"
           transform="translate(23.854,5.8213)"><path
             d="m 0,0 c 0,-1.06 -0.86,-1.919 -1.92,-1.919 -1.06,0 -1.92,0.859 -1.92,1.919 0,1.062 0.86,1.921 1.92,1.921 C -0.86,1.921 0,1.062 0,0"
             style="fill:#8a8b8b;fill-opacity:1;fill-rule:nonzero;stroke:none"
             id="path3419"
             inkscape:connector-curvature="0" /></g><path
           inkscape:connector-curvature="0"
           id="path3423"
           style="fill:none;stroke:#ffffff;stroke-width:0.28200001;stroke-linecap:butt;stroke-linejoin:miter;stroke-miterlimit:10;stroke-dasharray:none;stroke-opacity:1"
           d="m 23.854,5.8213 c 0,-1.06 -0.86,-1.919 -1.92,-1.919 -1.06,0 -1.92,0.859 -1.92,1.919 0,1.062 0.86,1.921 1.92,1.921 1.06,0 1.92,-0.859 1.92,-1.921 z" /><g
           id="g3425"
           transform="translate(26.3452,14.3115)"><path
             d="m 0,0 c 0,-1.061 -0.859,-1.921 -1.92,-1.921 -1.06,0 -1.92,0.86 -1.92,1.921 0,1.061 0.86,1.92 1.92,1.92 C -0.859,1.92 0,1.061 0,0"
             style="fill:#8a8b8b;fill-opacity:1;fill-rule:nonzero;stroke:none"
             id="path3427"
             inkscape:connector-curvature="0" /></g><path
           inkscape:connector-curvature="0"
           id="path3431"
           style="fill:none;stroke:#ffffff;stroke-width:0.28200001;stroke-linecap:butt;stroke-linejoin:miter;stroke-miterlimit:10;stroke-dasharray:none;stroke-opacity:1"
           d="m 26.3452,14.3115 c 0,-1.061 -0.859,-1.921 -1.92,-1.921 -1.06,0 -1.92,0.86 -1.92,1.921 0,1.061 0.86,1.92 1.92,1.92 1.061,0 1.92,-0.859 1.92,-1.92 z" /><g
           id="g3433"
           transform="translate(27.5313,22.9668)"><path
             d="m 0,0 c 0,-1.715 -1.39,-3.105 -3.106,-3.105 -1.716,0 -3.107,1.39 -3.107,3.105 0,1.716 1.391,3.106 3.107,3.106 C -1.39,3.106 0,1.716 0,0"
             style="fill:#ec675f;fill-opacity:1;fill-rule:nonzero;stroke:none"
             id="path3435"
             inkscape:connector-curvature="0" /></g><path
           inkscape:connector-curvature="0"
           id="path3439"
           style="fill:none;stroke:#ffffff;stroke-width:0.28200001;stroke-linecap:butt;stroke-linejoin:miter;stroke-miterlimit:10;stroke-dasharray:none;stroke-opacity:1"
           d="m 27.5313,22.9668 c 0,-1.715 -1.39,-3.105 -3.106,-3.105 -1.716,0 -3.107,1.39 -3.107,3.105 0,1.716 1.391,3.106 3.107,3.106 1.716,0 3.106,-1.39 3.106,-3.106 z" /><g
           id="g3441"
           transform="translate(8.998,9.0342)"><path
             d="m 0,0 c 0,-1.061 -0.859,-1.92 -1.919,-1.92 -1.062,0 -1.921,0.859 -1.921,1.92 0,1.06 0.859,1.92 1.921,1.92 C -0.859,1.92 0,1.06 0,0"
             style="fill:#8a8b8b;fill-opacity:1;fill-rule:nonzero;stroke:none"
             id="path3443"
             inkscape:connector-curvature="0" /></g><path
           inkscape:connector-curvature="0"
           id="path3447"
           style="fill:none;stroke:#ffffff;stroke-width:0.28200001;stroke-linecap:butt;stroke-linejoin:miter;stroke-miterlimit:10;stroke-dasharray:none;stroke-opacity:1"
           d="m 8.998,9.0342 c 0,-1.061 -0.859,-1.92 -1.919,-1.92 -1.062,0 -1.921,0.859 -1.921,1.92 0,1.06 0.859,1.92 1.921,1.92 1.06,0 1.919,-0.86 1.919,-1.92 z" /><g
           id="g3449"
           transform="translate(9.8843,23.877)"><path
             d="m 0,0 c 0,-1.061 -0.859,-1.921 -1.919,-1.921 -1.061,0 -1.921,0.86 -1.921,1.921 0,1.06 0.86,1.919 1.921,1.919 C -0.859,1.919 0,1.06 0,0"
             style="fill:#8a8b8b;fill-opacity:1;fill-rule:nonzero;stroke:none"
             id="path3451"
             inkscape:connector-curvature="0" /></g><g
           id="g3453"
           transform="translate(9.8843,23.877)"><path
             d="m 0,0 c 0,-1.061 -0.859,-1.921 -1.919,-1.921 -1.061,0 -1.921,0.86 -1.921,1.921 0,1.06 0.86,1.919 1.921,1.919 C -0.859,1.919 0,1.06 0,0 Z"
             style="fill:none;stroke:#ffffff;stroke-width:0.28200001;stroke-linecap:butt;stroke-linejoin:miter;stroke-miterlimit:10;stroke-dasharray:none;stroke-opacity:1"
             id="path3455"
             inkscape:connector-curvature="0" /></g></g></g><path
       inkscape:connector-curvature="0"
       id="path3472"
       style="font-variant:normal;font-weight:500;font-stretch:normal;font-size:medium;font-family:Gotham;-inkscape-font-specification:Gotham-Medium;writing-mode:lr-tb;fill:#8a8b8b;fill-opacity:1;fill-rule:nonzero;stroke:none"
       d="m 90.09442,21.607027 q 0,-0.535981 -0.202804,-0.946418 Q 89.688812,20.250173 89.345977,19.984597 88.94037,19.665905 88.452675,19.530703 87.969809,19.3955 87.221366,19.3955 l -2.549534,0 0,7.189878 2.12944,0 q 0.787072,0 1.178194,-0.05794 0.391122,-0.05794 0.748443,-0.241433 0.39595,-0.207633 0.57461,-0.535982 0.178661,-0.32352 0.178661,-0.777414 0,-0.511839 -0.260748,-0.873988 -0.260748,-0.357321 -0.695327,-0.574611 l 0,-0.03863 q 0.729128,-0.149689 1.149221,-0.642212 0.420094,-0.487695 0.420094,-1.236138 z m -1.607944,3.240033 q 0,0.260747 -0.08692,0.439408 -0.08692,0.17866 -0.280063,0.289719 -0.226947,0.130374 -0.550467,0.159346 -0.323521,0.0338 -0.801558,0.0338 l -1.139564,0 0,-2.076325 1.236137,0 q 0.449066,0 0.714642,0.04346 0.265577,0.04829 0.492524,0.193147 0.226947,0.14486 0.318691,0.371807 0.09657,0.231775 0.09657,0.545639 z m 0.61324,-3.278662 q 0,0.43458 -0.130374,0.690499 -0.130374,0.255919 -0.473209,0.434579 -0.231776,0.120717 -0.564954,0.154517 -0.328349,0.03863 -0.801558,0.03863 l -1.501713,0 0,-2.675078 1.265109,0 q 0.627726,0 1.028505,0.06277 0.400779,0.0676 0.656698,0.241433 0.270405,0.188318 0.39595,0.429751 0.125546,0.241433 0.125546,0.622898 z" /><path
       inkscape:connector-curvature="0"
       id="path3474"
       style="font-variant:normal;font-weight:500;font-stretch:normal;font-size:medium;font-family:Gotham;-inkscape-font-specification:Gotham-Medium;writing-mode:lr-tb;fill:#8a8b8b;fill-opacity:1;fill-rule:nonzero;stroke:none"
       d="m 96.254132,21.998149 -3.973989,0 q 0,-0.497352 0.149688,-0.869159 0.149689,-0.366979 0.410437,-0.603583 0.25109,-0.231776 0.593925,-0.347664 0.347664,-0.115888 0.762929,-0.115888 0.550467,0 1.105763,0.21729 0.560125,0.222119 0.79673,0.43458 l 0.04829,0 0,-0.989876 q -0.458723,-0.193146 -0.93676,-0.32352 -0.478038,-0.130374 -1.004362,-0.130374 -1.342368,0 -2.095639,0.724299 -0.753272,0.729128 -0.753272,2.066667 0,1.323054 0.719471,2.100468 0.724299,0.777415 1.902493,0.777415 1.091278,0 1.680374,-0.637383 0.593926,-0.637384 0.593926,-1.810749 l 0,-0.492523 z m -0.883645,0.695327 q -0.0048,0.714642 -0.36215,1.105764 -0.352492,0.391121 -1.076792,0.391121 -0.729128,0 -1.163707,-0.42975 -0.429751,-0.429751 -0.487695,-1.067135 l 3.090344,0 z" /><path
       inkscape:connector-curvature="0"
       id="path3476"
       style="font-variant:normal;font-weight:500;font-stretch:normal;font-size:medium;font-family:Gotham;-inkscape-font-specification:Gotham-Medium;writing-mode:lr-tb;fill:#8a8b8b;fill-opacity:1;fill-rule:nonzero;stroke:none"
       d="m 100.51297,19.443787 q -0.25591,-0.0676 -0.560121,-0.11106 -0.299377,-0.04346 -0.535981,-0.04346 -0.825702,0 -1.255452,0.444237 -0.429751,0.444237 -0.429751,1.424456 l 0,2.868225 -0.61324,0 0,0.762929 0.61324,0 0,1.55 0.907788,0 0,-1.55 1.873517,0 0,-0.762929 -1.873517,0 0,-2.457789 q 0,-0.424922 0.01931,-0.666355 0.01931,-0.236605 0.135202,-0.444237 0.106231,-0.193147 0.28972,-0.284891 0.188318,-0.08692 0.569782,-0.08692 0.222119,0 0.463553,0.06277 0.24143,0.0676 0.34766,0.11106 l 0.0483,0 0,-0.816044 z" /><path
       inkscape:connector-curvature="0"
       id="path3478"
       style="font-variant:normal;font-weight:500;font-stretch:normal;font-size:medium;font-family:Gotham;-inkscape-font-specification:Gotham-Medium;writing-mode:lr-tb;fill:#8a8b8b;fill-opacity:1;fill-rule:nonzero;stroke:none"
       d="m 105.95816,19.3955 -0.90296,0 0,0.574611 q -0.12072,-0.08209 -0.32835,-0.231776 -0.2028,-0.14486 -0.39595,-0.231776 -0.22695,-0.111059 -0.5215,-0.183489 -0.29454,-0.07726 -0.69049,-0.07726 -0.72913,0 -1.23614,0.482867 -0.50701,0.482866 -0.50701,1.231308 0,0.613241 0.26075,0.989876 0.26557,0.381465 0.75327,0.598754 0.49252,0.21729 1.18302,0.294549 0.6905,0.07726 1.4824,0.115888 l 0,0.140031 q 0,0.309034 -0.11106,0.511838 -0.10623,0.202804 -0.30904,0.318692 -0.19314,0.111059 -0.46355,0.149688 -0.2704,0.03863 -0.56495,0.03863 -0.35732,0 -0.79673,-0.09657 -0.43941,-0.09174 -0.90779,-0.270405 l -0.0483,0 0,0.922275 q 0.26558,0.07243 0.76776,0.159346 0.50218,0.08692 0.98987,0.08692 0.56979,0 0.98988,-0.09657 0.42492,-0.09174 0.73396,-0.318692 0.3042,-0.222119 0.46355,-0.574611 0.15935,-0.352492 0.15935,-0.873988 l 0,-3.660126 z m -0.90296,1.327882 0,1.501714 q -0.41527,-0.02414 -0.98022,-0.07243 -0.56012,-0.04829 -0.88847,-0.140031 -0.39113,-0.111059 -0.63256,-0.347664 -0.24143,-0.231776 -0.24143,-0.642212 0,-0.463552 0.28006,-0.700156 0.28006,-0.231776 0.85467,-0.231776 0.47804,0 0.87399,0.183489 0.39595,0.188318 0.73396,0.449066 z" /></g></svg>