<?xml version="1.0" encoding="utf-8"?>
<!-- Generated by IcoMoon.io -->
<!DOCTYPE svg PUBLIC "-//W3C//DTD SVG 1.1//EN" "http://www.w3.org/Graphics/SVG/1.1/DTD/svg11.dtd">
<svg version="1.1" xmlns="http://www.w3.org/2000/svg" xmlns:xlink="http://www.w3.org/1999/xlink" width="32" height="32" viewBox="0 0 32 32">
<g>
</g>
	<path d="M18 31.799v0.201h-4v-0.201c-6.777-0.979-12-6.752-12-13.799v-8c0-5.523 4.477-10 10-10 4.838 0 9.072 3.436 10 8v0 10c0 3.314-2.688 6-6 6s-6-2.686-6-6v-8c0-1.105 0.895-2 2-2s2 0.895 2 2v8c0 1.105 0.895 2 2 2s2-0.895 2-2v-10c0 0-1.291-4-6-4-3.313 0-6 2.686-6 6v8c0 5.523 4.477 10 10 10v0c5.523 0 10-4.477 10-10v-16c0-1.105 0.895-2 2-2s2 0.894 2 2v16c0 7.047-5.223 12.82-12 13.799z" fill="#000000" />
</svg>
