<?xml version="1.0" encoding="utf-8"?>
<!-- Generated by IcoMoon.io -->
<!DOCTYPE svg PUBLIC "-//W3C//DTD SVG 1.1//EN" "http://www.w3.org/Graphics/SVG/1.1/DTD/svg11.dtd">
<svg version="1.1" xmlns="http://www.w3.org/2000/svg" xmlns:xlink="http://www.w3.org/1999/xlink" width="32" height="32" viewBox="0 0 32 32">
<g id="icomoon-ignore">
	<line stroke-width="1" x1="" y1="" x2="" y2="" stroke="#449FDB" opacity=""></line>
</g>
	<path d="M24.89 13.463l-2.074 1.094c-0.225-0.467-0.501-0.795-0.827-0.982s-0.64-0.28-0.939-0.28c-1.402 0-2.102 0.925-2.102 2.775 0 0.841 0.177 1.514 0.533 2.018s0.878 0.757 1.57 0.757c0.917 0 1.561-0.449 1.935-1.346l1.963 0.981c-0.43 0.767-1.010 1.37-1.738 1.809-0.729 0.44-1.523 0.659-2.383 0.659-1.421 0-2.557-0.43-3.406-1.29-0.851-0.859-1.275-2.057-1.275-3.589 0-1.495 0.434-2.682 1.303-3.561s1.966-1.318 3.294-1.318c1.943 0 3.326 0.757 4.149 2.271zM15.834 13.463l-2.103 1.094c-0.225-0.467-0.501-0.795-0.827-0.982-0.327-0.186-0.631-0.28-0.911-0.28-1.402 0-2.103 0.925-2.103 2.775 0 0.841 0.178 1.514 0.533 2.018s0.878 0.757 1.57 0.757c0.915 0 1.561-0.449 1.935-1.346l1.934 0.981c-0.411 0.767-0.982 1.37-1.71 1.809-0.729 0.44-1.533 0.659-2.411 0.659-1.402 0-2.533-0.43-3.392-1.29s-1.29-2.057-1.29-3.589c0-1.495 0.435-2.682 1.304-3.561s1.967-1.318 3.294-1.318c1.944 0 3.337 0.757 4.178 2.271zM16.030 3.201c-3.589 0-6.607 1.253-9.055 3.757-1.234 1.253-2.183 2.659-2.846 4.219-0.664 1.561-0.995 3.192-0.995 4.893 0 1.682 0.331 3.304 0.995 4.864 0.663 1.561 1.612 2.954 2.846 4.178s2.626 2.158 4.177 2.803c1.551 0.646 3.177 0.967 4.878 0.967 1.682 0 3.313-0.327 4.893-0.981 1.579-0.655 3.004-1.598 4.275-2.831 2.449-2.393 3.673-5.393 3.673-9 0-1.738-0.318-3.383-0.953-4.934s-1.561-2.934-2.775-4.15c-2.523-2.523-5.561-3.785-9.112-3.785zM15.974 0.37c4.392 0 8.131 1.533 11.215 4.598 1.476 1.477 2.597 3.163 3.364 5.061s1.15 3.911 1.15 6.042c0 2.15-0.379 4.163-1.135 6.042s-1.874 3.537-3.351 4.977c-1.533 1.513-3.271 2.673-5.214 3.477s-3.953 1.205-6.028 1.205-4.061-0.397-5.958-1.192c-1.898-0.794-3.598-1.943-5.103-3.449-1.505-1.504-2.649-3.201-3.434-5.087-0.785-1.889-1.178-3.878-1.178-5.972 0-2.075 0.397-4.070 1.192-5.986 0.794-1.916 1.948-3.631 3.462-5.145 2.99-3.047 6.662-4.57 11.018-4.57z" fill="#000000"></path>
</svg>
