<?xml version="1.0" encoding="utf-8"?>
<!-- Generator: Adobe Illustrator 16.0.0, SVG Export Plug-In . SVG Version: 6.00 Build 0)  -->
<!DOCTYPE svg PUBLIC "-//W3C//DTD SVG 1.1//EN" "http://www.w3.org/Graphics/SVG/1.1/DTD/svg11.dtd">
<svg version="1.1" id="Layer_1" xmlns="http://www.w3.org/2000/svg" xmlns:xlink="http://www.w3.org/1999/xlink" x="0px" y="0px"
	 width="56px" height="56px" viewBox="0 0 56 56" enable-background="new 0 0 56 56" xml:space="preserve">
<path fill="#FFFFFF" d="M43.557,23.56l-3.63,1.914c-0.393-0.818-0.876-1.391-1.448-1.718c-0.572-0.326-1.12-0.49-1.644-0.49
	c-2.453,0-3.679,1.619-3.679,4.857c0,1.472,0.31,2.649,0.932,3.532c0.621,0.884,1.537,1.325,2.747,1.325
	c1.604,0,2.731-0.785,3.386-2.355l3.435,1.717c-0.753,1.342-1.767,2.397-3.042,3.165c-1.275,0.77-2.666,1.153-4.17,1.153
	c-2.486,0-4.474-0.752-5.961-2.257c-1.489-1.504-2.232-3.599-2.232-6.28c0-2.617,0.76-4.693,2.281-6.231
	c1.521-1.538,3.441-2.306,5.765-2.306C39.697,19.586,42.118,20.911,43.557,23.56 M27.71,23.56l-3.68,1.914
	c-0.393-0.818-0.876-1.391-1.447-1.718c-0.573-0.326-1.105-0.49-1.595-0.49c-2.453,0-3.68,1.619-3.68,4.857
	c0,1.472,0.311,2.649,0.932,3.532c0.621,0.884,1.537,1.325,2.748,1.325c1.602,0,2.731-0.785,3.386-2.355l3.385,1.717
	c-0.72,1.342-1.718,2.397-2.993,3.165c-1.276,0.77-2.683,1.153-4.22,1.153c-2.453,0-4.432-0.752-5.936-2.257
	c-1.505-1.504-2.258-3.599-2.258-6.28c0-2.617,0.761-4.693,2.282-6.231s3.442-2.306,5.765-2.306
	C23.801,19.586,26.238,20.911,27.71,23.56z M28.053,5.602c-6.28,0-11.562,2.192-15.847,6.575c-2.159,2.192-3.82,4.654-4.98,7.384
	c-1.162,2.732-1.742,5.586-1.742,8.562c0,2.944,0.58,5.782,1.742,8.512c1.16,2.732,2.821,5.169,4.98,7.312
	c2.158,2.143,4.595,3.777,7.31,4.905c2.714,1.13,5.56,1.693,8.537,1.693c2.944,0,5.797-0.572,8.562-1.717
	c2.763-1.146,5.257-2.797,7.481-4.955c4.285-4.188,6.428-9.438,6.428-15.75c0-3.042-0.557-5.92-1.668-8.635
	c-1.112-2.715-2.731-5.135-4.857-7.262C39.583,7.81,34.268,5.602,28.053,5.602z M27.955,0.647c7.686,0,14.229,2.683,19.626,8.047
	c2.583,2.584,4.545,5.536,5.887,8.856c1.341,3.32,2.013,6.844,2.013,10.573c0,3.762-0.663,7.286-1.987,10.573
	c-1.325,3.287-3.28,6.19-5.864,8.709c-2.682,2.648-5.724,4.678-9.125,6.084c-3.402,1.407-6.918,2.109-10.549,2.109
	s-7.106-0.694-10.426-2.086c-3.321-1.39-6.297-3.4-8.93-6.035c-2.633-2.632-4.636-5.601-6.01-8.903
	c-1.374-3.305-2.061-6.787-2.061-10.451c0-3.631,0.695-7.122,2.086-10.475c1.389-3.353,3.409-6.354,6.059-9.003
	C13.906,3.313,20.333,0.647,27.955,0.647z"/>
</svg>
