<?xml version="1.0" encoding="utf-8"?>
<!-- Generated by IcoMoon.io -->
<!DOCTYPE svg PUBLIC "-//W3C//DTD SVG 1.1//EN" "http://www.w3.org/Graphics/SVG/1.1/DTD/svg11.dtd">
<svg version="1.1" xmlns="http://www.w3.org/2000/svg" xmlns:xlink="http://www.w3.org/1999/xlink" width="32" height="32" viewBox="0 0 32 32">
<g id="icomoon-ignore">
	<line stroke-width="1" x1="" y1="" x2="" y2="" stroke="#449FDB" opacity=""></line>
</g>
	<path d="M16 0c-8.837 0-16 7.163-16 16s7.163 16 16 16 16-7.163 16-16-7.163-16-16-16zM24.609 11.75l-10.287 10.285c-0.242 0.243-0.542 0.366-0.892 0.366-0.346 0-0.654-0.126-0.894-0.366l-5.142-5.142c-0.238-0.235-0.364-0.544-0.364-0.891 0-0.354 0.121-0.654 0.36-0.895 0.468-0.47 1.306-0.479 1.788 0.002l4.251 4.258 9.393-9.4c0.486-0.484 1.314-0.476 1.788-0.004 0.237 0.235 0.362 0.546 0.362 0.897 0.002 0.345-0.124 0.654-0.363 0.893z" fill="#000000"></path>
</svg>
