<?xml version="1.0" encoding="utf-8"?>
<!-- Generator: Adobe Illustrator 16.0.0, SVG Export Plug-In . SVG Version: 6.00 Build 0)  -->
<!DOCTYPE svg PUBLIC "-//W3C//DTD SVG 1.1//EN" "http://www.w3.org/Graphics/SVG/1.1/DTD/svg11.dtd">
<svg version="1.1" id="Layer_1" xmlns="http://www.w3.org/2000/svg" xmlns:xlink="http://www.w3.org/1999/xlink" x="0px" y="0px"
	 width="40px" height="40px" viewBox="-4 -4 40 40" enable-background="new -4 -4 40 40" xml:space="preserve">
<g>
	<circle fill="#007CE0" cx="16" cy="16" r="20"/>
	<path fill="#FFFFFF" stroke="#FFFFFF" stroke-linecap="round" stroke-linejoin="round" stroke-miterlimit="10" d="M25.645,8.5
		c0.307,0,0.562,0.102,0.766,0.305s0.306,0.459,0.306,0.766c0,0.302-0.104,0.556-0.31,0.762L13.549,23.19
		c-0.207,0.207-0.46,0.31-0.762,0.31s-0.556-0.103-0.762-0.31l-6.429-6.429C5.39,16.556,5.287,16.302,5.287,16
		c0-0.307,0.102-0.562,0.305-0.766s0.459-0.305,0.766-0.305c0.302,0,0.556,0.104,0.762,0.309l5.667,5.676L24.882,8.809
		C25.089,8.603,25.343,8.5,25.645,8.5z"/>
</g>
</svg>
