<?xml version="1.0" encoding="utf-8"?>
<!-- Generator: Adobe Illustrator 16.0.0, SVG Export Plug-In . SVG Version: 6.00 Build 0)  -->
<!DOCTYPE svg PUBLIC "-//W3C//DTD SVG 1.1//EN" "http://www.w3.org/Graphics/SVG/1.1/DTD/svg11.dtd">
<svg version="1.1" id="Layer_1" xmlns="http://www.w3.org/2000/svg" xmlns:xlink="http://www.w3.org/1999/xlink" x="0px" y="0px"
	 width="31px" height="31px" viewBox="0 0 31 31" enable-background="new 0 0 31 31" xml:space="preserve">
<g>
	<path fill="#FFFFFF" d="M18.952,15.512l3.413-3.431c0.283-0.283,0.282-0.741,0-1.025c-0.283-0.282-0.741-0.282-1.024,0
		l-5.446,5.446c-0.216,0.217-0.577,0.217-0.798,0l-5.438-5.446c-0.282-0.282-0.74-0.282-1.023,0c-0.283,0.283-0.283,0.741,0,1.025
		l3.408,3.431h-0.001L8.632,18.92c-0.282,0.283-0.282,0.74,0,1.023c0.283,0.285,0.742,0.285,1.024,0l3.405-3.404
		c0,0,1.059,1.072,1.256,1.268c0.302,0.301,0.719,0.486,1.181,0.486c0.455,0,0.872-0.182,1.175-0.477
		c0.193-0.193,1.258-1.277,1.258-1.277l3.409,3.404c0.283,0.283,0.74,0.283,1.024,0c0.283-0.283,0.283-0.74,0-1.023L18.952,15.512z"
		/>
	<path fill="#FFFFFF" d="M15.5,0.141C7.017,0.141,0.14,7.018,0.14,15.5c0,8.482,6.877,15.359,15.359,15.359
		c8.483,0,15.36-6.877,15.36-15.359C30.86,7.018,23.983,0.141,15.5,0.141z M24.441,20.529c0,0.824-0.667,1.49-1.49,1.49H8.049
		c-0.824,0-1.49-0.666-1.49-1.49V10.471c0-0.823,0.667-1.49,1.49-1.49h14.901c0.824,0,1.49,0.667,1.49,1.49V20.529z"/>
</g>
</svg>
