<?xml version="1.0" encoding="utf-8"?>
<!-- Generated by IcoMoon.io -->
<!DOCTYPE svg PUBLIC "-//W3C//DTD SVG 1.1//EN" "http://www.w3.org/Graphics/SVG/1.1/DTD/svg11.dtd">
<svg version="1.1" xmlns="http://www.w3.org/2000/svg" xmlns:xlink="http://www.w3.org/1999/xlink" width="32" height="32" viewBox="0 0 32 32">
<g id="icomoon-ignore">
	<line stroke-width="1" x1="" y1="" x2="" y2="" stroke="#449FDB" opacity=""></line>
</g>
	<path d="M11.148 17.988l-6.58 6.58-2.568-2.568c-1.105 0-2 0.895-2 2v6c0 1.105 0.894 2 2 2h6c1.105 0 2-0.895 2-2l-2.568-2.566 6.58-6.582-2.863-2.863zM30 0h-6c-1.105 0-2 0.895-2 2l2.568 2.568-6.58 6.58 2.863 2.863 6.58-6.579 2.568 2.567c1.105 0 2-0.895 2-2v-6c0-1.105-0.895-2-2-2zM30 22l-2.568 2.568-6.58-6.58-2.863 2.863 6.58 6.582-2.568 2.567c0 1.105 0.895 2 2 2h6c1.105 0 2-0.895 2-2v-6c0-1.105-0.895-2-2-2zM10 2c0-1.105-0.895-2-2-2h-6c-1.105 0-2 0.895-2 2v6c0 1.105 0.894 2 2 2l2.568-2.567 6.58 6.579 2.863-2.863-6.58-6.58 2.568-2.568z" fill="#000000"></path>
</svg>
