<?xml version="1.0" encoding="utf-8"?>
<!-- Generated by IcoMoon.io -->
<!DOCTYPE svg PUBLIC "-//W3C//DTD SVG 1.1//EN" "http://www.w3.org/Graphics/SVG/1.1/DTD/svg11.dtd">
<svg version="1.1" xmlns="http://www.w3.org/2000/svg" xmlns:xlink="http://www.w3.org/1999/xlink" width="23" height="32" viewBox="0 0 23 32">
<g id="icomoon-ignore">
	<line stroke-width="1" x1="" y1="" x2="" y2="" stroke="#449FDB" opacity=""></line>
</g>
	<path d="M14.812 24.703c-0.114 0.115-0.242 0.168-0.404 0.168h-3.709c-0.162 0-0.29-0.053-0.405-0.169-0.114-0.114-0.167-0.243-0.167-0.403s0.053-0.29 0.167-0.405c0.115-0.115 0.244-0.169 0.405-0.169h3.71c0.161 0 0.29 0.053 0.405 0.17 0.114 0.113 0.167 0.242 0.167 0.404s-0.053 0.29-0.169 0.404zM4.805 12.765c0.114-0.114 0.243-0.168 0.404-0.168h9.2c0.161 0 0.289 0.053 0.405 0.169 0.114 0.114 0.168 0.242 0.168 0.404s-0.053 0.289-0.168 0.404c-0.115 0.115-0.243 0.168-0.404 0.168h-9.2c-0.161 0-0.289-0.053-0.405-0.169-0.114-0.114-0.167-0.243-0.167-0.404s0.053-0.29 0.168-0.405zM4.805 16.476c0.114-0.115 0.242-0.168 0.404-0.168h9.2c0.162 0 0.289 0.053 0.405 0.17 0.114 0.112 0.167 0.241 0.167 0.403s-0.053 0.289-0.168 0.404c-0.114 0.114-0.243 0.168-0.404 0.168h-9.2c-0.161 0-0.289-0.053-0.404-0.168s-0.168-0.243-0.168-0.404c0-0.162 0.053-0.29 0.168-0.404zM4.804 20.186c0.116-0.115 0.245-0.169 0.405-0.169h9.2c0.16 0 0.289 0.053 0.404 0.169 0.115 0.114 0.168 0.244 0.168 0.406 0 0.161-0.053 0.289-0.168 0.404-0.115 0.114-0.243 0.168-0.405 0.168h-9.2c-0.161 0-0.289-0.053-0.404-0.167-0.115-0.115-0.168-0.244-0.168-0.405 0-0.162 0.054-0.291 0.167-0.405z" fill="#000000"></path>
	<path d="M5.209 17.452h9.2c0.161 0 0.289-0.053 0.404-0.168s0.168-0.243 0.168-0.405c0-0.162-0.053-0.29-0.167-0.403-0.115-0.116-0.243-0.169-0.405-0.169h-9.2c-0.162 0-0.29 0.053-0.404 0.168s-0.168 0.243-0.168 0.405c0 0.161 0.053 0.289 0.168 0.404s0.243 0.168 0.404 0.168z" fill="#000000"></path>
	<path d="M5.209 21.162h9.2c0.161 0 0.289-0.053 0.405-0.168 0.114-0.114 0.168-0.243 0.168-0.404s-0.053-0.29-0.168-0.405-0.243-0.168-0.404-0.168h-9.2c-0.16 0-0.289 0.053-0.405 0.169-0.114 0.114-0.167 0.243-0.167 0.405s0.053 0.289 0.168 0.405c0.114 0.113 0.243 0.167 0.404 0.167z" fill="#000000"></path>
	<path d="M5.209 13.742h9.2c0.161 0 0.289-0.053 0.404-0.168s0.168-0.243 0.168-0.404c0-0.162-0.053-0.29-0.168-0.404-0.115-0.115-0.243-0.169-0.405-0.169h-9.2c-0.162 0-0.289 0.053-0.404 0.168s-0.168 0.243-0.168 0.405c0 0.161 0.053 0.289 0.167 0.404 0.116 0.115 0.244 0.169 0.405 0.169z" fill="#000000"></path>
	<path d="M14.409 23.727h-3.71c-0.161 0-0.29 0.053-0.405 0.169-0.114 0.114-0.167 0.243-0.167 0.404s0.053 0.289 0.167 0.404c0.115 0.115 0.243 0.168 0.405 0.168h3.71c0.162 0 0.29-0.053 0.404-0.168 0.115-0.115 0.169-0.243 0.169-0.405s-0.053-0.29-0.167-0.403c-0.116-0.116-0.243-0.17-0.405-0.17z" fill="#000000"></path>
	<path d="M18.475 29.572c0 0.353-0.126 0.659-0.377 0.908-0.248 0.249-0.554 0.376-0.907 0.376h-14.763c-0.354 0-0.66-0.126-0.908-0.377-0.249-0.249-0.376-0.554-0.376-0.907v-19.186c0-0.353 0.127-0.659 0.377-0.907 0.247-0.249 0.552-0.376 0.907-0.376h12.18v-1.143h-12.181c-0.675 0-1.237 0.233-1.716 0.711s-0.711 1.039-0.711 1.716v19.186c0 0.676 0.233 1.238 0.711 1.715 0.478 0.479 1.039 0.711 1.716 0.711h14.764c0.676 0 1.238-0.232 1.715-0.711 0.479-0.479 0.712-1.040 0.712-1.715v-16.304h-1.143v16.303z" fill="#000000"></path>
	<path d="M18.388 1.977v7.354c0 0.164 0.054 0.294 0.171 0.411 0.231 0.23 0.586 0.232 0.822-0.002 0.114-0.115 0.169-0.246 0.169-0.409v-7.354l2.75 2.76c0.116 0.111 0.25 0.165 0.413 0.165 0.164 0 0.295-0.054 0.41-0.17s0.17-0.246 0.17-0.41c0-0.169-0.052-0.3-0.166-0.414l-3.742-3.742c-0.112-0.114-0.244-0.166-0.414-0.166-0.171 0-0.304 0.053-0.416 0.166l-3.743 3.742c-0.111 0.117-0.166 0.251-0.166 0.413 0 0.164 0.054 0.294 0.17 0.41 0.232 0.233 0.583 0.234 0.831-0.001l2.742-2.753z" fill="#000000"></path>
</svg>
