<?xml version="1.0" encoding="utf-8"?>
<!-- Generator: Adobe Illustrator 16.0.0, SVG Export Plug-In . SVG Version: 6.00 Build 0)  -->
<!DOCTYPE svg PUBLIC "-//W3C//DTD SVG 1.1//EN" "http://www.w3.org/Graphics/SVG/1.1/DTD/svg11.dtd">
<svg version="1.1" id="Layer_1" xmlns="http://www.w3.org/2000/svg" xmlns:xlink="http://www.w3.org/1999/xlink" x="0px" y="0px"
	 width="65.458px" height="89.929px" viewBox="0 0 65.458 89.929" enable-background="new 0 0 65.458 89.929" xml:space="preserve">
<g>
	<g>
		<path fill="none" d="M41.626,69.424c-0.32,0.321-0.68,0.471-1.135,0.471H30.066c-0.454,0-0.815-0.15-1.137-0.473
			c-0.321-0.321-0.47-0.682-0.47-1.134c0-0.453,0.149-0.814,0.47-1.136c0.323-0.323,0.685-0.474,1.137-0.474h10.425
			c0.453,0,0.814,0.15,1.138,0.476c0.32,0.318,0.47,0.679,0.47,1.134C42.099,68.742,41.951,69.102,41.626,69.424z M13.503,35.873
			c0.321-0.321,0.682-0.472,1.136-0.472h25.853c0.453,0,0.814,0.149,1.137,0.474c0.321,0.32,0.471,0.681,0.471,1.136
			c0,0.453-0.149,0.813-0.473,1.135c-0.321,0.322-0.682,0.473-1.135,0.473H14.639c-0.452,0-0.813-0.15-1.137-0.474
			c-0.321-0.321-0.47-0.682-0.47-1.134C13.032,36.557,13.182,36.195,13.503,35.873z M13.504,46.302
			c0.32-0.322,0.681-0.472,1.135-0.472h25.853c0.455,0,0.814,0.149,1.139,0.476c0.32,0.316,0.469,0.677,0.469,1.132
			c0,0.453-0.149,0.813-0.473,1.136c-0.32,0.321-0.682,0.472-1.135,0.472H14.639c-0.453,0-0.814-0.15-1.136-0.473
			c-0.321-0.321-0.471-0.682-0.471-1.135C13.032,46.983,13.181,46.623,13.504,46.302z M13.5,56.727
			c0.326-0.324,0.688-0.475,1.139-0.475h25.853c0.451,0,0.812,0.15,1.136,0.473c0.321,0.322,0.472,0.684,0.472,1.139
			c0,0.453-0.15,0.813-0.47,1.135c-0.323,0.321-0.685,0.472-1.138,0.472H14.639c-0.453,0-0.814-0.15-1.135-0.469
			c-0.323-0.324-0.473-0.686-0.473-1.138C13.032,57.409,13.182,57.047,13.5,56.727z"/>
		<path fill="#888888" d="M14.639,49.045h25.853c0.453,0,0.814-0.15,1.135-0.472c0.323-0.322,0.473-0.683,0.473-1.136
			c0-0.455-0.148-0.815-0.469-1.132c-0.324-0.326-0.684-0.476-1.139-0.476H14.639c-0.454,0-0.815,0.149-1.135,0.472
			c-0.323,0.321-0.472,0.682-0.472,1.136c0,0.453,0.15,0.813,0.471,1.135C13.825,48.895,14.186,49.045,14.639,49.045z"/>
		<path fill="#888888" d="M14.639,59.47h25.853c0.453,0,0.814-0.15,1.138-0.472c0.319-0.321,0.47-0.682,0.47-1.135
			c0-0.455-0.15-0.816-0.472-1.139c-0.323-0.322-0.685-0.473-1.136-0.473H14.639c-0.451,0-0.813,0.15-1.139,0.475
			c-0.319,0.32-0.469,0.683-0.469,1.137c0,0.452,0.15,0.813,0.473,1.138C13.825,59.319,14.187,59.47,14.639,59.47z"/>
		<path fill="#888888" d="M14.639,38.618h25.853c0.453,0,0.813-0.15,1.135-0.473c0.323-0.321,0.473-0.682,0.473-1.135
			c0-0.455-0.149-0.815-0.471-1.136c-0.322-0.324-0.684-0.474-1.137-0.474H14.639c-0.454,0-0.814,0.15-1.136,0.472
			c-0.322,0.322-0.472,0.684-0.472,1.138c0,0.452,0.149,0.812,0.47,1.134C13.826,38.468,14.187,38.618,14.639,38.618z"/>
		<path fill="#888888" d="M40.492,66.679H30.066c-0.453,0-0.814,0.15-1.137,0.474c-0.321,0.321-0.47,0.683-0.47,1.136
			c0,0.452,0.149,0.812,0.47,1.134c0.322,0.322,0.683,0.473,1.137,0.473h10.425c0.455,0,0.814-0.149,1.135-0.471
			c0.324-0.322,0.473-0.682,0.473-1.136c0-0.455-0.149-0.815-0.47-1.134C41.306,66.829,40.945,66.679,40.492,66.679z"/>
		<path fill="#888888" d="M51.921,83.106c0,0.991-0.355,1.85-1.059,2.551c-0.697,0.701-1.557,1.058-2.55,1.058H6.822
			c-0.995,0-1.854-0.356-2.552-1.06c-0.7-0.698-1.056-1.557-1.056-2.549V29.189c0-0.993,0.356-1.851,1.06-2.55
			c0.693-0.7,1.552-1.058,2.548-1.058h34.229v-3.211H6.82c-1.898,0-3.476,0.654-4.821,1.999C0.653,25.713,0,27.289,0,29.19v53.919
			c0,1.9,0.654,3.478,1.999,4.821c1.343,1.345,2.92,1.998,4.821,1.998h41.492c1.9,0,3.478-0.653,4.82-1.998
			c1.346-1.345,1.999-2.922,1.999-4.821v-45.82h-3.21V83.106z"/>
	</g>
	<g>
		<path fill="#147EDD" d="M51.677,5.555v20.666c0,0.46,0.152,0.827,0.48,1.155c0.65,0.646,1.646,0.652,2.308-0.005
			c0.321-0.324,0.474-0.691,0.474-1.15V5.555l7.727,7.757c0.327,0.311,0.703,0.464,1.161,0.464c0.46,0,0.827-0.152,1.153-0.479
			s0.478-0.692,0.478-1.152c0-0.474-0.148-0.844-0.468-1.163L54.475,0.467C54.158,0.148,53.789,0,53.312,0
			c-0.482,0-0.852,0.148-1.169,0.466L41.625,10.982c-0.312,0.33-0.466,0.706-0.466,1.162c0,0.461,0.152,0.826,0.477,1.151
			c0.652,0.654,1.637,0.658,2.334-0.004L51.677,5.555z"/>
	</g>
</g>
</svg>
