<?xml version="1.0" encoding="utf-8"?>
<!-- Generated by IcoMoon.io -->
<!DOCTYPE svg PUBLIC "-//W3C//DTD SVG 1.1//EN" "http://www.w3.org/Graphics/SVG/1.1/DTD/svg11.dtd">
<svg version="1.1" xmlns="http://www.w3.org/2000/svg" xmlns:xlink="http://www.w3.org/1999/xlink" width="32" height="32" viewBox="0 0 32 32">
<g id="icomoon-ignore">
	<line stroke-width="1" x1="" y1="" x2="" y2="" stroke="#449FDB" opacity=""></line>
</g>
	<path d="M13.531 1.406c1.563 4.188 0.75 6.469-1 8.281-1.906 2-4.875 3.5-6.969 6.438-2.781 3.906-3.25 12.5 6.781 14.75-4.219-2.219-5.125-8.656-0.563-12.688-1.188 3.906 1 6.406 3.719 5.5 2.656-0.906 4.406 1 4.344 3.188-0.031 1.5-0.625 2.781-2.156 3.5 6.531-1.156 9.156-6.563 9.156-10.688 0-5.438-4.844-6.188-2.406-10.75-2.906 0.25-3.906 2.156-3.625 5.281 0.188 2.063-1.969 3.469-3.563 2.531-1.281-0.781-1.25-2.281-0.125-3.406 2.406-2.375 3.344-7.844-3.594-11.938z" fill="#888888"></path>
</svg>
