<?xml version="1.0" encoding="utf-8"?>
<!-- Generated by IcoMoon.io -->
<!DOCTYPE svg PUBLIC "-//W3C//DTD SVG 1.1//EN" "http://www.w3.org/Graphics/SVG/1.1/DTD/svg11.dtd">
<svg version="1.1" xmlns="http://www.w3.org/2000/svg" xmlns:xlink="http://www.w3.org/1999/xlink" width="32" height="32" viewBox="0 0 32 32">
<g id="icomoon-ignore">
	<line stroke-width="1" x1="" y1="" x2="" y2="" stroke="#449FDB" opacity=""></line>
</g>
	<path d="M12.78 8.833c-1.259-0.037-2.105 1.229-1.886 2.882 0.217 1.655 1.413 2.81 2.674 2.849 1.26 0.036 1.984-1.028 1.767-2.683-0.218-1.653-1.295-3.010-2.555-3.048z" fill="#000000"></path>
	<path d="M13.31 17.949c-1.877-0.021-3.466 1.185-3.466 2.583 0 1.428 1.354 2.615 3.232 2.615 2.638 0 3.558-1.115 3.558-2.542 0-0.171-0.022-0.341-0.061-0.504-0.207-0.806-1.028-1.25-2.047-1.957-0.371-0.122-0.778-0.19-1.216-0.194z" fill="#000000"></path>
	<path d="M16 0.145c-8.756 0-15.855 7.1-15.855 15.855 0 8.758 7.1 15.857 15.855 15.857 8.757 0 15.855-7.099 15.855-15.857 0-8.756-7.099-15.855-15.855-15.855zM17.212 11.81c0 1.034-0.572 1.866-1.38 2.497-0.79 0.617-0.938 0.875-0.938 1.4 0 0.448 0.942 1.113 1.376 1.439 1.508 1.131 1.814 1.845 1.814 3.258 0 1.766-1.903 3.522-4.998 3.522-2.715 0-5.006-1.102-5.006-2.869 0-1.792 1.9-3.663 4.616-3.663 0.295 0 0.567-0.008 0.847-0.008-0.372-0.359-0.672-0.669-0.672-1.216 0-0.325 0.104-0.635 0.248-0.911-0.147 0.009-0.298 0.020-0.453 0.020-2.23 0-3.529-1.568-3.529-3.532 0-1.924 1.978-3.674 4.348-3.674 1.224 0 4.674 0 4.674 0l-1.045 1.097h-1.227c0.866 0.495 1.326 1.516 1.326 2.642zM23.922 11.523h-2.155v2.154h-1.079v-2.154h-2.155v-1.078h2.155v-2.157h1.079v2.156h2.155v1.079z" fill="#000000"></path>
</svg>
