<?xml version="1.0" encoding="utf-8"?>
<!-- Generator: Adobe Illustrator 16.0.0, SVG Export Plug-In . SVG Version: 6.00 Build 0)  -->
<!DOCTYPE svg PUBLIC "-//W3C//DTD SVG 1.1//EN" "http://www.w3.org/Graphics/SVG/1.1/DTD/svg11.dtd">
<svg version="1.1" id="Layer_1" xmlns="http://www.w3.org/2000/svg" xmlns:xlink="http://www.w3.org/1999/xlink" x="0px" y="0px"
	 width="31px" height="31px" viewBox="0 0 31 31" enable-background="new 0 0 31 31" xml:space="preserve">
<g>
	<path fill="#888888" d="M12.381,8.557c-1.22-0.036-2.039,1.191-1.827,2.792c0.21,1.603,1.369,2.722,2.59,2.76
		c1.221,0.035,1.922-0.996,1.712-2.599C14.645,9.909,13.601,8.594,12.381,8.557z"/>
	<path fill="#888888" d="M12.894,17.388c-1.818-0.02-3.358,1.148-3.358,2.502c0,1.383,1.312,2.533,3.131,2.533
		c2.556,0,3.447-1.08,3.447-2.463c0-0.166-0.021-0.33-0.059-0.488c-0.201-0.781-0.996-1.211-1.983-1.896
		C13.713,17.458,13.318,17.392,12.894,17.388z"/>
	<path fill="#888888" d="M15.5,0.14C7.018,0.14,0.14,7.018,0.14,15.5c0,8.484,6.878,15.361,15.36,15.361
		c8.483,0,15.36-6.877,15.36-15.361C30.86,7.018,23.983,0.14,15.5,0.14z M16.674,11.441c0,1.002-0.554,1.808-1.337,2.419
		c-0.765,0.598-0.909,0.848-0.909,1.356c0,0.434,0.913,1.078,1.333,1.394c1.461,1.096,1.757,1.787,1.757,3.156
		c0,1.711-1.844,3.412-4.842,3.412c-2.63,0-4.85-1.068-4.85-2.779c0-1.736,1.841-3.549,4.472-3.549c0.286,0,0.549-0.008,0.821-0.008
		c-0.36-0.348-0.651-0.648-0.651-1.178c0-0.315,0.101-0.615,0.24-0.883c-0.142,0.009-0.289,0.019-0.439,0.019
		c-2.16,0-3.419-1.519-3.419-3.422c0-1.864,1.916-3.559,4.212-3.559c1.186,0,4.528,0,4.528,0l-1.012,1.063h-1.189
		C16.228,9.362,16.674,10.351,16.674,11.441z M23.174,11.163h-2.088v2.087h-1.045v-2.087h-2.088v-1.044h2.088V8.029h1.045v2.089
		h2.088V11.163z"/>
</g>
</svg>
