<?xml version="1.0" encoding="utf-8"?>
<!-- Generated by IcoMoon.io -->
<!DOCTYPE svg PUBLIC "-//W3C//DTD SVG 1.1//EN" "http://www.w3.org/Graphics/SVG/1.1/DTD/svg11.dtd">
<svg version="1.1" xmlns="http://www.w3.org/2000/svg" xmlns:xlink="http://www.w3.org/1999/xlink" width="32" height="32" viewBox="0 0 32 32">
<g id="icomoon-ignore">
	<line stroke-width="1" x1="" y1="" x2="" y2="" stroke="#449FDB" opacity=""></line>
</g>
	<path d="M22.275 8.611c0.577 0.398 1.209 0.143 1.606-0.433s0.41-1.258-0.167-1.655c-0.577-0.397-1.209-0.144-1.607 0.433s-0.41 1.258 0.167 1.656z" fill="#000000"></path>
	<path d="M25.38 15.882l-0.72-3.446c-0-0.080-0.017-0.162-0.057-0.238l-1.244-2.354c-0.050-0.204-0.201-0.378-0.416-0.444l-1.131-0.349c-0.327-0.101-0.674 0.082-0.775 0.409l-1.712 5.538c-0.063 0.205-0.015 0.417 0.111 0.573l-0.882 2.181c-0.022 0.042-0.040 0.085-0.053 0.132l-0.005 0.011c-0.027 0.067-0.039 0.134-0.045 0.202l-0.895 4.311c-0.079 0.383 0.167 0.757 0.549 0.836s0.757-0.166 0.836-0.549l0.906-4.368 0.705-1.743 0.511 1.86c0.017 0.061 0.044 0.117 0.075 0.17l1.792 4.079c0.157 0.358 0.574 0.52 0.932 0.363s0.52-0.574 0.363-0.932l-1.824-4.154-0.685-2.494 1.278-4.135 0.65 1.231 0.736 3.519c0.058 0.277 0.33 0.454 0.607 0.396s0.454-0.329 0.396-0.606z" fill="#000000"></path>
	<path d="M11.554 9.255c0.683-0.156 0.923-0.794 0.767-1.477s-0.651-1.152-1.333-0.996c-0.683 0.156-0.923 0.794-0.767 1.477s0.65 1.152 1.333 0.996z" fill="#000000"></path>
	<path d="M16.773 9.269l-3.436 0.993-1.687-0.249c-0.070-0.071-0.156-0.129-0.258-0.16l-1.131-0.35c-0.327-0.101-0.674 0.082-0.775 0.409l-1.712 5.538c-0.048 0.156-0.030 0.316 0.036 0.453l-0.779 2.401-2.379 3.868c-0.205 0.333-0.101 0.768 0.232 0.972s0.768 0.101 0.972-0.232l2.292-3.728c0.076-0.076 0.137-0.168 0.172-0.277l0.779-2.399 0.214 0.066c0.007 0.002 0.014 0.002 0.020 0.004l1.299 2.012 1.548 4.206c0.135 0.366 0.541 0.554 0.908 0.419s0.554-0.541 0.42-0.908l-1.558-4.232c-0.018-0.057-0.041-0.113-0.074-0.166-0.006-0.009-0.011-0.019-0.017-0.027l-1.555-2.409 0.537-1.736 1.707 2.641c0.154 0.237 0.471 0.305 0.709 0.152s0.306-0.471 0.152-0.709l-1.955-3.024-0.165-0.509 0.382-1.236 1.644 0.243c0.106 0.016 0.208-0.002 0.298-0.045l3.445-0.996c0.272-0.079 0.428-0.363 0.35-0.634-0.078-0.273-0.362-0.43-0.634-0.351z" fill="#000000"></path>
</svg>
