<?xml version="1.0" encoding="utf-8"?>
<!-- Generated by IcoMoon.io -->
<!DOCTYPE svg PUBLIC "-//W3C//DTD SVG 1.1//EN" "http://www.w3.org/Graphics/SVG/1.1/DTD/svg11.dtd">
<svg version="1.1" xmlns="http://www.w3.org/2000/svg" xmlns:xlink="http://www.w3.org/1999/xlink" width="32" height="32" viewBox="0 0 32 32">
<g id="icomoon-ignore">
	<line stroke-width="1" x1="" y1="" x2="" y2="" stroke="#449FDB" opacity=""></line>
</g>
	<path d="M14 10.333c0-0.92 0.747-1.667 1.667-1.667s1.667 0.747 1.667 1.667-0.747 1.667-1.667 1.667-1.667-0.747-1.667-1.667zM15.667 6c-2.393 0-4.333 1.94-4.333 4.333s1.94 4.333 4.333 4.333c2.393 0 4.333-1.94 4.333-4.333s-1.94-4.333-4.333-4.333zM5.333 10.147c0 6.8 8.020 12.033 8.667 19.853v0.333c0 0.92 0.747 1.667 1.667 1.667s1.667-0.747 1.667-1.667l-0-0.333c0.686-7.82 8.667-13.053 8.667-19.853 0-5.607-4.626-10.147-10.333-10.147s-10.333 4.54-10.333 10.147zM15.667 3.333c3.867 0 7 3.133 7 7s-3.133 7-7 7-7-3.133-7-7 3.133-7 7-7z" fill="#000000"></path>
</svg>
