<?xml version="1.0" encoding="utf-8"?>
<!-- Generated by IcoMoon.io -->
<!DOCTYPE svg PUBLIC "-//W3C//DTD SVG 1.1//EN" "http://www.w3.org/Graphics/SVG/1.1/DTD/svg11.dtd">
<svg version="1.1" xmlns="http://www.w3.org/2000/svg" xmlns:xlink="http://www.w3.org/1999/xlink" width="32" height="32" viewBox="0 0 32 32">
<g id="icomoon-ignore">
	<line stroke-width="1" x1="" y1="" x2="" y2="" stroke="#449FDB" opacity=""></line>
</g>
	<path d="M7.333 8.667v4.667l-2-0c-1.473 0-2.667 1.193-2.667 2.667v13.333c0 1.473 1.193 2.667 2.667 2.667h21.333c1.473 0 2.667-1.193 2.667-2.667v-13.333c0-1.473-1.193-2.667-2.667-2.667h-2v-4.667c0-4.787-3.88-8.667-8.667-8.667s-8.667 3.88-8.667 8.667zM10.667 13.333v-4.667c0-2.947 2.387-5.333 5.333-5.333s5.333 2.387 5.333 5.333v4.667h-10.667zM13.333 20.667c0-1.473 1.193-2.667 2.667-2.667s2.667 1.193 2.667 2.667c0 0.94-0.487 1.767-1.22 2.24 0 0 0.261 1.573 0.553 3.427 0 0.553-0.447 1-1 1h-2c-0.553 0-1-0.447-1-1l0.553-3.427c-0.733-0.473-1.22-1.3-1.22-2.24z" fill="#007ce0"></path>
</svg>
