<?xml version="1.0" encoding="utf-8"?>
<!-- Generated by IcoMoon.io -->
<!DOCTYPE svg PUBLIC "-//W3C//DTD SVG 1.1//EN" "http://www.w3.org/Graphics/SVG/1.1/DTD/svg11.dtd">
<svg version="1.1" xmlns="http://www.w3.org/2000/svg" xmlns:xlink="http://www.w3.org/1999/xlink" width="32" height="32" viewBox="0 0 32 32">
<g id="icomoon-ignore">
	<line stroke-width="1" x1="" y1="" x2="" y2="" stroke="#449FDB" opacity=""></line>
</g>
	<path d="M19.563 16.012l3.523-3.542c0.292-0.292 0.291-0.765 0-1.058-0.292-0.291-0.765-0.291-1.057 0l-5.622 5.622c-0.223 0.224-0.596 0.224-0.824 0l-5.613-5.622c-0.291-0.291-0.764-0.291-1.056 0-0.292 0.292-0.292 0.765 0 1.058l3.517 3.542-3.521 3.518c-0.291 0.292-0.291 0.764 0 1.056 0.292 0.294 0.766 0.294 1.057 0l3.515-3.514c0 0 1.093 1.107 1.297 1.309 0.312 0.311 0.742 0.502 1.219 0.502 0.47 0 0.9-0.188 1.213-0.492 0.199-0.199 1.299-1.318 1.299-1.318l3.519 3.514c0.292 0.292 0.764 0.292 1.057 0 0.292-0.292 0.292-0.764 0-1.056l-3.522-3.518z" fill="#000000"></path>
	<path d="M16 0.146c-8.757 0-15.855 7.099-15.855 15.854s7.099 15.854 15.854 15.854c8.757 0 15.855-7.099 15.855-15.854 0.001-8.756-7.098-15.854-15.854-15.854zM25.229 21.191c0 0.851-0.689 1.538-1.538 1.538h-15.383c-0.851 0-1.538-0.687-1.538-1.538v-10.382c0-0.85 0.689-1.538 1.538-1.538h15.382c0.851 0 1.538 0.689 1.538 1.538v10.382z" fill="#000000"></path>
</svg>
