<?xml version="1.0" encoding="utf-8"?>
<!-- Generated by IcoMoon.io -->
<!DOCTYPE svg PUBLIC "-//W3C//DTD SVG 1.1//EN" "http://www.w3.org/Graphics/SVG/1.1/DTD/svg11.dtd">
<svg version="1.1" xmlns="http://www.w3.org/2000/svg" xmlns:xlink="http://www.w3.org/1999/xlink" width="21" height="32" viewBox="0 0 21 32">
<g id="icomoon-ignore">
	<line stroke-width="1" x1="" y1="" x2="" y2="" stroke="#449FDB" opacity=""></line>
</g>
	<path d="M16.228 21.589c-0.818 0-1.593 0.189-2.282 0.527l-3.993-3.993c0.294-0.65 0.459-1.373 0.459-2.134 0-0.763-0.165-1.486-0.459-2.136l3.976-3.976c0.693 0.342 1.473 0.536 2.299 0.536 2.876 0 5.208-2.332 5.208-5.208s-2.332-5.207-5.208-5.207-5.205 2.33-5.205 5.205c0 0.698 0.138 1.361 0.385 1.968l-4.066 4.066c-0.65-0.294-1.373-0.457-2.134-0.457-2.876 0.001-5.208 2.331-5.208 5.207s2.332 5.205 5.208 5.205c0.761 0 1.483-0.165 2.134-0.459l4.074 4.074c-0.251 0.612-0.392 1.282-0.392 1.985 0 2.876 2.33 5.205 5.205 5.205s5.208-2.33 5.208-5.205-2.332-5.205-5.208-5.205z" fill="#000000"></path>
</svg>
