<?xml version="1.0" encoding="utf-8"?>
<!-- Generated by IcoMoon.io -->
<!DOCTYPE svg PUBLIC "-//W3C//DTD SVG 1.1//EN" "http://www.w3.org/Graphics/SVG/1.1/DTD/svg11.dtd">
<svg version="1.1" xmlns="http://www.w3.org/2000/svg" xmlns:xlink="http://www.w3.org/1999/xlink" width="32" height="32" viewBox="0 0 32 32">
<g id="icomoon-ignore">
	<line stroke-width="1" x1="" y1="" x2="" y2="" stroke="#449FDB" opacity=""></line>
</g>
	<path d="M27.047 9.492c-0.067-0.224-0.245-0.399-0.472-0.459-0.229-0.063-0.469 0.004-0.636 0.168l-3.488 3.409-2.552-0.511-0.508-2.543 3.527-3.447c0.168-0.164 0.237-0.404 0.183-0.632s-0.224-0.411-0.448-0.481c-0.708-0.221-1.357-0.331-1.985-0.331-3.676 0-6.667 2.991-6.667 6.667 0 0.431 0.051 0.867 0.157 1.347-0.749 0.617-1.461 1.149-2.268 1.752-1.153 0.861-2.46 1.836-4.243 3.341-1.047 0.915-1.647 2.212-1.647 3.56 0 2.573 2.093 4.667 4.667 4.667 1.361 0 2.657-0.608 3.549-1.667 1.532-1.796 2.521-3.115 3.392-4.279 0.589-0.788 1.109-1.481 1.711-2.213 0.48 0.108 0.917 0.159 1.348 0.159 3.676 0 6.667-2.991 6.667-6.667 0-0.583-0.091-1.167-0.287-1.841zM10.667 22.667c-0.737 0-1.333-0.596-1.333-1.333s0.596-1.333 1.333-1.333 1.333 0.596 1.333 1.333-0.596 1.333-1.333 1.333z" fill="#000000"></path>
</svg>
