<?xml version="1.0" encoding="utf-8"?>
<!-- Generated by IcoMoon.io -->
<!DOCTYPE svg PUBLIC "-//W3C//DTD SVG 1.1//EN" "http://www.w3.org/Graphics/SVG/1.1/DTD/svg11.dtd">
<svg version="1.1" xmlns="http://www.w3.org/2000/svg" xmlns:xlink="http://www.w3.org/1999/xlink" width="32" height="32" viewBox="0 0 32 32">
<g id="icomoon-ignore">
	<line stroke-width="1" x1="" y1="" x2="" y2="" stroke="#449FDB" opacity=""></line>
</g>
	<path d="M16 0c-8.836 0-16 7.164-16 16 0 8.835 7.164 15.999 16 15.999s16-7.164 16-15.999c0-8.836-7.164-16-16-16zM22.506 13.108c0.006 0.136 0.010 0.273 0.010 0.409 0 4.164-3.17 8.965-8.967 8.965-1.778 0-3.436-0.521-4.83-1.418 0.247 0.030 0.498 0.045 0.752 0.045 1.477 0 2.835-0.503 3.915-1.351-1.378-0.024-2.544-0.935-2.945-2.186 0.192 0.036 0.39 0.056 0.592 0.056 0.289 0 0.567-0.039 0.83-0.109-1.44-0.289-2.528-1.564-2.528-3.090 0-0.015 0-0.027 0.002-0.039 0.425 0.236 0.911 0.376 1.427 0.394-0.844-0.565-1.4-1.528-1.4-2.624 0-0.578 0.155-1.119 0.427-1.584 1.553 1.908 3.877 3.164 6.495 3.294-0.053-0.23-0.081-0.47-0.081-0.718 0-1.741 1.411-3.153 3.152-3.153 0.906 0 1.725 0.382 2.3 0.995 0.719-0.139 1.394-0.401 2.002-0.762-0.236 0.735-0.735 1.353-1.386 1.744 0.639-0.077 1.245-0.244 1.81-0.497-0.422 0.63-0.958 1.186-1.573 1.631h-0.004z" fill="#000000"></path>
</svg>
