<?xml version="1.0" encoding="utf-8"?>
<!-- Generator: Adobe Illustrator 16.0.0, SVG Export Plug-In . SVG Version: 6.00 Build 0)  -->
<!DOCTYPE svg PUBLIC "-//W3C//DTD SVG 1.1//EN" "http://www.w3.org/Graphics/SVG/1.1/DTD/svg11.dtd">
<svg version="1.1" id="Layer_1" xmlns="http://www.w3.org/2000/svg" xmlns:xlink="http://www.w3.org/1999/xlink" x="0px" y="0px"
	 width="30.72px" height="30.72px" viewBox="0.64 75.912 30.72 30.72" enable-background="new 0.64 75.912 30.72 30.72"
	 xml:space="preserve">
<g transform="translate(0 0)">
	<path fill="#FFFFFF" d="M16,75.912c-8.483,0-15.36,6.877-15.36,15.36c0,8.482,6.877,15.359,15.36,15.359s15.36-6.877,15.36-15.359
		C31.36,82.789,24.483,75.912,16,75.912z M22.246,88.496c0.006,0.131,0.01,0.262,0.01,0.393c0,3.997-3.043,8.606-8.608,8.606
		c-1.707,0-3.299-0.5-4.637-1.361c0.237,0.029,0.478,0.043,0.722,0.043c1.418,0,2.722-0.483,3.758-1.297
		c-1.323-0.023-2.442-0.898-2.827-2.099c0.184,0.035,0.374,0.054,0.568,0.054c0.277,0,0.544-0.037,0.797-0.105
		c-1.382-0.277-2.427-1.501-2.427-2.966c0-0.014,0-0.026,0.002-0.037c0.408,0.227,0.875,0.361,1.37,0.378
		c-0.81-0.542-1.344-1.467-1.344-2.519c0-0.555,0.149-1.074,0.41-1.521c1.491,1.832,3.722,3.037,6.235,3.162
		c-0.051-0.221-0.078-0.451-0.078-0.689c0-1.671,1.355-3.027,3.026-3.027c0.87,0,1.656,0.367,2.208,0.955
		c0.69-0.133,1.338-0.385,1.922-0.732c-0.227,0.706-0.706,1.299-1.331,1.674c0.613-0.074,1.195-0.234,1.738-0.477
		c-0.405,0.605-0.92,1.139-1.51,1.566H22.246z"/>
</g>
</svg>
