<svg viewBox="0 0 24 24" fill="none" xmlns="http://www.w3.org/2000/svg">
<g clip-path="url(#clip0_7148_70212)">
<path d="M11.999 23.9998C18.6264 23.9998 23.999 18.6272 23.999 11.9998C23.999 5.37234 18.6264 -0.000244141 11.999 -0.000244141C5.37161 -0.000244141 -0.000976562 5.37234 -0.000976562 11.9998C-0.000976562 18.6272 5.37161 23.9998 11.999 23.9998Z" fill="#F0F0F0"/>
<path d="M11.998 0C8.0721 0 4.58671 1.88545 2.39746 4.8H21.5985C19.4092 1.88545 15.9239 0 11.998 0Z" fill="#D80027"/>
<path d="M11.998 24C15.9239 24 19.4092 22.1145 21.5985 19.2H2.39746C4.58671 22.1145 8.0721 24 11.998 24Z" fill="#D80027"/>
<path d="M-0.00195312 11.9999C-0.00195312 12.8218 0.0809219 13.6244 0.238375 14.3999H23.7578C23.9153 13.6244 23.998 12.8218 23.998 11.9999C23.998 11.1779 23.9152 10.3753 23.7578 9.59985H0.238375C0.0809219 10.3753 -0.00195312 11.1779 -0.00195312 11.9999H-0.00195312Z" fill="#D80027"/>
<path d="M3.51373 3.51465C-1.17255 8.20093 -1.17255 15.7989 3.51373 20.4853C5.45028 18.5487 7.31277 16.6862 11.999 12L3.51373 3.51465Z" fill="#0052B4"/>
<path d="M4.85597 8.86938L5.63292 11.2608H8.14758L6.1133 12.7388L6.8902 15.1303L4.85597 13.6523L2.82164 15.1303L3.59873 12.7388L1.56445 11.2608H4.07892L4.85597 8.86938Z" fill="#F0F0F0"/>
</g>
<defs>
<clipPath id="clip0_7148_70212">
<rect width="24" height="24" fill="white"/>
</clipPath>
</defs>
</svg>
