<svg viewBox="0 0 24 24" fill="none" xmlns="http://www.w3.org/2000/svg">
<g clip-path="url(#clip0_7148_70630)">
<path d="M12.0005 0C11.1045 0 10.2317 0.0990469 9.39184 0.285234L8.87012 12L9.39184 23.7147C10.2318 23.9009 11.1046 24 12.0005 24C18.6279 24 24.0005 18.6274 24.0005 12C24.0004 5.37258 18.6279 0 12.0005 0V0Z" fill="#496E2D"/>
<path d="M3.13041 3.91748C1.18584 6.05011 0 8.88651 0 12C0 15.1136 1.18589 17.95 3.13045 20.0827L3.65217 12L3.13041 3.91748Z" fill="#496E2D"/>
<path d="M17.5502 9.05156C18.1406 7.40596 17.4773 5.61623 16.0539 4.72485C16.3099 4.75818 16.5662 4.81846 16.8191 4.90917C18.7177 5.59035 19.7046 7.68154 19.0234 9.58007C18.3422 11.4787 16.2511 12.4656 14.3525 11.7844C14.0995 11.6936 13.8633 11.5771 13.6445 11.4401C15.31 11.657 16.9598 10.6972 17.5502 9.05156Z" fill="#F0F0F0"/>
<path d="M14.2756 4.27368L13.7626 4.93659L12.9737 4.65351L13.4456 5.34623L12.9326 6.00904L13.7372 5.77438L14.2092 6.46701L14.2345 5.62926L15.0391 5.39456L14.2503 5.11157L14.2756 4.27368Z" fill="#F0F0F0"/>
<path d="M15.6614 6.43384L15.1484 7.0967L14.3595 6.81362L14.8314 7.50634L14.3184 8.16915L15.123 7.9344L15.5949 8.62717L15.6203 7.78937L16.4249 7.55462L15.636 7.27159L15.6614 6.43384Z" fill="#F0F0F0"/>
<path d="M11.8333 5.0603L11.3202 5.72312L10.5313 5.44013L11.0032 6.1328L10.4902 6.79566L11.2948 6.56096L11.7667 7.25363L11.7921 6.41588L12.5967 6.18118L11.8079 5.8981L11.8333 5.0603Z" fill="#F0F0F0"/>
<path d="M11.7767 7.53467L11.2637 8.19753L10.4747 7.9145L10.9467 8.60721L10.4336 9.27003L11.2383 9.03537L11.7102 9.728L11.7355 8.89025L12.5402 8.65554L11.7513 8.37246L11.7767 7.53467Z" fill="#F0F0F0"/>
<path d="M14.1311 8.37939L13.6181 9.04221L12.8292 8.75918L13.3012 9.45189L12.7881 10.1147L13.5928 9.88L14.0647 10.5727L14.09 9.73488L14.8947 9.50022L14.1057 9.21719L14.1311 8.37939Z" fill="#F0F0F0"/>
<path d="M3.12988 3.91731V20.0825C4.76488 21.8756 6.9366 23.1706 9.39074 23.7146V0.285156C6.93656 0.829188 4.76493 2.12411 3.12988 3.91731Z" fill="#D80027"/>
<path d="M5.51985 6.31797L4.47168 5.53713V4.4329L5.51985 3.6521H7.00227L8.05045 4.4329V5.53713L7.00227 6.31797H5.51985Z" fill="#F0F0F0"/>
<path d="M6.26109 3.65234H5.51985L4.47168 4.43314V4.973H6.26109V3.65234Z" fill="#FF9811"/>
<path d="M6.26074 6.31826H7.00193L8.0501 5.53742V4.97412H6.26074V6.31826Z" fill="#FF9811"/>
<path d="M5.51985 20.3478L4.47168 19.5669V18.4627L5.51985 17.6819H7.00227L8.05045 18.4627V19.5669L7.00227 20.3478H5.51985Z" fill="#F0F0F0"/>
<path d="M6.26109 17.6821H5.51985L4.47168 18.463V19.0028H6.26109V17.6821Z" fill="#FF9811"/>
<path d="M6.26074 20.348H7.00193L8.0501 19.5672V19.0039H6.26074V20.348Z" fill="#FF9811"/>
<path d="M5.51985 13.3329L4.47168 12.552V11.4478L5.51985 10.667H7.00227L8.05045 11.4478V12.552L7.00227 13.3329H5.51985Z" fill="#496E2D"/>
<path d="M8.08767 15.0509H7.63111V14.5944H6.82884L6.26156 14.0271L5.69433 14.5944H4.89206V15.0509H4.43555V15.9639H4.89206V16.4204H5.69428L6.26161 16.9878L6.82884 16.4204H7.63111V15.9639H8.08767V15.0509Z" fill="#496E2D"/>
<path d="M8.08767 8.03605H7.63111V7.57949H6.82884L6.26156 7.01221L5.69433 7.57949H4.89206V8.03605H4.43555V8.94908H4.89206V9.4056H5.69428L6.26161 9.97297L6.82884 9.4056H7.63111V8.94908H8.08767V8.03605Z" fill="#496E2D"/>
<path d="M5.73828 11.4785H6.78177V12.522H5.73828V11.4785Z" fill="#D80027"/>
<path d="M6.26 9.01414C6.54814 9.01414 6.78172 8.78056 6.78172 8.49242C6.78172 8.20428 6.54814 7.9707 6.26 7.9707C5.97186 7.9707 5.73828 8.20428 5.73828 8.49242C5.73828 8.78056 5.97186 9.01414 6.26 9.01414Z" fill="#D80027"/>
<path d="M6.26 16.0295C6.54814 16.0295 6.78172 15.7959 6.78172 15.5078C6.78172 15.2197 6.54814 14.9861 6.26 14.9861C5.97186 14.9861 5.73828 15.2197 5.73828 15.5078C5.73828 15.7959 5.97186 16.0295 6.26 16.0295Z" fill="#D80027"/>
</g>
<defs>
<clipPath id="clip0_7148_70630">
<rect width="24" height="24" fill="white"/>
</clipPath>
</defs>
</svg>
