<?xml version="1.0" encoding="utf-8"?>
<!-- Generator: Adobe Illustrator 18.0.0, SVG Export Plug-In . SVG Version: 6.00 Build 0)  -->
<!DOCTYPE svg PUBLIC "-//W3C//DTD SVG 1.1//EN" "http://www.w3.org/Graphics/SVG/1.1/DTD/svg11.dtd">
<svg version="1.1" id="Layer_1" xmlns="http://www.w3.org/2000/svg" x="0px" y="0px"
     viewBox="0 0 188.9 41.3" enable-background="new 0 0 188.9 41.3" xml:space="preserve">
<g>
	<path fill="#888888" d="M42.4,0h-6.1v8.5H13.7V0H7.6v8.5H0v6.1h7.6v11.8H0v6.1h7.6v8.8h6.1v-8.8h22.7v8.8h6.1v-8.8H50v-6.1h-7.6
		V14.6H50V8.5h-7.6V0z M36.3,26.4H13.7V14.6h22.7V26.4z"/>
	<path fill="#888888" d="M100,2.2h-5.9c-0.4,0-0.6,0.2-0.6,0.5v14.5c0,0.2-0.1,0.3-0.4,0.3H77.5c-0.2,0-0.4-0.1-0.4-0.3V2.8
		c0-0.3-0.2-0.5-0.6-0.5h-5.9c-0.4,0-0.6,0.2-0.6,0.5v35.7c0,0.3,0.2,0.5,0.6,0.5h5.9c0.4,0,0.6-0.2,0.6-0.5V23.7
		c0-0.2,0.1-0.3,0.4-0.3h15.6c0.3,0,0.4,0.1,0.4,0.3v14.8c0,0.3,0.3,0.5,0.6,0.5h5.9c0.4,0,0.6-0.2,0.6-0.5V2.8
		C100.6,2.4,100.3,2.2,100,2.2z"/>
	<path fill="#888888" d="M135.3,20l11.3-17.1c0.2-0.4,0.1-0.7-0.4-0.7h-6.5c-0.5,0-0.7,0.2-1,0.5l-7.4,11.2h-0.1l-7.4-11.2
		c-0.2-0.4-0.5-0.5-1-0.5h-6.5c-0.4,0-0.6,0.3-0.4,0.7L127.4,20l-12.2,18.4c-0.2,0.4-0.1,0.7,0.4,0.7h6.5c0.5,0,0.7-0.2,1-0.5
		l8.3-12.5h0.1l8.2,12.5c0.2,0.4,0.5,0.5,1,0.5h6.6c0.4,0,0.6-0.3,0.4-0.7L135.3,20z"/>
	<path fill="#888888" d="M188.3,33.3h-18.8c-0.2,0-0.4-0.1-0.4-0.3V2.8c0-0.3-0.3-0.5-0.6-0.5h-5.9c-0.4,0-0.6,0.2-0.6,0.5v35.7
		c0,0.3,0.2,0.5,0.6,0.5h25.7c0.4,0,0.6-0.2,0.6-0.5v-4.7C188.9,33.5,188.7,33.3,188.3,33.3z"/>
</g>
</svg>
