<?xml version="1.0" encoding="UTF-8"?>
<svg id="work" xmlns="http://www.w3.org/2000/svg" viewBox="0 0 172.53 57.4">
  <defs>
    <style>
      .cls-1 {
        fill: #231f20;
        stroke-width: 0px;
      }
    </style>
  </defs>
  <path class="cls-1" d="m0,0h12.63v22.71h23.29V0h12.63v57.4h-12.63v-23.04H12.63v23.04H0V0Z"/>
  <path class="cls-1" d="m62.32,0h22.39c18.04,0,30.5,12.38,30.5,28.54v.16c0,16.15-12.46,28.7-30.5,28.7h-22.39V0Zm22.39,46c10.33,0,17.3-6.97,17.3-17.14v-.16c0-10.17-6.97-17.3-17.3-17.3h-9.76v34.6h9.76Z"/>
  <path class="cls-1" d="m137.6,28.21L118.41,0h14.76l12.05,18.61L157.36,0h14.35l-19.19,28.04,20.01,29.36h-14.76l-12.87-19.68-12.96,19.68h-14.35l20.01-29.19Z"/>
</svg>