<svg xmlns="http://www.w3.org/2000/svg" viewBox="0 0 41.9 37"><defs><style>.cls-1{fill:#fff;}</style></defs><title>UN Logo</title><g id="Page-1"><g id="Artboard"><g id="ocha-logo"><g id="Group"><path id="Shape" class="cls-1" d="M17.6,15.6a3.3,3.3,0,1,1,3.3,3.3v-.4A2.9,2.9,0,1,0,18,15.6a2.9,2.9,0,0,0,2.9,2.9v.4a3.33,3.33,0,0,1-3.3-3.3"/><path id="Shape-2" data-name="Shape" class="cls-1" d="M15,15.6a6,6,0,1,1,6,6v-.4a5.6,5.6,0,1,0-5.6-5.6A5.59,5.59,0,0,0,21,21.2v.4a6,6,0,0,1-6-6"/><path id="Shape-3" data-name="Shape" class="cls-1" d="M12.1,15.6A8.9,8.9,0,1,1,21,24.5V24a8.54,8.54,0,0,0,8.5-8.4,8.5,8.5,0,1,0-17,0A8.41,8.41,0,0,0,21,24v.4a8.77,8.77,0,0,1-8.9-8.8"/><path id="Shape-4" data-name="Shape" class="cls-1" d="M9.3,15.6A11.65,11.65,0,1,1,21,27.2v-.4A11.2,11.2,0,1,0,9.8,15.6,11.18,11.18,0,0,0,21,26.8v.4A11.63,11.63,0,0,1,9.3,15.6"/><path id="Shape-5" data-name="Shape" class="cls-1" d="M6.3,15.6A14.7,14.7,0,1,1,21,30.3v-.4A14.3,14.3,0,1,0,6.7,15.6,14.3,14.3,0,0,0,21,29.9v.4A14.66,14.66,0,0,1,6.3,15.6"/><rect id="Rectangle-path" class="cls-1" x="20.7" y="1.1" width="0.4" height="11.4"/><polygon id="Shape-6" data-name="Shape" class="cls-1" points="10.6 5.5 10.9 5.2 18.9 13.2 18.6 13.5 10.6 5.5"/><rect id="Rectangle-path-2" data-name="Rectangle-path" class="cls-1" x="6.5" y="15.4" width="11.4" height="0.4"/><polygon id="Shape-7" data-name="Shape" class="cls-1" points="10.6 25.7 18.6 17.7 18.9 18 10.9 26 10.6 25.7"/><rect id="Rectangle-path-3" data-name="Rectangle-path" class="cls-1" x="20.7" y="18.7" width="0.4" height="11.4"/><rect id="Rectangle-path-4" data-name="Rectangle-path" class="cls-1" x="26.94" y="16.11" width="0.4" height="11.3" transform="translate(-7.45 25.47) rotate(-44.83)"/><rect id="Rectangle-path-5" data-name="Rectangle-path" class="cls-1" x="24.1" y="15.4" width="11.4" height="0.4"/><polygon id="Shape-8" data-name="Shape" class="cls-1" points="23 13.2 31.1 5.2 31.3 5.5 23.3 13.5 23 13.2"/><path id="Shape-9" data-name="Shape" class="cls-1" d="M18.7,16.5c.1,0,.1.1.1.2h.1a2.51,2.51,0,0,0,.4-.7.1.1,0,0,0,.1-.1c0-.1-.2-.2-.2-.3-.1.2-.3,0-.4.1v.1h.1V16h0a.37.37,0,0,0-.3-.1c.1,0,0,0,0,.1a.75.75,0,0,0-.5.1c-.1,0-.1,0-.2-.1-.1.1-.1.2-.2.2l-.1-.1c.1-.1.2-.1.2-.2v-.3c.1-.1.1-.2.2-.2s.3.1.4,0l.1.1v.1c-.1.1-.2.1-.2.2s0,.1.1.1.1-.1.2-.1.1,0,.1,0H19c.1,0,.1-.3,0-.4v-.2c0-.1.2-.1.2,0v.1s0,.1.1,0h0v-.2a.35.35,0,0,0,.2.1h.2c.1,0,.1-.1,0-.2h-.1a.31.31,0,0,1-.2.1c-.1,0-.1-.1-.2-.1s-.2.1-.2,0-.1-.1-.1-.2l.1-.1a.37.37,0,0,0,.3-.1.35.35,0,0,1,.1-.2h.1a.37.37,0,0,0,.3-.1c.1,0,.2-.1.3-.2s.1-.1.2-.1a.1.1,0,0,1,.1-.1v-.5a.1.1,0,0,1,.1-.1h-.1s-.1-.1,0-.1.2,0,.2-.1a.19.19,0,0,0-.1-.3c-.1-.1-.2,0-.3,0a.1.1,0,0,1-.1.1c-.1,0-.2-.1-.1-.2h0v-.1h-.1l-.3.3V13h0c0,.1,0,.2-.1.2h-.1c0,.1.2.1.1.2s-.2.1-.4.2a2.72,2.72,0,0,1-.9,0h-.5c-.1,0-.1.1-.2.2h0v-.2c0-.1-.1,0-.1-.1-.2-.4-.7-.3-1.1-.3a.1.1,0,0,0-.1.1c-.1.1-.2,0-.3,0l-.1.1c-.1,0-.2-.1-.3,0s-.1.1-.2.1v.1h-.1c-.1,0-.3,0-.3.1h0c0,.1,0,.3-.1.3a.6.6,0,0,0-.4.1c-.1,0-.1.1-.2.1a2.45,2.45,0,0,0-.4,1.2h0v.1c-.2.4-.3.6-.6,1.1-.1.2-.2.6,0,.7s0,.2-.2.2-.4,0-.4-.2-.2-.1-.3-.1h-.4c-.2,0-.2.3-.3.4s-.3.1-.3.2V18a.1.1,0,0,0-.1.1v.1c0,.2-.1.3,0,.5v.1a.9.9,0,0,1-.1.5c-.1.2-.3.2-.5.2h-1c-.1,0-.1-.1-.2-.1a.31.31,0,0,1-.1-.2c-.1-.1-.3,0-.4.1.1,0,0,.1,0,.1s-.2.1-.3.2-.2-.2-.2-.3-.1-.1-.2-.1v.1H8.1c-.1.1.1.1.1.1v.1H8.1a.1.1,0,0,1-.1.1H8c-.1,0-.1.1-.1,0v-.2H7.8c0,.1,0,.1-.1.1v.1h.2a.37.37,0,0,1,.1.3H8c0,.1,0,.2-.1.1s0-.2,0-.3H7.8c.1.2-.1.3.1.5s-.2.2-.1.2a.35.35,0,0,0,.2.1v-.1s.1-.1.1,0v.1H8v.4c0,.1.2,0,.2.1s-.1.1,0,.2a.1.1,0,0,1,.1.1v.1a.1.1,0,0,1,.1.1c.1,0,.1,0,.1-.1s.1-.1.1-.2,0-.1-.1,0V21c0-.1-.1-.1-.1-.2s.1,0,.2-.1a.1.1,0,0,1,.1.1v.1a.1.1,0,0,1,.1.1c.1,0,.1.1.2.2h.3v-.1l.1.1a.37.37,0,0,0,.1.3h.1l.1.1h.1a.1.1,0,0,1,.1.1h0c.1,0,.2,0,.2.1s.1.2.2.4a29772.51,29772.51,0,0,1,.2.2.37.37,0,0,0,.3.1.35.35,0,0,1,.2-.1h.1c.1.2.1.4.3.4s.1.1.2.2h.2a.1.1,0,0,0,.1.1c.1.1.2.1.2.2v.1c.1,0,.2-.1.2,0s.2.1.2.2h.1v-.1c0-.1.1,0,.2-.1s.1-.2.1-.2.2.1.3.2h.1c.1.1.1.3.2.3s.2.1.4.2.2.1.3.1h.1c.1,0,.1,0,.2-.1s.3-.1.4-.2l.1-.1c.2-.1.5.1.7,0s.1,0,.2-.1.2-.3.1-.4-.2-.5-.3-.7l-.3-.3h-.1c-.1,0-.1-.1-.1-.2a.1.1,0,0,1-.1-.1v-.3c-.1,0-.2-.1-.4-.1a.1.1,0,0,1-.1-.1v-.1a.37.37,0,0,1,.3-.1v-.3a.1.1,0,0,0-.1-.1c0-.1.1-.2,0-.3s-.2-.2-.2-.3a.1.1,0,0,1-.1-.1v-.5c0-.1-.1-.1,0-.2l.1-.1c.1,0,.1-.1.1-.2a.14.14,0,0,0-.2,0v-.3l-.1-.1v-.2s0-.1-.1,0v-.2c0-.1-.1-.2-.2-.1h0a.14.14,0,0,1-.2,0V18a.1.1,0,0,0,.1-.1.14.14,0,0,0,0-.2c-.1-.1-.2-.2-.1-.3-.1,0-.3,0-.3-.2s0-.3-.1-.4v-.3a.1.1,0,0,1,.1-.1c.2,0,.4,0,.4-.1s-.1-.3,0-.3.4,0,.6-.2c.1,0,.1-.1,0-.2a.35.35,0,0,0-.1-.2c-.1-.1-.2,0-.3-.2V15c0-.1.1-.1.2-.2s.3,0,.5.1l.1.1v.1c0,.2.1.4,0,.6s-.1.1-.1.2H15c0,.1.1.3,0,.4s-.1,0-.3,0-.1,0-.1.1l.1.1c.4.1.5.1.9.2.1,0,.1.1.2.1h.3a.1.1,0,0,0,.1.1c.1.1.1.3.2.3a.14.14,0,0,1,.2,0c-.1.1,0,.2,0,.3s.2.1.3.2.2.1.2,0-.1-.2,0-.3c.1.2,0,.4.1.6h0c.1.1.1.2.2.2s.1-.1.1-.2v-.1c0-.1,0-.1.1-.2s.1-.2.1-.3v-.1c0-.1.2-.2.3-.2V17c.1,0,0-.2.1-.2s.1-.1.1-.2.1-.1,0-.1c.5.1.5,0,.5,0"/><path id="Shape-10" data-name="Shape" class="cls-1" d="M14.5,16.3h-.1v.1l.1.1v.3c0,.1.1.2.2.1s.2-.3.1-.4-.1-.1-.3-.2"/><path id="Shape-11" data-name="Shape" class="cls-1" d="M14.3,17.2h0c.1.2.2.1.3.1v-.1c-.1-.1-.1-.1-.3,0,.1-.1,0-.1,0-.1v.1"/><path id="Shape-12" data-name="Shape" class="cls-1" d="M14.6,17.6c0-.2-.1-.2-.2-.1s0,.3.1.4a.1.1,0,0,0,.1.1c0,.1.1,0,.2,0s0-.1.1-.1c-.1-.1-.2-.3-.3-.3"/><path id="Shape-13" data-name="Shape" class="cls-1" d="M14.3,16.8c0-.1-.1-.1,0,0-.1,0-.1,0-.1.1s0,.2.1.2a.1.1,0,0,0,.1-.1c-.1-.1-.1-.1-.1-.2"/><path id="Shape-14" data-name="Shape" class="cls-1" d="M14.7,17.4l.1-.1h.1v-.1c-.1,0-.1.1-.2.1s0,.1,0,.1"/><path id="Shape-15" data-name="Shape" class="cls-1" d="M14.6,18.3c0,.1,0,.1.1.1h.1v-.1h-.2"/><path id="Shape-16" data-name="Shape" class="cls-1" d="M14.8,19c0-.1.1-.1,0-.2h-.1a.35.35,0,0,0,.1.2"/><path id="Shape-17" data-name="Shape" class="cls-1" d="M8.5,21.5v.1h.2c-.1,0-.1-.2-.2-.1"/><path id="Shape-18" data-name="Shape" class="cls-1" d="M9.1,22.2c-.1.1.1.2.2.2v-.2a.14.14,0,0,0-.2,0"/><path id="Shape-19" data-name="Shape" class="cls-1" d="M9.4,22.6c0,.2.1.3.2.3.1-.2,0-.3-.2-.3"/><path id="Shape-20" data-name="Shape" class="cls-1" d="M19.5,17.4a1.27,1.27,0,0,1,.6-.1c.4,0,.4-.6.6-.9a.6.6,0,0,0-.1-.4c-.1-.2-.6,0-.7-.2s.3.1.3-.1,0-.1-.1-.2h-.2a2,2,0,0,0-.4.8,5.38,5.38,0,0,0-.9,1.2c0,.1,0,.1.1.2.3.1.6-.2.8-.3"/><path id="Shape-21" data-name="Shape" class="cls-1" d="M21.3,16.4c-.1,0-.1,0-.2.1v.2h.1c0-.1,0-.1-.1-.1.2-.1.2-.2.2-.2"/><path id="Shape-22" data-name="Shape" class="cls-1" d="M20,17.9c.1.2.5.1.5,0s-.3-.2-.4-.2.1.1-.1.2"/><path id="Shape-23" data-name="Shape" class="cls-1" d="M20.5,19.2a.37.37,0,0,0,.1-.3l-.3.3h.2"/><path id="Shape-24" data-name="Shape" class="cls-1" d="M22.3,16.5v-.1h-.2c-.1,0-.1-.1-.1-.2s-.1-.2-.1-.3-.1.2-.1.2c.2.2.3.5.5.4"/><path id="Shape-25" data-name="Shape" class="cls-1" d="M19.9,15.3c-.1-.1-.1,0,0,0-.1.1,0,.1,0,0h0"/><path id="Shape-26" data-name="Shape" class="cls-1" d="M8.1,19.1A.1.1,0,0,0,8,19H7.9v.1a.14.14,0,0,0,.2,0"/><path id="Shape-27" data-name="Shape" class="cls-1" d="M8.8,19.1c.1,0,.2-.1.1-.2h0c-.1-.1-.3,0-.2.1-.1.1,0,.2.1.1"/><path id="Shape-28" data-name="Shape" class="cls-1" d="M20.2,12.1c0-.1.1-.1.1-.2h-.1c-.1,0-.1.1,0,.2h0"/><path id="Shape-29" data-name="Shape" class="cls-1" d="M20.5,12s.1-.1,0-.1h-.1a.1.1,0,0,0,.1.1"/><path id="Shape-30" data-name="Shape" class="cls-1" d="M19.4,14.6c0,.1.2.3.3.2a.14.14,0,0,0,0-.2.19.19,0,0,0-.3,0"/><path id="Shape-31" data-name="Shape" class="cls-1" d="M19.7,15.4v-.1h-.3a.1.1,0,0,0,.1.1c0-.1.1,0,.2,0"/><path id="Shape-32" data-name="Shape" class="cls-1" d="M19.4,15.6c-.1,0,0,.1,0,.2s.1,0,.2-.1.1-.2,0-.2-.2,0-.2.1"/><path id="Shape-33" data-name="Shape" class="cls-1" d="M19.2,15.3c0,.1-.1.2,0,.3s.1,0,.1,0,0-.2.1-.2h-.1v-.1h-.1"/><path id="Shape-34" data-name="Shape" class="cls-1" d="M26.8,22.4c.1,0,0-.1,0,0h0"/><path id="Shape-35" data-name="Shape" class="cls-1" d="M21,18.5h0l-.1-.1c0-.1-.1.1-.2,0h0c.1.1,0,.1-.1.2a.1.1,0,0,0,.1.1c0,.1-.1.1,0,.2l-.1.1s-.1.1,0,.1.2-.1.3-.1H21c.1,0,.1-.1.2-.2H21s-.1,0,0-.3h0"/><path id="Shape-36" data-name="Shape" class="cls-1" d="M21.6,20.4c0,.1.1.1,0,0,.1,0,.1-.1.1-.2h-.1v.2"/><path id="Shape-37" data-name="Shape" class="cls-1" d="M21.7,20.2c.1,0,0-.1,0-.1h-.1a.1.1,0,0,0,.1.1"/><path id="Shape-38" data-name="Shape" class="cls-1" d="M22.3,20.5h0c-.1,0-.1-.1-.2,0H22v.1c.2-.1.2-.1.3-.1"/><path id="Shape-39" data-name="Shape" class="cls-1" d="M23.3,20.4v-.1c-.1,0-.2.1-.3,0v.1h-.1c.2.1.3,0,.4,0"/><path id="Shape-40" data-name="Shape" class="cls-1" d="M23.7,20c0,.2.2.1.2,0s0-.1-.2,0l.1-.1a.1.1,0,0,1-.1.1"/><path id="Shape-41" data-name="Shape" class="cls-1" d="M28.5,16.8c0,.1.1.1.2.1a.37.37,0,0,0,.3-.1.27.27,0,0,0-.3-.3c-.2.1-.2.2-.2.3"/><path id="Shape-42" data-name="Shape" class="cls-1" d="M28.5,21.9h-.1c-.1.5-.6,1.2,0,1.5.2.2.5-.1.6-.3s0-1-.5-1.2"/><path id="Shape-43" data-name="Shape" class="cls-1" d="M27,19.7c-.1,0-.1.2,0,.2a.1.1,0,0,0,.1-.1v-.1H27"/><path id="Shape-44" data-name="Shape" class="cls-1" d="M27.4,24.8V25s.2-.1,0-.2h0"/><path id="Shape-45" data-name="Shape" class="cls-1" d="M29.7,13.1h-.1v.2c-.2.4-.7.9-.4,1.4h0a1.38,1.38,0,0,0,.3-.4,10.37,10.37,0,0,0,.4-1s-.1-.2-.2-.2"/><path id="Shape-46" data-name="Shape" class="cls-1" d="M28.8,14.9c0,.1,0,.1.1.1s.1-.1,0-.1,0-.1-.1,0"/><path id="Shape-47" data-name="Shape" class="cls-1" d="M23.7,11.8c-.1-.2-.2,0-.3,0l-.1-.1h-.1c-.1,0,0,.2.1.2s.1-.1.1,0,0,.3.2.2.2-.1.3-.1.1-.1.1-.2.2-.1.3,0a.1.1,0,0,0,.1.1c0,.1.1.1.2.1a.37.37,0,0,0,.3-.1.19.19,0,0,0,0-.3h-.2c-.1,0-.1-.1-.2-.1-.4-.1-.6.2-.8.3"/><path id="Shape-48" data-name="Shape" class="cls-1" d="M22.7,12H23c0-.2-.2-.1-.3-.1.1-.1.1,0,0,.1h0"/><path id="Shape-49" data-name="Shape" class="cls-1" d="M23.1,12.6c.1-.1.3-.2.4-.3v-.1h0c0-.1-.1-.1-.2-.2a.1.1,0,0,1-.1.1c-.1.1-.2.1-.2.2v.2c.1.3.1.2.1.1"/><path id="Shape-50" data-name="Shape" class="cls-1" d="M21.6,11.6v.1c.1.1.1,0,0-.1h0"/><path id="Shape-51" data-name="Shape" class="cls-1" d="M18,9.4a.6.6,0,0,0,.4.1l.1-.1c-.1-.1-.2,0-.2-.1h-.1c-.1-.1-.2,0-.2.1h0"/><path id="Shape-52" data-name="Shape" class="cls-1" d="M27.1,11c0,.1-.1,0-.2.1v.1c.1.1.2,0,.3,0h0s.1-.1.1,0v.1a.1.1,0,0,0-.1.1h-.3v.2c-.1.1-.4.2-.3.4a.75.75,0,0,0,.5.1h0c0-.2.1-.2.2-.3a.1.1,0,0,0-.1-.1v-.1a.1.1,0,0,0,.1-.1v-.1a.35.35,0,0,0,.2-.1c0-.1-.1-.2-.1-.3a.1.1,0,0,1,.1-.1v-.1h-.1s-.1,0,0,.1a.37.37,0,0,0-.3.1c0-.2.1,0,0,0"/><path id="Shape-53" data-name="Shape" class="cls-1" d="M26.1,12c0,.1.1.1.2,0h-.2"/><path id="Shape-54" data-name="Shape" class="cls-1" d="M27.5,11.8c-.1.1.1.1.2.1h0c0-.1-.1-.1-.2-.1"/><path id="Shape-55" data-name="Shape" class="cls-1" d="M27.9,11.3h0c-.1,0-.1.1,0,0h0"/><path id="Shape-56" data-name="Shape" class="cls-1" d="M25.6,7.3c.1.1.2.1.2.2v.4l.1.1v.2c0,.1.1.3.1.4a.1.1,0,0,1,.1.1c0,.1,0,.1.1.2s.1,0,.2.1.2.3.3.4a.1.1,0,0,1,.1.1v.1c.2,0,.5.1.4.4.1-.1.2-.1.2-.2s.1-.3,0-.4-.1-.1-.2-.2V9a.1.1,0,0,0-.1-.1c0-.1-.1-.3.1-.3V8.5H27V8.4a.35.35,0,0,0-.4-.4c-.1-.1-.1-.1-.2-.1h-.2a2.09,2.09,0,0,1-.4-.6.19.19,0,0,0-.3,0c.1-.1.1-.1.1,0h0"/><path id="Shape-57" data-name="Shape" class="cls-1" d="M24.7,7.6a.14.14,0,0,0,0,.2h.4a.1.1,0,0,0,.1-.1c.1-.1.2,0,.4-.1,0,.1,0,.1.1.1s0-.2-.1-.2-.1-.2-.2-.3h-.1c0,.2-.1.1-.3.2v.1h0V7.4h-.2a.35.35,0,0,1-.1.2"/><path id="Shape-58" data-name="Shape" class="cls-1" d="M22.4,3.7c-.1-.2-.3-.4-.2-.7a1.39,1.39,0,0,0,.9,0c.2-.1.5,0,.7-.1V2.7c-.3.1-.5-.2-.7-.1a3.18,3.18,0,0,1-.9.3c-.2.1-.9,0-.9.4.3,0,.7,0,.9.3,0,.1.1.1.2.1"/><path id="Shape-59" data-name="Shape" class="cls-1" d="M23.4,5.2a.4.4,0,0,0,.4.2c0-.1,0-.1-.1-.2h-.3"/><path id="Shape-60" data-name="Shape" class="cls-1" d="M23.1,5.7c-.1,0,0,.1.1.2,0-.1.1-.3-.1-.2"/><path id="Shape-61" data-name="Shape" class="cls-1" d="M22.9,5.4h0c.1-.1,0-.2-.1-.2v.1l.1.1"/><path id="Shape-62" data-name="Shape" class="cls-1" d="M23.8,6.5h0a.31.31,0,0,0,.1-.2h-.1a.14.14,0,0,0,0,.2"/><path id="Shape-63" data-name="Shape" class="cls-1" d="M24.1,6.5v.1c.1.1.1,0,0-.1h0c.1,0,0,.1,0,0"/><path id="Shape-64" data-name="Shape" class="cls-1" d="M24,6.8h0l.1-.1h0c0-.1-.1-.1-.2,0s.1,0,.1.1"/><path id="Shape-65" data-name="Shape" class="cls-1" d="M24.1,6.8h0c0,.1.1.2.2.1s.1-.1,0-.1Z"/><path id="Shape-66" data-name="Shape" class="cls-1" d="M24.6,7h0a.35.35,0,0,0-.1-.2s-.1.1,0,.1,0,.1.1.1"/><path id="Shape-67" data-name="Shape" class="cls-1" d="M24.7,7.3h.1V7.2h0V7.1h-.2v.1l.1.1"/><path id="Shape-68" data-name="Shape" class="cls-1" d="M24.5,7.5h0c.1-.1.1-.1,0-.2h-.1a.1.1,0,0,1-.1.1c.1.1.1.1.2.1"/><path id="Shape-69" data-name="Shape" class="cls-1" d="M24.2,2.5h0c-.1-.1-.1-.1-.2-.1.1.1.1.2.2.1"/><path id="Shape-70" data-name="Shape" class="cls-1" d="M27.6,5c.1.1.2,0,.2.1s.1.2.2.2.1,0,.1-.1,0-.4-.2-.4h-.5c-.1,0-.1.1-.1.2a.19.19,0,0,1,.3,0"/><path id="Shape-71" data-name="Shape" class="cls-1" d="M31.7,10.2c-.1-.1-.1-.3-.2-.4s-.2-.1-.3-.2V9.4l-.1-.1C31,9.1,31,9,30.8,9c0-.2-.1-.2-.3-.3V8.6a.1.1,0,0,0-.1-.1h-.1c-.1-.1-.2-.2-.2-.3s-.2-.2-.3-.3l-.1-.1c-.1,0-.2,0-.2-.1s-.2-.3-.3-.4,0-.4-.1-.7c0-.1-.1-.1-.2-.1a.1.1,0,0,1-.1-.1c-.1-.1,0-.3-.1-.4s-.3-.3-.4-.5a.37.37,0,0,0-.3-.1h-.1l-.1-.1c-.1-.1-.2-.2-.3-.2s-.4,0-.6-.1-.4,0-.5.2-.3.2-.5.2,0,.1,0,.2-.2.2-.1.2H26a.1.1,0,0,1,.1.1c.1.1.2.2.2.3a.14.14,0,0,0,0,.2.37.37,0,0,1,.1.3c0,.1.1,0,.1,0a.25.25,0,0,1,.1.4v.3c.1.2.1.4.2.5l.1-.1c.1,0,.1-.1.2-.1.2-.2.4.2.5.3s0,.4.1.6A1.38,1.38,0,0,0,28,9a.31.31,0,0,0,.1.2l.1.1a.1.1,0,0,1,.1-.1h.1c.2.2.2.6.5.6a.1.1,0,0,0,.1.1c.1,0,.1-.1.2,0a.35.35,0,0,0,.1.2h.3c.1,0,.1.1.2.2l.1.1c.2.2.3.5.5.7s.2.2.3.1v-.1a.22.22,0,0,0,.2-.2l.3-.3h0c.1-.1.2-.1.3-.2.3,0,.2-.2.2-.2"/><path id="Shape-72" data-name="Shape" class="cls-1" d="M27.5,10.3c0,.1.1.1.2.1s.1.2.2.2.1-.1.1-.2h.1c.1-.1,0-.3-.1-.4s-.1-.2-.3-.2-.1,0-.2.1,0,.2,0,.3v.1"/><path id="Shape-73" data-name="Shape" class="cls-1" d="M28.2,10.7c-.1.2,0,.4,0,.6s-.2.1-.2.2a.14.14,0,0,0,0,.2c0,.1.2.1.3.2a1.17,1.17,0,0,1,.6.6.37.37,0,0,1,.1.3c.1.1.2.1.2.2s.1.1.1,0a.3.3,0,0,0,0-.4c-.1-.1-.1-.1-.1-.2a2.35,2.35,0,0,0-.2-.8l-.3-.3v-.1c0-.1.1-.1.1-.2s-.1-.2-.2-.3h0c-.2-.1-.3-.1-.4,0"/><path id="Shape-74" data-name="Shape" class="cls-1" d="M29.7,12.1v-.2c0-.2-.2-.2-.3-.2h-.1v.2a2.93,2.93,0,0,1,.3,1c0,.1.3,0,.3-.1v-.2c0-.1-.1-.1-.1-.2s-.1-.2-.1-.3"/><path id="Shape-75" data-name="Shape" class="cls-1" d="M29.3,11.2c-.1.1,0,.2,0,.3h0c.1,0,.1,0,.1-.1s0-.1-.1-.2h0"/><path id="Shape-76" data-name="Shape" class="cls-1" d="M29.3,11c0-.1,0-.1-.1-.1s-.1.1-.2.1,0,.1.1.2h0c.2,0,.3-.1.2-.2h0"/><path id="Shape-77" data-name="Shape" class="cls-1" d="M28.8,10.5c.1.1,0,.2.1.2s.2.1.3,0,0-.1-.1-.1v-.1H29c-.1-.1.1-.1,0-.2v-.1h-.1v.1c-.1.1-.2.2-.1.2"/><path id="Shape-78" data-name="Shape" class="cls-1" d="M28.7,9.9c-.1,0-.2,0-.2-.1h-.1s-.1.1,0,.1a.1.1,0,0,1,.1.1c0,.1.1,0,.1.1s.1.1.1,0V10h0s.1-.1,0-.1"/><path id="Shape-79" data-name="Shape" class="cls-1" d="M21.6,14.5h0a.14.14,0,0,0,0-.2.1.1,0,0,0-.1.1h0c.1,0,.1,0,.1.1"/><path id="Shape-80" data-name="Shape" class="cls-1" d="M29.4,13.2a.6.6,0,0,0-.4.1c-.2.1-.3.4-.4.6a.52.52,0,0,1-.4.2.1.1,0,0,1-.1-.1v-.2l.1-.1c.1-.1,0-.2,0-.3s-.3-.4-.5-.3-.3.3-.5.5h0c-.1-.1-.2-.2-.2-.3v-.1c.1,0,.2.2.2.1s0-.2-.1-.2-.1-.1-.2-.1-.1-.1-.2-.2,0-.3-.1-.3a.37.37,0,0,1-.3-.1h-.2v-.1c.1,0,.3,0,.2-.2s-.1-.1-.2-.1H26v.3a.37.37,0,0,1-.3.1h-.1c-.1,0-.2-.1-.3-.1s-.1.2-.2.2-.1,0-.2.1-.1.2,0,.3V13a.1.1,0,0,1-.1-.1c0-.1-.1-.2-.1-.3s.1-.2.2-.3v-.2c-.1-.1-.1-.1-.2-.1s-.3.4-.5.3-.2-.2-.3-.2-.1-.1-.2,0a2.19,2.19,0,0,1-.5.3c-.1.1-.3.2-.3.4a.38.38,0,0,1-.6.1c-.1-.1-.2-.2-.3-.2s-.2.2-.3.2-.1,0-.2-.1v-.1l.6-.3c.1,0,.1-.1.1-.2V12a.68.68,0,0,0-.6.4.1.1,0,0,1-.1.1c-.2,0-.3.1-.5,0l-.1-.2c-.1.1-.1.2-.2.2l-.1.1c-.1.1.1.3,0,.4s-.2.1-.3.1v.2c0,.1.1,0,.1.1s.1.3.2.3.3,0,.5.1.2.1.3.2.1.1.1.2a.1.1,0,0,0,.1.1h.2c.1,0,0,.1.1.2a.76.76,0,0,0,.1.4s0,.2-.1.2a.1.1,0,0,0-.1.1v.3h.1c.1.1.1.2.2.3l.1.1a.1.1,0,0,0-.1.1.14.14,0,0,0,.2,0c.1,0,.1-.1.2-.1a.1.1,0,0,0,.1-.1.35.35,0,0,1,.1.2c-.1.1-.3,0-.4.1s-.1,0-.2.1a.1.1,0,0,0,.1.1c.2.1.1.4-.1.6v.2H22c-.2,0-.5-.1-.7,0s-.1.1-.1.2h0a.1.1,0,0,0-.1.1v.2c-.2.2-.2.5-.3.7a.1.1,0,0,0,.1.1c.1,0,.1-.1.2-.1s.1.2.1.2.2.1.2,0a.37.37,0,0,1,.1-.3c0-.1-.1-.2-.1-.3s0-.2.1-.2a.1.1,0,0,1,.1.1v.4a.14.14,0,0,1,0,.2.1.1,0,0,1-.1.1v.2c-.1.1-.1.1-.1.2-.2,0-.4-.1-.3-.3-.1,0-.1,0-.2.1V19c-.1.1-.1.2-.2.3v.1c-.1.1-.2.2-.3.2h0c-.1.1-.2,0-.2.1s.1.2.1.3,0,.1-.1.2h-.4a.37.37,0,0,1-.1.3c-.1.1,0,.2.1.2s.1.2.2.2.1.1.2.1a.22.22,0,0,0,.2-.2c0-.1.1,0,.2,0h.1a.14.14,0,0,0,0-.2l.4-.4c.1,0,.1-.1.2-.1s.1.1.2.1.1.1.2.1h.1c.1,0,.2.2.3.2h0a.37.37,0,0,0-.1-.3c-.1-.1-.2-.2-.3-.2v-.1h0c.1.1.1.1.2.1s.1.2.2.3.1.1.2.1a.37.37,0,0,0,.3-.1c0-.1,0-.1-.1-.1s0-.1.1-.2,0-.2,0-.3v-.1h0c.1-.1,0-.2,0-.4h0c0,.1.1.1.2.1a.22.22,0,0,0,.2-.2.19.19,0,0,1,.3.1c0,.1,0,.2-.1.2a.76.76,0,0,0-.5.2l-.1.1c-.1.1-.1.1-.1.2l-.1.1a.1.1,0,0,1,.1.1.37.37,0,0,0,.3-.1v-.2c.1,0,.1-.1.2-.1s.3.2.2.3h-.1c-.1.1-.2.3-.3.3s-.5.1-.7.2-.1.2-.2.2-.2.1-.3,0h0c0,.1-.2,0-.3,0a.31.31,0,0,0-.1-.2h-.1v-.1h-.8a.1.1,0,0,0-.1.1l-.1.1a.37.37,0,0,1-.3.1.37.37,0,0,0-.3.1c-.2,0-.3.2-.4.3a.37.37,0,0,1-.3.1v.1c-.2,0-.3.3-.4.5V22c-.1.1-.1.3-.3.4v.1c.1.2.3.3.5.5a.1.1,0,0,0,.1.1c.1.1.1.2.2.4s.3.2.5.2a.35.35,0,0,1,.2.1c.2,0,.5.1.7,0,.3.1.7,0,1,.1.1,0,.1.1.1.2s.2.3.3.4a.6.6,0,0,0,.4.1.31.31,0,0,0,.1.2c0,.1,0,.1.1.2s.1.1.1.2-.1.2-.1.4v.2a2.65,2.65,0,0,0,.6.5s.1,0,0,.1c.1,0,.1.1.2.2s0,.1.1.2l.3.3a.6.6,0,0,0,.4.1.1.1,0,0,1,.1.1c.1,0,.3.1.4,0s.1-.2.2-.2A.6.6,0,0,1,25,27a.1.1,0,0,0,.1-.1c0-.1.1-.1.1-.2s.2-.1.3-.1.3-.3.5-.4.4-.1.5-.2,0-.4,0-.6.1-.2.1-.3v-.5c0-.1-.1-.2-.1-.3s.1-.1.2-.1.1-.3.2-.4a.1.1,0,0,0,.1-.1c.1,0,0-.1,0-.2a.1.1,0,0,1-.1-.1,1.21,1.21,0,0,0-.5-.5.1.1,0,0,1-.1-.1v-.1c-.1,0,0-.1-.1-.1h.1c.1-.1.1-.3.2-.4a.1.1,0,0,0,.1-.1v-.3c-.1-.1,0-.3,0-.4a2.2,2.2,0,0,0-.1-.8c0-.1-.1-.1-.2-.1a.1.1,0,0,1-.1.1.31.31,0,0,1-.1.2c0,.1-.2.1-.2.2s0,.1-.1.2l-.1.1c.4-.3.3-.3.3-.2h-.3a14.24,14.24,0,0,0-1.6-.5h.3c.1,0,0-.1,0-.1s.2.1.3.2.5.1.7.2.3.2.5.2.3-.1.4-.1v-.1c.1-.1.2-.2.2-.3v-.3l.1-.1v-.4a.1.1,0,0,0,.1-.1v-.3a.75.75,0,0,0-.1-.5c0-.1-.1-.1-.2-.1a.1.1,0,0,1-.1.1c-.1,0-.2,0-.2.1a.1.1,0,0,0-.1.1.52.52,0,0,1-.4.2c-.1,0-.2,0-.2-.1s.2-.2.4-.2l.1-.1a.22.22,0,0,1,.2-.2h.2c.1,0,.1-.1.2-.1a.31.31,0,0,1,.1-.2c0-.1.1-.1.2-.2s.1-.4.2-.6,0,.1.1.2a.19.19,0,0,0,.3,0c.1-.1,0-.2.1-.2h.1c.1,0,.1.1.2.1a.35.35,0,0,1,.2-.1h.3c.2-.1.6,0,.6-.2a.86.86,0,0,0-.6-.7c-.2-.1-.1-.4-.3-.6-.1,0,0-.1-.1-.2l-.1-.1-.1-.1v-.5c0-.1.1-.1.2-.1s.2-.1.2-.2v-.4l.1-.1c.2,0,.5.1.7-.1.1,0,.1-.1.1-.2a1,1,0,0,0,.4-.8c-.1.1,0,.1,0-.1.1.1.1,0,0,0m-4.5,5.4h0c-.1.1-.1.1-.2,0s-.1-.1-.1-.2-.1,0-.1.1h-.2c0-.1-.1-.1-.1-.2s0-.2.1-.2.1,0,.1.1h0v.1c.1.1.1,0,.2,0h.3c0,.1.1.2,0,.3h0"/><path id="Shape-81" data-name="Shape" class="cls-1" d="M15.6,36c1.3-1.9,5.2-3.9,9-3.9s8,2.2,9.6,1a8.38,8.38,0,0,1-5.1,1.4c-3.4,0-4.7-1.7-7-1.7s-4.8,1.9-5.9,3.5Z"/><path id="Shape-82" data-name="Shape" class="cls-1" d="M27.7,31.8a5.34,5.34,0,0,0,1.7-1.9,14.44,14.44,0,0,1,3.7-4.4s-1.7,5.5-3.5,5.7c0,0-.3.2.2.1s2.8-.9,3.6-1.1a8.58,8.58,0,0,0,3.3-1.1,1.48,1.48,0,0,1,.8-.4s-2.2,3.7-6.2,3.7a17.1,17.1,0,0,1-3.6-.6"/><path id="Shape-83" data-name="Shape" class="cls-1" d="M32.4,29.9a3.92,3.92,0,0,0,.5-1.7,14.64,14.64,0,0,1,2.7-6.3s.3,4.3-1.9,7c0,0-.1.4.1.1a22.93,22.93,0,0,1,4.6-3.9s1.5-1.3,1.6-1.7c0-.1-1.2,6.1-7.6,6.5"/><path id="Shape-84" data-name="Shape" class="cls-1" d="M36.1,25.8a5.62,5.62,0,0,0,.2-1.3c0-.6-.3-2.6-.3-3.5a7.53,7.53,0,0,1,.8-3.7,4.5,4.5,0,0,0,.2,1.4,12.29,12.29,0,0,1,.5,2.5,10.27,10.27,0,0,1-.4,2.5,2.13,2.13,0,0,0,.6-.8,12.81,12.81,0,0,1,2.2-2.8A5.62,5.62,0,0,0,41.3,18a6.08,6.08,0,0,1-1.2,4.1c-1.5,2.1-2.1,1.8-2.9,2.6a11.41,11.41,0,0,1-1.1,1.1"/><path id="Shape-85" data-name="Shape" class="cls-1" d="M38.4,20.9a3.87,3.87,0,0,0-.3-1.6,10.5,10.5,0,0,1-1.3-5.9s.2-.2.6,1,1,1.6,1.2,2.8a12,12,0,0,1,.2,1.7s.1.2.1,0a9,9,0,0,1,.8-3.2c.7-1.5,1.6-2.9,1.5-3.9,0,0,.4,0,.3,1.6.1,1.6-.3,4.4-3.1,7.5"/><path id="Shape-86" data-name="Shape" class="cls-1" d="M39.2,16.1a12,12,0,0,0-.8-1.5c-.3-.4-2.7-3.7-2.9-5.3,0,0,.2-.1.4.3a12.94,12.94,0,0,0,1.5,1.7,5,5,0,0,1,1.5,2.8s.1.1-.1-2.1.7-3.7-.1-5.3c0,0,1.1.2,1.7,4.8a9.68,9.68,0,0,1-.9,3.6c.1-.1-.2,1-.3,1"/><path id="Shape-87" data-name="Shape" class="cls-1" d="M38.3,11a9.94,9.94,0,0,0-1.6-1.3,9.58,9.58,0,0,1-3.3-4.3s.1-.2.8.7c.5.7,1.1.4,2.7,2.4,0,0,.2.5.3.4s-.1-.5-.1-.5S37,7.2,37,6.8a15.83,15.83,0,0,0-.9-3.1,5.82,5.82,0,0,1,2.5,4.7c-.1,0-.2,2.5-.3,2.6"/><path id="Shape-88" data-name="Shape" class="cls-1" d="M36.5,7.3s.1-3-3.8-4.6c0,0,1.4,2.8,2.4,3.5a11.57,11.57,0,0,1,1.4,1.1"/><path id="Shape-89" data-name="Shape" class="cls-1" d="M26.3,36c-1.3-1.9-5.2-3.9-9-3.9s-8,2.2-9.6,1a8.38,8.38,0,0,0,5.1,1.4c3.4,0,4.7-1.7,7-1.7s4.8,1.9,5.9,3.5Z"/><path id="Shape-90" data-name="Shape" class="cls-1" d="M14.2,31.8a5.34,5.34,0,0,1-1.7-1.9,14.44,14.44,0,0,0-3.7-4.4s1.7,5.5,3.5,5.7c0,0,.3.2-.2.1s-2.8-.9-3.6-1.1a8.58,8.58,0,0,1-3.3-1.1,1.24,1.24,0,0,0-.8-.4s2.2,3.7,6.2,3.7a17.1,17.1,0,0,0,3.6-.6"/><path id="Shape-91" data-name="Shape" class="cls-1" d="M9.5,29.9A3.92,3.92,0,0,1,9,28.2a14.64,14.64,0,0,0-2.7-6.3s-.3,4.3,1.9,7c0,0,.1.4-.1.1a22.93,22.93,0,0,0-4.6-3.9S2,23.8,1.9,23.4c0-.1,1.2,6.1,7.6,6.5"/><path id="Shape-92" data-name="Shape" class="cls-1" d="M5.8,25.8a5.62,5.62,0,0,1-.2-1.3c0-.6.3-2.6.3-3.5a7.53,7.53,0,0,0-.8-3.7,4.5,4.5,0,0,1-.2,1.4,12.29,12.29,0,0,0-.5,2.5,10.27,10.27,0,0,0,.4,2.5,2.13,2.13,0,0,1-.6-.8A12.81,12.81,0,0,0,2,20.1,5.62,5.62,0,0,1,.6,18a6.08,6.08,0,0,0,1.2,4.1c1.5,2.1,2.1,1.8,2.9,2.6.1,0,1,1.1,1.1,1.1"/><path id="Shape-93" data-name="Shape" class="cls-1" d="M3.5,20.9a6.93,6.93,0,0,1,.3-1.6,10.5,10.5,0,0,0,1.3-5.9s-.2-.2-.6,1-1,1.6-1.2,2.8A8.18,8.18,0,0,0,3,18.9s-.1.2-.1,0a9,9,0,0,0-.8-3.2C1.4,14.2.5,12.8.6,11.8c0,0-.4,0-.3,1.6a11,11,0,0,0,3.2,7.5"/><path id="Shape-94" data-name="Shape" class="cls-1" d="M2.7,16.1a12,12,0,0,1,.8-1.5c.3-.4,2.7-3.7,2.9-5.3,0,0-.2-.1-.4.3a12.94,12.94,0,0,1-1.5,1.7A5,5,0,0,0,3,14.1s-.1.1.1-2.1-.7-3.7.1-5.3c0,0-1.1.2-1.7,4.8a9.68,9.68,0,0,0,.9,3.6c-.1-.1.2,1,.3,1"/><path id="Shape-95" data-name="Shape" class="cls-1" d="M3.6,11A9.94,9.94,0,0,1,5.2,9.7,9.58,9.58,0,0,0,8.5,5.4s-.1-.2-.8.7c-.5.7-1.1.4-2.7,2.4,0,0-.2.5-.3.4s.1-.5.1-.5a13.88,13.88,0,0,0,.3-1.7A15.83,15.83,0,0,1,6,3.6,5.82,5.82,0,0,0,3.5,8.3,12.21,12.21,0,0,0,3.6,11"/><path id="Shape-96" data-name="Shape" class="cls-1" d="M5.4,7.3s-.1-3,3.8-4.6c0,0-1.4,2.8-2.4,3.5A11.57,11.57,0,0,0,5.4,7.3"/></g></g></g></g></svg>
